font.ufo
<glyph name="plus" format="1">
  <advance width="600"/>
  <unicode hex="002B"/>
  <outline>
    <contour>
      <point x="131" y="267" type="curve" smooth="yes"/>
      <point x="220" y="267"/>
      <point x="633" y="281"/>
      <point x="633" y="372" type="curve" smooth="yes"/>
      <point x="633" y="395"/>
      <point x="584" y="401"/>
      <point x="516" y="401" type="curve" smooth="yes"/>
      <point x="468" y="401"/>
      <point x="296" y="394"/>
      <point x="251" y="390" type="curve" smooth="yes"/>
      <point x="179" y="383"/>
      <point x="111" y="381"/>
      <point x="86" y="381" type="curve" smooth="yes"/>
      <point x="64" y="381"/>
      <point x="55" y="372"/>
      <point x="55" y="354" type="curve" smooth="yes"/>
      <point x="55" y="321"/>
      <point x="86" y="267"/>
    </contour>
    <contour>
      <point x="386" y="267" type="curve" smooth="yes"/>
      <point x="410" y="372"/>
      <point x="433" y="463"/>
      <point x="433" y="501" type="curve" smooth="yes"/>
      <point x="433" y="525"/>
      <point x="355" y="604"/>
      <point x="310" y="604" type="curve" smooth="yes"/>
      <point x="294" y="604"/>
      <point x="281" y="596"/>
      <point x="281" y="572" type="curve" smooth="yes"/>
      <point x="281" y="329"/>
      <point x="232" y="198"/>
      <point x="232" y="158" type="curve" smooth="yes"/>
      <point x="232" y="119"/>
      <point x="286" y="71"/>
      <point x="315" y="71" type="curve" smooth="yes"/>
      <point x="338" y="71"/>
      <point x="349" y="108"/>
    </contour>
  </outline>
</glyph>
<glyph name="comma" format="1">
  <advance width="262"/>
  <unicode hex="002C"/>
  <outline>
    <contour>
      <point x="50" y="-225" type="curve" smooth="yes"/>
      <point x="113" y="-225"/>
      <point x="221" y="-90"/>
      <point x="221" y="19" type="curve" smooth="yes"/>
      <point x="221" y="78"/>
      <point x="172" y="142"/>
      <point x="119" y="142" type="curve" smooth="yes"/>
      <point x="78" y="142"/>
      <point x="33" y="89"/>
      <point x="33" y="62" type="curve" smooth="yes"/>
      <point x="33" y="28"/>
      <point x="104" y="20"/>
      <point x="104" y="-30" type="curve" smooth="yes"/>
      <point x="104" y="-97"/>
      <point x="20" y="-178"/>
      <point x="20" y="-204" type="curve" smooth="yes"/>
      <point x="20" y="-219"/>
      <point x="31" y="-225"/>
    </contour>
  </outline>
</glyph>
<glyph name="one" format="1">
  <advance width="302"/>
  <unicode hex="0031"/>
  <outline>
    <contour>
      <point x="297" y="648" type="curve" smooth="yes"/>
      <point x="297" y="671"/>
      <point x="207" y="751"/>
      <point x="164" y="751" type="curve" smooth="yes"/>
      <point x="149" y="751"/>
      <point x="135" y="743"/>
      <point x="135" y="722" type="curve" smooth="yes"/>
      <point x="135" y="378"/>
      <point x="46" y="167"/>
      <point x="46" y="99" type="curve" smooth="yes"/>
      <point x="46" y="61"/>
      <point x="99" y="13"/>
      <point x="128" y="13" type="curve" smooth="yes"/>
      <point x="175" y="13"/>
      <point x="198" y="184"/>
      <point x="239" y="343" type="curve" smooth="yes"/>
      <point x="274" y="480"/>
      <point x="297" y="571"/>
    </contour>
  </outline>
</glyph>
<glyph name="three" format="1">
  <advance width="547"/>
  <unicode hex="0033"/>
  <outline>
    <contour>
      <point x="211" y="318" type="curve" smooth="yes"/>
      <point x="314" y="318"/>
      <point x="526" y="477"/>
      <point x="526" y="591" type="curve" smooth="yes"/>
      <point x="526" y="665"/>
      <point x="454" y="745"/>
      <point x="363" y="745" type="curve" smooth="yes"/>
      <point x="274" y="745"/>
      <point x="102" y="695"/>
      <point x="102" y="635" type="curve" smooth="yes"/>
      <point x="102" y="613"/>
      <point x="170" y="547"/>
      <point x="193" y="547" type="curve" smooth="yes"/>
      <point x="233" y="547"/>
      <point x="304" y="612"/>
      <point x="365" y="612" type="curve" smooth="yes"/>
      <point x="370" y="612"/>
      <point x="374" y="608"/>
      <point x="374" y="600" type="curve" smooth="yes"/>
      <point x="374" y="492"/>
      <point x="153" y="411"/>
      <point x="153" y="355" type="curve" smooth="yes"/>
      <point x="153" y="331"/>
      <point x="177" y="318"/>
    </contour>
    <contour>
      <point x="-27" y="59" type="curve" smooth="yes"/>
      <point x="-27" y="34"/>
      <point x="0" y="12"/>
      <point x="81" y="12" type="curve" smooth="yes"/>
      <point x="259" y="12"/>
      <point x="511" y="129"/>
      <point x="511" y="258" type="curve" smooth="yes"/>
      <point x="511" y="351"/>
      <point x="404" y="398"/>
      <point x="230" y="398" type="curve" smooth="yes"/>
      <point x="196" y="398"/>
      <point x="153" y="384"/>
      <point x="153" y="359" type="curve" smooth="yes"/>
      <point x="153" y="283"/>
      <point x="333" y="325"/>
      <point x="333" y="258" type="curve" smooth="yes"/>
      <point x="333" y="154"/>
      <point x="-27" y="108"/>
    </contour>
  </outline>
</glyph>
<glyph name="five" format="1">
  <advance width="506"/>
  <unicode hex="0035"/>
  <outline>
    <contour>
      <point x="576" y="695" type="curve" smooth="yes"/>
      <point x="576" y="725"/>
      <point x="498" y="739"/>
      <point x="393" y="739" type="curve" smooth="yes"/>
      <point x="304" y="739"/>
      <point x="283" y="738"/>
      <point x="249" y="732" type="curve"/>
      <point x="193" y="722"/>
      <point x="113" y="569"/>
      <point x="113" y="499" type="curve" smooth="yes"/>
      <point x="113" y="352"/>
      <point x="302" y="323"/>
      <point x="302" y="248" type="curve" smooth="yes"/>
      <point x="302" y="196"/>
      <point x="209" y="134"/>
      <point x="146" y="134" type="curve" smooth="yes"/>
      <point x="78" y="134"/>
      <point x="46" y="208"/>
      <point x="11" y="208" type="curve" smooth="yes"/>
      <point x="-3" y="208"/>
      <point x="-13" y="186"/>
      <point x="-13" y="161" type="curve" smooth="yes"/>
      <point x="-13" y="83"/>
      <point x="81" y="9"/>
      <point x="187" y="9" type="curve" smooth="yes"/>
      <point x="307" y="9"/>
      <point x="459" y="126"/>
      <point x="459" y="251" type="curve" smooth="yes"/>
      <point x="459" y="362"/>
      <point x="269" y="429"/>
      <point x="269" y="500" type="curve" smooth="yes"/>
      <point x="269" y="526"/>
      <point x="295" y="595"/>
      <point x="323" y="602" type="curve" smooth="yes"/>
      <point x="434" y="628"/>
      <point x="576" y="651"/>
    </contour>
  </outline>
</glyph>
<glyph name="six" format="1">
  <advance width="542"/>
  <unicode hex="0036"/>
  <outline>
    <contour>
      <point x="13" y="178" type="curve" smooth="yes"/>
      <point x="13" y="90"/>
      <point x="75" y="17"/>
      <point x="171" y="17" type="curve" smooth="yes"/>
      <point x="334" y="17"/>
      <point x="512" y="171"/>
      <point x="512" y="291" type="curve" smooth="yes"/>
      <point x="512" y="368"/>
      <point x="393" y="435"/>
      <point x="273" y="446" type="curve"/>
      <point x="202" y="360" type="line"/>
      <point x="296" y="348"/>
      <point x="351" y="314"/>
      <point x="351" y="278" type="curve" smooth="yes"/>
      <point x="351" y="218"/>
      <point x="274" y="146"/>
      <point x="188" y="146" type="curve" smooth="yes"/>
      <point x="166" y="146"/>
      <point x="154" y="162"/>
      <point x="154" y="189" type="curve" smooth="yes"/>
      <point x="154" y="343"/>
      <point x="474" y="640"/>
      <point x="474" y="689" type="curve" smooth="yes"/>
      <point x="474" y="717"/>
      <point x="419" y="742"/>
      <point x="378" y="742" type="curve" smooth="yes"/>
      <point x="303" y="742"/>
      <point x="13" y="361"/>
    </contour>
  </outline>
</glyph>
<glyph name="nine" format="1">
  <advance width="506"/>
  <unicode hex="0039"/>
  <outline>
    <contour>
      <point x="320" y="755" type="curve" smooth="yes"/>
      <point x="205" y="755"/>
      <point x="66" y="584"/>
      <point x="66" y="436" type="curve" smooth="yes"/>
      <point x="66" y="379"/>
      <point x="157" y="279"/>
      <point x="221" y="279" type="curve" smooth="yes"/>
      <point x="325" y="279"/>
      <point x="499" y="406"/>
      <point x="499" y="495" type="curve" smooth="yes"/>
      <point x="499" y="517"/>
      <point x="461" y="544"/>
      <point x="431" y="544" type="curve" smooth="yes"/>
      <point x="377" y="544"/>
      <point x="313" y="394"/>
      <point x="230" y="394" type="curve" smooth="yes"/>
      <point x="208" y="394"/>
      <point x="187" y="415"/>
      <point x="187" y="435" type="curve" smooth="yes"/>
      <point x="187" y="505"/>
      <point x="282" y="628"/>
      <point x="311" y="628" type="curve" smooth="yes"/>
      <point x="321" y="628"/>
      <point x="333" y="601"/>
      <point x="333" y="577" type="curve" smooth="yes"/>
      <point x="333" y="548"/>
      <point x="329" y="530"/>
      <point x="329" y="509" type="curve" smooth="yes"/>
      <point x="329" y="495"/>
      <point x="347" y="484"/>
      <point x="385" y="484" type="curve" smooth="yes"/>
      <point x="437" y="484"/>
      <point x="450" y="540"/>
      <point x="450" y="602" type="curve" smooth="yes"/>
      <point x="450" y="668"/>
      <point x="416" y="755"/>
    </contour>
    <contour>
      <point x="496" y="499" type="curve" smooth="yes"/>
      <point x="496" y="531"/>
      <point x="462" y="549"/>
      <point x="421" y="549" type="curve" smooth="yes"/>
      <point x="358" y="548"/>
      <point x="273" y="255"/>
      <point x="273" y="111" type="curve" smooth="yes"/>
      <point x="273" y="50"/>
      <point x="285" y="-3"/>
      <point x="318" y="-3" type="curve" smooth="yes"/>
      <point x="358" y="-3"/>
      <point x="392" y="198"/>
      <point x="436" y="331" type="curve" smooth="yes"/>
      <point x="455" y="389"/>
      <point x="496" y="472"/>
    </contour>
  </outline>
</glyph>
<glyph name="semicolon" format="1">
  <advance width="306"/>
  <unicode hex="003B"/>
  <outline>
    <contour>
      <point x="223" y="286" type="curve" smooth="yes"/>
      <point x="251" y="286"/>
      <point x="269" y="313"/>
      <point x="269" y="343" type="curve" smooth="yes"/>
      <point x="269" y="388"/>
      <point x="229" y="537"/>
      <point x="171" y="537" type="curve" smooth="yes"/>
      <point x="148" y="537"/>
      <point x="120" y="477"/>
      <point x="120" y="439" type="curve" smooth="yes"/>
      <point x="120" y="395"/>
      <point x="186" y="286"/>
    </contour>
    <component base="comma" xOffset="1" yOffset="7"/>
  </outline>
</glyph>
<glyph name="at" format="1">
  <advance width="1078"/>
  <unicode hex="0040"/>
  <outline>
    <contour>
      <point x="47" y="156" type="curve" smooth="yes"/>
      <point x="47" y="-26"/>
      <point x="214" y="-165"/>
      <point x="386" y="-165" type="curve" smooth="yes"/>
      <point x="486" y="-165"/>
      <point x="657" y="-99"/>
      <point x="657" y="-21" type="curve" smooth="yes"/>
      <point x="657" y="-2"/>
      <point x="649" y="5"/>
      <point x="634" y="5" type="curve" smooth="yes"/>
      <point x="596" y="5"/>
      <point x="512" y="-37"/>
      <point x="379" y="-37" type="curve" smooth="yes"/>
      <point x="243" y="-37"/>
      <point x="197" y="35"/>
      <point x="197" y="158" type="curve" smooth="yes"/>
      <point x="197" y="374"/>
      <point x="406" y="634"/>
      <point x="664" y="634" type="curve" smooth="yes"/>
      <point x="781" y="634"/>
      <point x="867" y="565"/>
      <point x="867" y="428" type="curve" smooth="yes"/>
      <point x="867" y="292"/>
      <point x="750" y="209"/>
      <point x="740" y="209" type="curve" smooth="yes"/>
      <point x="738" y="209"/>
      <point x="737" y="210"/>
      <point x="737" y="212" type="curve" smooth="yes"/>
      <point x="737" y="221"/>
      <point x="752" y="250"/>
      <point x="752" y="287" type="curve" smooth="yes"/>
      <point x="752" y="327"/>
      <point x="676" y="374"/>
      <point x="655" y="374" type="curve" smooth="yes"/>
      <point x="638" y="374"/>
      <point x="629" y="372"/>
      <point x="626" y="360" type="curve" smooth="yes"/>
      <point x="605" y="255"/>
      <point x="462" y="182"/>
      <point x="439" y="182" type="curve" smooth="yes"/>
      <point x="428" y="182"/>
      <point x="427" y="192"/>
      <point x="427" y="199" type="curve" smooth="yes"/>
      <point x="427" y="236"/>
      <point x="529" y="406"/>
      <point x="603" y="406" type="curve" smooth="yes"/>
      <point x="614" y="406"/>
      <point x="633" y="386"/>
      <point x="643" y="337" type="curve" smooth="yes"/>
      <point x="651" y="301"/>
      <point x="656" y="281"/>
      <point x="675" y="281" type="curve" smooth="yes"/>
      <point x="697" y="281"/>
      <point x="745" y="340"/>
      <point x="745" y="386" type="curve" smooth="yes"/>
      <point x="745" y="463"/>
      <point x="647" y="532"/>
      <point x="596" y="532" type="curve" smooth="yes"/>
      <point x="445" y="532"/>
      <point x="305" y="293"/>
      <point x="305" y="199" type="curve" smooth="yes"/>
      <point x="305" y="143"/>
      <point x="392" y="62"/>
      <point x="447" y="62" type="curve" smooth="yes"/>
      <point x="527" y="62"/>
      <point x="655" y="205"/>
      <point x="709" y="280" type="curve"/>
      <point x="626" y="322" type="line"/>
      <point x="602" y="283"/>
      <point x="595" y="240"/>
      <point x="595" y="195" type="curve" smooth="yes"/>
      <point x="595" y="147"/>
      <point x="618" y="73"/>
      <point x="693" y="73" type="curve" smooth="yes"/>
      <point x="800" y="73"/>
      <point x="1004" y="228"/>
      <point x="1004" y="436" type="curve" smooth="yes"/>
      <point x="1004" y="641"/>
      <point x="853" y="767"/>
      <point x="662" y="767" type="curve" smooth="yes"/>
      <point x="294" y="767"/>
      <point x="47" y="425"/>
    </contour>
  </outline>
</glyph>
<glyph name="B" format="1">
  <advance width="624"/>
  <unicode hex="0042"/>
  <outline>
    <contour>
      <point x="185" y="580" type="curve" smooth="yes"/>
      <point x="225" y="580"/>
      <point x="331" y="609"/>
      <point x="388" y="609" type="curve" smooth="yes"/>
      <point x="415" y="609"/>
      <point x="432" y="600"/>
      <point x="432" y="573" type="curve" smooth="yes"/>
      <point x="432" y="513"/>
      <point x="351" y="478"/>
      <point x="299" y="447" type="curve" smooth="yes"/>
      <point x="259" y="423"/>
      <point x="225" y="403"/>
      <point x="225" y="381" type="curve" smooth="yes"/>
      <point x="225" y="356"/>
      <point x="263" y="313"/>
      <point x="286" y="313" type="curve" smooth="yes"/>
      <point x="321" y="313"/>
      <point x="439" y="295"/>
      <point x="439" y="264" type="curve" smooth="yes"/>
      <point x="439" y="207"/>
      <point x="200" y="134"/>
      <point x="133" y="134" type="curve" smooth="yes"/>
      <point x="90" y="134"/>
      <point x="53" y="167"/>
      <point x="33" y="167" type="curve" smooth="yes"/>
      <point x="16" y="167"/>
      <point x="5" y="152"/>
      <point x="5" y="130" type="curve" smooth="yes"/>
      <point x="5" y="92"/>
      <point x="92" y="7"/>
      <point x="145" y="7" type="curve" smooth="yes"/>
      <point x="321" y="7"/>
      <point x="565" y="131"/>
      <point x="565" y="260" type="curve" smooth="yes"/>
      <point x="565" y="314"/>
      <point x="499" y="358"/>
      <point x="424" y="378" type="curve" smooth="yes"/>
      <point x="404" y="384"/>
      <point x="383" y="387"/>
      <point x="362" y="389" type="curve"/>
      <point x="386" y="364" type="line"/>
      <point x="488" y="422"/>
      <point x="570" y="504"/>
      <point x="570" y="582" type="curve" smooth="yes"/>
      <point x="570" y="697"/>
      <point x="433" y="737"/>
      <point x="261" y="737" type="curve" smooth="yes"/>
      <point x="175" y="737"/>
      <point x="107" y="714"/>
      <point x="107" y="675" type="curve" smooth="yes"/>
      <point x="107" y="654"/>
      <point x="153" y="580"/>
    </contour>
    <contour>
      <point x="154" y="606" type="curve" smooth="yes"/>
      <point x="153" y="440"/>
      <point x="86" y="267"/>
      <point x="86" y="220" type="curve" smooth="yes"/>
      <point x="86" y="179"/>
      <point x="156" y="132"/>
      <point x="178" y="132" type="curve" smooth="yes"/>
      <point x="189" y="132"/>
      <point x="200" y="172"/>
      <point x="224" y="274" type="curve" smooth="yes"/>
      <point x="263" y="434"/>
      <point x="278" y="484"/>
      <point x="278" y="521" type="curve" smooth="yes"/>
      <point x="278" y="559"/>
      <point x="202" y="636"/>
      <point x="177" y="636" type="curve" smooth="yes"/>
      <point x="158" y="636"/>
      <point x="154" y="627"/>
    </contour>
  </outline>
</glyph>
<glyph name="G" format="1">
  <advance width="597"/>
  <unicode hex="0047"/>
  <outline>
    <contour>
      <point x="461" y="723" type="move" name="top"/>
    </contour>
    <contour>
      <point x="21" y="183" type="curve" smooth="yes"/>
      <point x="21" y="99"/>
      <point x="131" y="20"/>
      <point x="215" y="20" type="curve" smooth="yes"/>
      <point x="294" y="20"/>
      <point x="384" y="92"/>
      <point x="446" y="184" type="curve"/>
      <point x="436" y="192" type="line"/>
      <point x="404" y="94"/>
      <point x="384" y="-2"/>
      <point x="384" y="-52" type="curve" smooth="yes"/>
      <point x="384" y="-70"/>
      <point x="398" y="-82"/>
      <point x="417" y="-82" type="curve"/>
      <point x="468" y="-82"/>
      <point x="544" y="186"/>
      <point x="544" y="239" type="curve" smooth="yes"/>
      <point x="544" y="305"/>
      <point x="512" y="387"/>
      <point x="426" y="387" type="curve" smooth="yes"/>
      <point x="363" y="387"/>
      <point x="277" y="370"/>
      <point x="277" y="339" type="curve" smooth="yes"/>
      <point x="277" y="313"/>
      <point x="318" y="281"/>
      <point x="356" y="281" type="curve" smooth="yes"/>
      <point x="373" y="281"/>
      <point x="391" y="281"/>
      <point x="413" y="282" type="curve"/>
      <point x="363" y="213"/>
      <point x="254" y="146"/>
      <point x="192" y="146" type="curve" smooth="yes"/>
      <point x="168" y="146"/>
      <point x="158" y="157"/>
      <point x="158" y="172" type="curve" smooth="yes"/>
      <point x="158" y="351"/>
      <point x="313" y="597"/>
      <point x="453" y="597" type="curve"/>
      <point x="496" y="597"/>
      <point x="503" y="589"/>
      <point x="514" y="589" type="curve"/>
      <point x="523" y="589"/>
      <point x="527" y="594"/>
      <point x="527" y="607" type="curve"/>
      <point x="527" y="658"/>
      <point x="473" y="740"/>
      <point x="432" y="740" type="curve" smooth="yes"/>
      <point x="251" y="740"/>
      <point x="21" y="403"/>
    </contour>
  </outline>
</glyph>
<glyph name="H" format="1">
  <advance width="651"/>
  <unicode hex="0048"/>
  <outline>
    <contour>
      <point x="147" y="13" type="curve"/>
      <point x="166" y="13"/>
      <point x="177" y="103"/>
      <point x="210" y="229" type="curve" smooth="yes"/>
      <point x="255" y="398"/>
      <point x="297" y="571"/>
      <point x="297" y="607" type="curve" smooth="yes"/>
      <point x="297" y="667"/>
      <point x="225" y="745"/>
      <point x="196" y="745" type="curve" smooth="yes"/>
      <point x="175" y="745"/>
      <point x="167" y="733"/>
      <point x="167" y="712" type="curve" smooth="yes"/>
      <point x="167" y="595"/>
      <point x="50" y="204"/>
      <point x="50" y="132" type="curve" smooth="yes"/>
      <point x="50" y="101"/>
      <point x="118" y="13"/>
    </contour>
    <contour>
      <point x="451" y="13" type="curve" smooth="yes"/>
      <point x="469" y="13"/>
      <point x="483" y="103"/>
      <point x="516" y="229" type="curve" smooth="yes"/>
      <point x="560" y="398"/>
      <point x="610" y="571"/>
      <point x="610" y="607" type="curve" smooth="yes"/>
      <point x="610" y="667"/>
      <point x="537" y="745"/>
      <point x="509" y="745" type="curve" smooth="yes"/>
      <point x="487" y="745"/>
      <point x="480" y="733"/>
      <point x="480" y="712" type="curve" smooth="yes"/>
      <point x="480" y="591"/>
      <point x="360" y="179"/>
      <point x="360" y="127" type="curve"/>
      <point x="360" y="73"/>
      <point x="422" y="13"/>
    </contour>
    <contour>
      <point x="462" y="446" type="curve" smooth="yes"/>
      <point x="326" y="446"/>
      <point x="56" y="402"/>
      <point x="56" y="348" type="curve" smooth="yes"/>
      <point x="56" y="305"/>
      <point x="88" y="267"/>
      <point x="126" y="267" type="curve" smooth="yes"/>
      <point x="166" y="267"/>
      <point x="212" y="286"/>
      <point x="295" y="303" type="curve" smooth="yes"/>
      <point x="446" y="334"/>
      <point x="621" y="339"/>
      <point x="621" y="396" type="curve" smooth="yes"/>
      <point x="621" y="440"/>
      <point x="517" y="446"/>
    </contour>
  </outline>
</glyph>
<glyph name="J" format="1">
  <advance width="486"/>
  <unicode hex="004A"/>
  <outline>
    <contour>
      <point x="38" y="255" type="curve" smooth="yes"/>
      <point x="19" y="255"/>
      <point x="13" y="241"/>
      <point x="13" y="206" type="curve" smooth="yes"/>
      <point x="13" y="138"/>
      <point x="113" y="13"/>
      <point x="213" y="13" type="curve" smooth="yes"/>
      <point x="338" y="13"/>
      <point x="371" y="166"/>
      <point x="434" y="435" type="curve" smooth="yes"/>
      <point x="453" y="517"/>
      <point x="514" y="674"/>
      <point x="514" y="704" type="curve" smooth="yes"/>
      <point x="514" y="730"/>
      <point x="491" y="740"/>
      <point x="471" y="740" type="curve" smooth="yes"/>
      <point x="408" y="740"/>
      <point x="123" y="703"/>
      <point x="123" y="623" type="curve"/>
      <point x="123" y="600"/>
      <point x="140" y="579"/>
      <point x="173" y="579" type="curve" smooth="yes"/>
      <point x="198" y="579"/>
      <point x="307" y="594"/>
      <point x="343" y="602" type="curve"/>
      <point x="334" y="578"/>
      <point x="320" y="502"/>
      <point x="308" y="454" type="curve" smooth="yes"/>
      <point x="250" y="228"/>
      <point x="225" y="143"/>
      <point x="192" y="143" type="curve" smooth="yes"/>
      <point x="121" y="143"/>
      <point x="76" y="255"/>
    </contour>
  </outline>
</glyph>
<glyph name="Q" format="1">
  <advance width="659"/>
  <unicode hex="0051"/>
  <outline>
    <contour>
      <point x="279" y="13" type="curve" smooth="yes"/>
      <point x="486" y="13"/>
      <point x="644" y="284"/>
      <point x="644" y="471" type="curve" smooth="yes"/>
      <point x="644" y="613"/>
      <point x="520" y="747"/>
      <point x="386" y="747" type="curve" smooth="yes"/>
      <point x="242" y="747"/>
      <point x="32" y="487"/>
      <point x="32" y="230" type="curve" smooth="yes"/>
      <point x="32" y="140"/>
      <point x="175" y="13"/>
    </contour>
    <contour>
      <point x="398" y="616" type="curve" smooth="yes"/>
      <point x="437" y="616"/>
      <point x="502" y="567"/>
      <point x="502" y="461" type="curve" smooth="yes"/>
      <point x="502" y="320"/>
      <point x="363" y="134"/>
      <point x="278" y="134" type="curve" smooth="yes"/>
      <point x="254" y="134"/>
      <point x="179" y="172"/>
      <point x="179" y="230" type="curve" smooth="yes"/>
      <point x="179" y="411"/>
      <point x="333" y="616"/>
    </contour>
    <contour>
      <point x="377" y="587" type="curve" smooth="yes"/>
      <point x="377" y="607"/>
      <point x="400" y="621"/>
      <point x="418" y="628" type="curve"/>
      <point x="418" y="684" type="line"/>
      <point x="272" y="626"/>
      <point x="254" y="570"/>
      <point x="254" y="462" type="curve" smooth="yes"/>
      <point x="254" y="348"/>
      <point x="394" y="-172"/>
      <point x="503" y="-172" type="curve" smooth="yes"/>
      <point x="531" y="-172"/>
      <point x="540" y="-161"/>
      <point x="540" y="-131" type="curve" smooth="yes"/>
      <point x="540" y="-34"/>
      <point x="377" y="224"/>
    </contour>
  </outline>
</glyph>
<glyph name="U" format="1">
  <advance width="595"/>
  <unicode hex="0055"/>
  <outline>
    <contour>
      <point x="327" y="743" type="move" name="top"/>
    </contour>
    <contour>
      <point x="255" y="23" type="move" name="ogonek"/>
    </contour>
    <contour>
      <point x="170" y="747" type="curve" smooth="yes"/>
      <point x="147" y="747"/>
      <point x="140" y="734"/>
      <point x="140" y="714" type="curve" smooth="yes"/>
      <point x="140" y="623"/>
      <point x="60" y="425"/>
      <point x="60" y="229" type="curve" smooth="yes"/>
      <point x="60" y="143"/>
      <point x="147" y="12"/>
      <point x="240" y="12" type="curve" smooth="yes"/>
      <point x="449" y="12"/>
      <point x="590" y="358"/>
      <point x="590" y="574" type="curve" smooth="yes"/>
      <point x="590" y="672"/>
      <point x="490" y="748"/>
      <point x="457" y="748" type="curve" smooth="yes"/>
      <point x="437" y="748"/>
      <point x="431" y="736"/>
      <point x="431" y="717" type="curve" smooth="yes"/>
      <point x="431" y="684"/>
      <point x="444" y="668"/>
      <point x="444" y="569" type="curve" smooth="yes"/>
      <point x="444" y="354"/>
      <point x="318" y="151"/>
      <point x="250" y="151" type="curve" smooth="yes"/>
      <point x="217" y="151"/>
      <point x="200" y="199"/>
      <point x="200" y="249" type="curve" smooth="yes"/>
      <point x="200" y="374"/>
      <point x="272" y="563"/>
      <point x="272" y="635" type="curve" smooth="yes"/>
      <point x="272" y="694"/>
      <point x="198" y="747"/>
    </contour>
  </outline>
</glyph>
<glyph name="X" format="1">
  <advance width="585"/>
  <unicode hex="0058"/>
  <outline>
    <contour>
      <point x="100" y="747" type="curve" smooth="yes"/>
      <point x="82" y="747"/>
      <point x="82" y="719"/>
      <point x="82" y="702" type="curve" smooth="yes"/>
      <point x="82" y="580"/>
      <point x="373" y="12"/>
      <point x="468" y="12" type="curve" smooth="yes"/>
      <point x="493" y="12"/>
      <point x="519" y="30"/>
      <point x="519" y="66" type="curve" smooth="yes"/>
      <point x="519" y="125"/>
      <point x="235" y="506"/>
      <point x="235" y="689" type="curve" smooth="yes"/>
      <point x="235" y="722"/>
      <point x="149" y="747"/>
    </contour>
    <contour>
      <point x="618" y="640" type="curve" smooth="yes"/>
      <point x="618" y="675"/>
      <point x="558" y="736"/>
      <point x="534" y="736" type="curve" smooth="yes"/>
      <point x="485" y="736"/>
      <point x="437" y="702"/>
      <point x="292" y="477" type="curve" smooth="yes"/>
      <point x="183" y="307"/>
      <point x="61" y="157"/>
      <point x="22" y="113" type="curve" smooth="yes"/>
      <point x="7" y="96"/>
      <point x="-1" y="90"/>
      <point x="-1" y="77" type="curve" smooth="yes"/>
      <point x="-1" y="50"/>
      <point x="51" y="13"/>
      <point x="90" y="13" type="curve" smooth="yes"/>
      <point x="158" y="13"/>
      <point x="293" y="245"/>
      <point x="360" y="334" type="curve" smooth="yes"/>
      <point x="461" y="468"/>
      <point x="508" y="522"/>
      <point x="551" y="576" type="curve" smooth="yes"/>
      <point x="581" y="613"/>
      <point x="618" y="614"/>
    </contour>
  </outline>
</glyph>
<glyph name="Y" format="1">
  <advance width="561"/>
  <unicode hex="0059"/>
  <outline>
    <contour>
      <point x="336" y="743" type="move" name="top"/>
    </contour>
    <contour>
      <point x="217" y="541" type="curve" smooth="yes"/>
      <point x="185" y="627"/>
      <point x="193" y="747"/>
      <point x="143" y="747" type="curve" smooth="yes"/>
      <point x="83" y="747"/>
      <point x="74" y="703"/>
      <point x="74" y="631" type="curve" smooth="yes"/>
      <point x="74" y="507"/>
      <point x="132" y="335"/>
      <point x="255" y="287" type="curve"/>
      <point x="216" y="212"/>
      <point x="162" y="116"/>
      <point x="162" y="77" type="curve" smooth="yes"/>
      <point x="162" y="35"/>
      <point x="177" y="13"/>
      <point x="202" y="13" type="curve" smooth="yes"/>
      <point x="243" y="13"/>
      <point x="287" y="74"/>
      <point x="300" y="101" type="curve" smooth="yes"/>
      <point x="406" y="318"/>
      <point x="607" y="573"/>
      <point x="607" y="642" type="curve" smooth="yes"/>
      <point x="607" y="697"/>
      <point x="575" y="747"/>
      <point x="528" y="747" type="curve" smooth="yes"/>
      <point x="473" y="747"/>
      <point x="347" y="404"/>
      <point x="302" y="404" type="curve" smooth="yes"/>
      <point x="282" y="404"/>
      <point x="244" y="468"/>
    </contour>
  </outline>
</glyph>
<glyph name="bracketleft" format="1">
  <advance width="463"/>
  <unicode hex="005B"/>
  <outline>
    <contour>
      <point x="423" y="819" type="curve" smooth="yes"/>
      <point x="264" y="819"/>
      <point x="253" y="811"/>
      <point x="253" y="757" type="curve" smooth="yes"/>
      <point x="253" y="717"/>
      <point x="282" y="674"/>
      <point x="304" y="674" type="curve" smooth="yes"/>
      <point x="331" y="674"/>
      <point x="381" y="695"/>
      <point x="420" y="705" type="curve" smooth="yes"/>
      <point x="493" y="723"/>
      <point x="598" y="715"/>
      <point x="598" y="771" type="curve" smooth="yes"/>
      <point x="598" y="813"/>
      <point x="501" y="819"/>
    </contour>
    <contour>
      <point x="292" y="797" type="curve" smooth="yes"/>
      <point x="275" y="797"/>
      <point x="254" y="779"/>
      <point x="254" y="767" type="curve" smooth="yes"/>
      <point x="254" y="603"/>
      <point x="65" y="112"/>
      <point x="65" y="25" type="curve" smooth="yes"/>
      <point x="65" y="-28"/>
      <point x="129" y="-82"/>
      <point x="195" y="-82" type="curve" smooth="yes"/>
      <point x="274" y="-82"/>
      <point x="423" y="-6"/>
      <point x="423" y="36" type="curve" smooth="yes"/>
      <point x="423" y="53"/>
      <point x="419" y="65"/>
      <point x="398" y="65" type="curve" smooth="yes"/>
      <point x="373" y="65"/>
      <point x="283" y="49"/>
      <point x="230" y="49" type="curve" smooth="yes"/>
      <point x="220" y="49"/>
      <point x="218" y="49"/>
      <point x="218" y="55" type="curve" smooth="yes"/>
      <point x="218" y="84"/>
      <point x="249" y="177"/>
      <point x="276" y="256" type="curve" smooth="yes"/>
      <point x="329" y="411"/>
      <point x="391" y="597"/>
      <point x="391" y="705" type="curve" smooth="yes"/>
      <point x="391" y="751"/>
      <point x="320" y="797"/>
    </contour>
  </outline>
</glyph>
<glyph name="underscore" format="1">
  <advance width="619"/>
  <unicode hex="005F"/>
  <outline>
    <contour>
      <point x="551" y="62" type="curve" smooth="yes"/>
      <point x="499" y="79"/>
      <point x="395" y="80"/>
      <point x="311" y="80" type="curve" smooth="yes"/>
      <point x="160" y="80"/>
      <point x="24" y="71"/>
      <point x="24" y="38" type="curve" smooth="yes"/>
      <point x="24" y="1"/>
      <point x="58" y="-46"/>
      <point x="83" y="-46" type="curve" smooth="yes"/>
      <point x="137" y="-46"/>
      <point x="173" y="-37"/>
      <point x="239" y="-33" type="curve" smooth="yes"/>
      <point x="433" y="-20"/>
      <point x="590" y="-16"/>
      <point x="590" y="29" type="curve" smooth="yes"/>
      <point x="590" y="44"/>
      <point x="575" y="55"/>
    </contour>
  </outline>
</glyph>
<glyph name="a" format="1">
  <advance width="510"/>
  <unicode hex="0061"/>
  <outline>
    <contour>
      <point x="365" y="507" type="move" name="top"/>
    </contour>
    <contour>
      <point x="335" y="7" type="move" name="ogonek"/>
    </contour>
    <contour>
      <point x="328" y="528" type="curve" smooth="yes"/>
      <point x="171" y="528"/>
      <point x="20" y="248"/>
      <point x="20" y="149" type="curve" smooth="yes"/>
      <point x="20" y="92"/>
      <point x="107" y="12"/>
      <point x="163" y="12" type="curve" smooth="yes"/>
      <point x="253" y="12"/>
      <point x="383" y="167"/>
      <point x="439" y="260" type="curve"/>
      <point x="354" y="312" type="line"/>
      <point x="325" y="267"/>
      <point x="314" y="212"/>
      <point x="314" y="162" type="curve" smooth="yes"/>
      <point x="314" y="83"/>
      <point x="359" y="12"/>
      <point x="390" y="12" type="curve" smooth="yes"/>
      <point x="420" y="12"/>
      <point x="426" y="72"/>
      <point x="437" y="134" type="curve" smooth="yes"/>
      <point x="451" y="211"/>
      <point x="468" y="239"/>
      <point x="468" y="269" type="curve" smooth="yes"/>
      <point x="468" y="291"/>
      <point x="393" y="345"/>
      <point x="377" y="345" type="curve" smooth="yes"/>
      <point x="359" y="345"/>
      <point x="350" y="342"/>
      <point x="348" y="330" type="curve" smooth="yes"/>
      <point x="324" y="205"/>
      <point x="198" y="138"/>
      <point x="159" y="138" type="curve" smooth="yes"/>
      <point x="146" y="138"/>
      <point x="144" y="140"/>
      <point x="144" y="151" type="curve" smooth="yes"/>
      <point x="144" y="203"/>
      <point x="258" y="401"/>
      <point x="346" y="401" type="curve" smooth="yes"/>
      <point x="362" y="401"/>
      <point x="366" y="365"/>
      <point x="366" y="301" type="curve" smooth="yes"/>
      <point x="366" y="262"/>
      <point x="376" y="237"/>
      <point x="397" y="237" type="curve" smooth="yes"/>
      <point x="421" y="237"/>
      <point x="480" y="333"/>
      <point x="480" y="385" type="curve" smooth="yes"/>
      <point x="480" y="448"/>
      <point x="381" y="528"/>
    </contour>
  </outline>
</glyph>
<glyph name="c" format="1">
  <advance width="489"/>
  <unicode hex="0063"/>
  <outline>
    <contour>
      <point x="279" y="507" type="move" name="top"/>
    </contour>
    <contour>
      <point x="164" y="7" type="move" name="cedilla"/>
    </contour>
    <contour>
      <point x="325" y="527" type="curve" smooth="yes"/>
      <point x="180" y="527"/>
      <point x="25" y="310"/>
      <point x="25" y="169" type="curve" smooth="yes"/>
      <point x="25" y="103"/>
      <point x="136" y="12"/>
      <point x="199" y="12" type="curve" smooth="yes"/>
      <point x="302" y="12"/>
      <point x="430" y="89"/>
      <point x="430" y="147" type="curve" smooth="yes"/>
      <point x="430" y="164"/>
      <point x="418" y="171"/>
      <point x="402" y="171" type="curve" smooth="yes"/>
      <point x="362" y="171"/>
      <point x="357" y="138"/>
      <point x="220" y="138" type="curve" smooth="yes"/>
      <point x="181" y="138"/>
      <point x="168" y="149"/>
      <point x="168" y="179" type="curve" smooth="yes"/>
      <point x="168" y="256"/>
      <point x="286" y="396"/>
      <point x="337" y="396" type="curve" smooth="yes"/>
      <point x="372" y="396"/>
      <point x="384" y="374"/>
      <point x="410" y="374" type="curve" smooth="yes"/>
      <point x="424" y="374"/>
      <point x="434" y="384"/>
      <point x="434" y="400" type="curve" smooth="yes"/>
      <point x="434" y="445"/>
      <point x="374" y="527"/>
    </contour>
  </outline>
</glyph>
<glyph name="d" format="1">
  <advance width="539"/>
  <unicode hex="0064"/>
  <outline>
    <contour>
      <point x="423" y="778" type="curve" smooth="yes"/>
      <point x="427" y="629"/>
      <point x="287" y="151"/>
      <point x="287" y="86" type="curve" smooth="yes"/>
      <point x="287" y="53"/>
      <point x="334" y="12"/>
      <point x="360" y="12" type="curve" smooth="yes"/>
      <point x="391" y="12"/>
      <point x="447" y="228"/>
      <point x="477" y="357" type="curve" smooth="yes"/>
      <point x="499" y="450"/>
      <point x="554" y="660"/>
      <point x="554" y="683" type="curve" smooth="yes"/>
      <point x="554" y="737"/>
      <point x="480" y="808"/>
      <point x="452" y="808" type="curve" smooth="yes"/>
      <point x="430" y="808"/>
      <point x="423" y="796"/>
    </contour>
    <contour>
      <point x="142" y="12" type="curve" smooth="yes"/>
      <point x="219" y="12"/>
      <point x="436" y="215"/>
      <point x="436" y="273" type="curve" smooth="yes"/>
      <point x="436" y="313"/>
      <point x="386" y="346"/>
      <point x="373" y="346" type="curve" smooth="yes"/>
      <point x="354" y="346"/>
      <point x="346" y="342"/>
      <point x="343" y="330" type="curve" smooth="yes"/>
      <point x="313" y="201"/>
      <point x="180" y="139"/>
      <point x="157" y="139" type="curve" smooth="yes"/>
      <point x="144" y="139"/>
      <point x="143" y="141"/>
      <point x="143" y="152" type="curve" smooth="yes"/>
      <point x="143" y="197"/>
      <point x="191" y="401"/>
      <point x="278" y="401" type="curve" smooth="yes"/>
      <point x="293" y="401"/>
      <point x="329" y="372"/>
      <point x="329" y="316" type="curve" smooth="yes"/>
      <point x="329" y="272"/>
      <point x="339" y="246"/>
      <point x="360" y="246" type="curve" smooth="yes"/>
      <point x="384" y="246"/>
      <point x="400" y="303"/>
      <point x="400" y="358" type="curve" smooth="yes"/>
      <point x="400" y="444"/>
      <point x="344" y="528"/>
      <point x="266" y="528" type="curve" smooth="yes"/>
      <point x="114" y="528"/>
      <point x="20" y="250"/>
      <point x="20" y="149" type="curve" smooth="yes"/>
      <point x="20" y="91"/>
      <point x="86" y="12"/>
    </contour>
  </outline>
</glyph>
<glyph name="e" format="1">
  <advance width="488"/>
  <unicode hex="0065"/>
  <outline>
    <contour>
      <point x="273" y="507" type="move" name="top"/>
    </contour>
    <contour>
      <point x="289" y="43" type="move" name="ogonek"/>
    </contour>
    <contour>
      <point x="25" y="194" type="curve" smooth="yes"/>
      <point x="25" y="99"/>
      <point x="89" y="12"/>
      <point x="221" y="12" type="curve" smooth="yes"/>
      <point x="322" y="12"/>
      <point x="425" y="69"/>
      <point x="425" y="121" type="curve" smooth="yes"/>
      <point x="425" y="137"/>
      <point x="415" y="148"/>
      <point x="384" y="148" type="curve" smooth="yes"/>
      <point x="356" y="148"/>
      <point x="326" y="120"/>
      <point x="200" y="120" type="curve" smooth="yes"/>
      <point x="149" y="120"/>
      <point x="146" y="137"/>
      <point x="146" y="173" type="curve" smooth="yes"/>
      <point x="146" y="256"/>
      <point x="238" y="405"/>
      <point x="302" y="405" type="curve" smooth="yes"/>
      <point x="320" y="405"/>
      <point x="357" y="370"/>
      <point x="357" y="357" type="curve" smooth="yes"/>
      <point x="357" y="318"/>
      <point x="286" y="309"/>
      <point x="220" y="309" type="curve" smooth="yes"/>
      <point x="192" y="309"/>
      <point x="154" y="314"/>
      <point x="136" y="318" type="curve"/>
      <point x="125" y="232" type="line"/>
      <point x="153" y="222"/>
      <point x="200" y="214"/>
      <point x="262" y="214" type="curve" smooth="yes"/>
      <point x="363" y="214"/>
      <point x="473" y="274"/>
      <point x="473" y="341" type="curve" smooth="yes"/>
      <point x="473" y="417"/>
      <point x="393" y="528"/>
      <point x="296" y="528" type="curve" smooth="yes"/>
      <point x="176" y="528"/>
      <point x="25" y="336"/>
    </contour>
  </outline>
</glyph>
<glyph name="f" format="1">
  <advance width="435"/>
  <unicode hex="0066"/>
  <outline>
    <contour>
      <point x="385" y="791" type="curve" smooth="yes"/>
      <point x="246" y="791"/>
      <point x="188" y="665"/>
      <point x="150" y="398" type="curve" smooth="yes"/>
      <point x="120" y="184"/>
      <point x="79" y="131"/>
      <point x="79" y="97" type="curve" smooth="yes"/>
      <point x="79" y="70"/>
      <point x="123" y="13"/>
      <point x="149" y="13" type="curve" smooth="yes"/>
      <point x="198" y="13"/>
      <point x="227" y="181"/>
      <point x="277" y="386" type="curve" smooth="yes"/>
      <point x="303" y="494"/>
      <point x="333" y="669"/>
      <point x="378" y="669" type="curve" smooth="yes"/>
      <point x="416" y="669"/>
      <point x="404" y="548"/>
      <point x="462" y="548" type="curve" smooth="yes"/>
      <point x="492" y="548"/>
      <point x="510" y="581"/>
      <point x="510" y="636" type="curve" smooth="yes"/>
      <point x="510" y="723"/>
      <point x="445" y="791"/>
    </contour>
    <contour>
      <point x="10" y="364" type="curve" smooth="yes"/>
      <point x="10" y="321"/>
      <point x="48" y="290"/>
      <point x="86" y="290" type="curve" smooth="yes"/>
      <point x="119" y="290"/>
      <point x="168" y="312"/>
      <point x="262" y="327" type="curve" smooth="yes"/>
      <point x="369" y="343"/>
      <point x="481" y="361"/>
      <point x="481" y="408" type="curve" smooth="yes"/>
      <point x="481" y="428"/>
      <point x="458" y="447"/>
      <point x="406" y="447" type="curve" smooth="yes"/>
      <point x="275" y="447"/>
      <point x="143" y="430"/>
      <point x="71" y="406" type="curve" smooth="yes"/>
      <point x="33" y="394"/>
      <point x="10" y="379"/>
    </contour>
  </outline>
</glyph>
<glyph name="g" format="1">
  <advance width="481"/>
  <unicode hex="0067"/>
  <outline>
    <contour>
      <point x="337" y="507" type="move" name="top"/>
    </contour>
    <contour>
      <point x="300" y="528" type="curve" smooth="yes"/>
      <point x="143" y="528"/>
      <point x="20" y="248"/>
      <point x="20" y="149" type="curve" smooth="yes"/>
      <point x="20" y="92"/>
      <point x="85" y="12"/>
      <point x="141" y="12" type="curve" smooth="yes"/>
      <point x="232" y="12"/>
      <point x="435" y="171"/>
      <point x="435" y="278" type="curve" smooth="yes"/>
      <point x="435" y="312"/>
      <point x="387" y="345"/>
      <point x="364" y="345" type="curve" smooth="yes"/>
      <point x="357" y="345"/>
      <point x="343" y="342"/>
      <point x="343" y="330" type="curve" smooth="yes"/>
      <point x="343" y="250"/>
      <point x="194" y="138"/>
      <point x="154" y="138" type="curve" smooth="yes"/>
      <point x="144" y="138"/>
      <point x="143" y="142"/>
      <point x="143" y="151" type="curve" smooth="yes"/>
      <point x="143" y="203"/>
      <point x="236" y="401"/>
      <point x="307" y="401" type="curve" smooth="yes"/>
      <point x="335" y="401"/>
      <point x="335" y="355"/>
      <point x="335" y="315" type="curve" smooth="yes"/>
      <point x="335" y="272"/>
      <point x="339" y="241"/>
      <point x="366" y="241" type="curve" smooth="yes"/>
      <point x="389" y="241"/>
      <point x="422" y="273"/>
      <point x="422" y="338" type="curve" smooth="yes"/>
      <point x="422" y="412"/>
      <point x="406" y="528"/>
    </contour>
    <contour>
      <point x="331" y="277" type="line"/>
      <point x="242" y="128"/>
      <point x="239" y="-158"/>
      <point x="150" y="-158" type="curve" smooth="yes"/>
      <point x="85" y="-158"/>
      <point x="65" y="-57"/>
      <point x="28" y="-57" type="curve" smooth="yes"/>
      <point x="5" y="-57"/>
      <point x="-23" y="-99"/>
      <point x="-23" y="-136" type="curve" smooth="yes"/>
      <point x="-23" y="-176"/>
      <point x="52" y="-259"/>
      <point x="150" y="-259" type="curve" smooth="yes"/>
      <point x="359" y="-259"/>
      <point x="352" y="93"/>
      <point x="424" y="232" type="curve"/>
    </contour>
  </outline>
</glyph>
<glyph name="i" format="1">
  <advance width="260"/>
  <unicode hex="0069"/>
  <outline>
    <contour>
      <point x="49" y="7" type="move" name="ogonek"/>
    </contour>
    <contour>
      <point x="66" y="286" type="curve" smooth="yes"/>
      <point x="40" y="178"/>
      <point x="21" y="106"/>
      <point x="21" y="69" type="curve" smooth="yes"/>
      <point x="21" y="39"/>
      <point x="46" y="13"/>
      <point x="76" y="13" type="curve" smooth="yes"/>
      <point x="96" y="13"/>
      <point x="115" y="20"/>
      <point x="125" y="52" type="curve" smooth="yes"/>
      <point x="165" y="174"/>
      <point x="228" y="383"/>
      <point x="228" y="411" type="curve" smooth="yes"/>
      <point x="228" y="455"/>
      <point x="188" y="528"/>
      <point x="138" y="528" type="curve" smooth="yes"/>
      <point x="102" y="528"/>
      <point x="89" y="382"/>
    </contour>
    <contour>
      <point x="193" y="734" type="curve" smooth="yes"/>
      <point x="161" y="734"/>
      <point x="123" y="686"/>
      <point x="123" y="654" type="curve" smooth="yes"/>
      <point x="123" y="618"/>
      <point x="189" y="551"/>
      <point x="228" y="551" type="curve" smooth="yes"/>
      <point x="250" y="551"/>
      <point x="277" y="571"/>
      <point x="277" y="594" type="curve" smooth="yes"/>
      <point x="277" y="634"/>
      <point x="224" y="734"/>
    </contour>
  </outline>
</glyph>
<glyph name="j" format="1">
  <advance width="260"/>
  <unicode hex="006A"/>
  <outline>
    <contour>
      <point x="305" y="594" type="curve" smooth="yes"/>
      <point x="305" y="634"/>
      <point x="253" y="734"/>
      <point x="221" y="734" type="curve" smooth="yes"/>
      <point x="189" y="734"/>
      <point x="151" y="686"/>
      <point x="151" y="654" type="curve" smooth="yes"/>
      <point x="151" y="618"/>
      <point x="217" y="551"/>
      <point x="257" y="551" type="curve" smooth="yes"/>
      <point x="277" y="551"/>
      <point x="305" y="571"/>
    </contour>
    <contour>
      <point x="108" y="455" type="curve" smooth="yes"/>
      <point x="54" y="290"/>
      <point x="-20" y="-149"/>
      <point x="-91" y="-149" type="curve" smooth="yes"/>
      <point x="-112" y="-149"/>
      <point x="-125" y="-139"/>
      <point x="-147" y="-112" type="curve" smooth="yes"/>
      <point x="-167" y="-88"/>
      <point x="-188" y="-57"/>
      <point x="-209" y="-57" type="curve" smooth="yes"/>
      <point x="-232" y="-57"/>
      <point x="-260" y="-107"/>
      <point x="-260" y="-137" type="curve" smooth="yes"/>
      <point x="-260" y="-178"/>
      <point x="-179" y="-256"/>
      <point x="-106" y="-256" type="curve" smooth="yes"/>
      <point x="-14" y="-256"/>
      <point x="69" y="-205"/>
      <point x="108" y="-71" type="curve" smooth="yes"/>
      <point x="152" y="80"/>
      <point x="242" y="378"/>
      <point x="242" y="407" type="curve" smooth="yes"/>
      <point x="242" y="466"/>
      <point x="192" y="528"/>
      <point x="153" y="528" type="curve" smooth="yes"/>
      <point x="137" y="528"/>
      <point x="126" y="515"/>
    </contour>
  </outline>
</glyph>
<glyph name="k" format="1">
  <advance width="493"/>
  <unicode hex="006B"/>
  <outline>
    <contour>
      <point x="160" y="777" type="curve" smooth="yes"/>
      <point x="160" y="508"/>
      <point x="26" y="139"/>
      <point x="26" y="108" type="curve" smooth="yes"/>
      <point x="26" y="80"/>
      <point x="86" y="12"/>
      <point x="118" y="12" type="curve" smooth="yes"/>
      <point x="150" y="12"/>
      <point x="232" y="127"/>
      <point x="299" y="236" type="curve"/>
      <point x="202" y="180" type="line"/>
      <point x="213" y="167"/>
      <point x="240" y="141"/>
      <point x="262" y="118" type="curve" smooth="yes"/>
      <point x="312" y="67"/>
      <point x="373" y="12"/>
      <point x="429" y="12" type="curve" smooth="yes"/>
      <point x="468" y="12"/>
      <point x="482" y="31"/>
      <point x="482" y="51" type="curve" smooth="yes"/>
      <point x="482" y="90"/>
      <point x="352" y="122"/>
      <point x="352" y="236" type="curve" smooth="yes"/>
      <point x="352" y="304"/>
      <point x="522" y="410"/>
      <point x="522" y="436" type="curve" smooth="yes"/>
      <point x="522" y="469"/>
      <point x="471" y="528"/>
      <point x="437" y="528" type="curve" smooth="yes"/>
      <point x="397" y="528"/>
      <point x="279" y="369"/>
      <point x="173" y="234" type="curve"/>
      <point x="226" y="354"/>
      <point x="291" y="612"/>
      <point x="291" y="683" type="curve" smooth="yes"/>
      <point x="291" y="737"/>
      <point x="217" y="808"/>
      <point x="188" y="808" type="curve" smooth="yes"/>
      <point x="166" y="808"/>
      <point x="160" y="796"/>
    </contour>
  </outline>
</glyph>
<glyph name="n" format="1">
  <advance width="554"/>
  <unicode hex="006E"/>
  <outline>
    <contour>
      <point x="288" y="507" type="move" name="top"/>
    </contour>
    <contour>
      <point x="108" y="536" type="curve" smooth="yes"/>
      <point x="87" y="536"/>
      <point x="86" y="485"/>
      <point x="81" y="416" type="curve" smooth="yes"/>
      <point x="76" y="353"/>
      <point x="74" y="278"/>
      <point x="51" y="204" type="curve" smooth="yes"/>
      <point x="35" y="156"/>
      <point x="16" y="119"/>
      <point x="16" y="102" type="curve" smooth="yes"/>
      <point x="16" y="82"/>
      <point x="71" y="12"/>
      <point x="101" y="12" type="curve" smooth="yes"/>
      <point x="147" y="12"/>
      <point x="199" y="100"/>
      <point x="230" y="155" type="curve" smooth="yes"/>
      <point x="280" y="244"/>
      <point x="346" y="372"/>
      <point x="385" y="372" type="curve" smooth="yes"/>
      <point x="395" y="372"/>
      <point x="395" y="353"/>
      <point x="395" y="329" type="curve" smooth="yes"/>
      <point x="395" y="300"/>
      <point x="382" y="247"/>
      <point x="370" y="204" type="curve" smooth="yes"/>
      <point x="354" y="151"/>
      <point x="337" y="94"/>
      <point x="337" y="59" type="curve" smooth="yes"/>
      <point x="337" y="24"/>
      <point x="350" y="12"/>
      <point x="371" y="12" type="curve" smooth="yes"/>
      <point x="418" y="12"/>
      <point x="464" y="95"/>
      <point x="491" y="186" type="curve" smooth="yes"/>
      <point x="511" y="253"/>
      <point x="524" y="329"/>
      <point x="524" y="382" type="curve" smooth="yes"/>
      <point x="524" y="450"/>
      <point x="465" y="528"/>
      <point x="393" y="528" type="curve" smooth="yes"/>
      <point x="315" y="528"/>
      <point x="173" y="244"/>
      <point x="120" y="158" type="curve"/>
      <point x="137" y="144" type="line"/>
      <point x="191" y="246"/>
      <point x="216" y="415"/>
      <point x="216" y="447" type="curve" smooth="yes"/>
      <point x="216" y="479"/>
      <point x="162" y="536"/>
    </contour>
  </outline>
</glyph>
<glyph name="p" format="1">
  <advance width="538"/>
  <unicode hex="0070"/>
  <outline>
    <contour>
      <point x="227" y="425" type="curve" smooth="yes"/>
      <point x="227" y="504"/>
      <point x="143" y="544"/>
      <point x="118" y="544" type="curve" smooth="yes"/>
      <point x="96" y="544"/>
      <point x="89" y="532"/>
      <point x="89" y="514" type="curve" smooth="yes"/>
      <point x="89" y="272"/>
      <point x="-26" y="-88"/>
      <point x="-26" y="-155" type="curve" smooth="yes"/>
      <point x="-26" y="-184"/>
      <point x="13" y="-248"/>
      <point x="42" y="-248" type="curve" smooth="yes"/>
      <point x="71" y="-248"/>
      <point x="112" y="-62"/>
      <point x="144" y="66" type="curve" smooth="yes"/>
      <point x="166" y="156"/>
      <point x="227" y="355"/>
    </contour>
    <contour>
      <point x="510" y="329" type="curve" smooth="yes"/>
      <point x="510" y="420"/>
      <point x="435" y="527"/>
      <point x="388" y="527" type="curve" smooth="yes"/>
      <point x="293" y="527"/>
      <point x="168" y="420"/>
      <point x="126" y="298" type="curve"/>
      <point x="176" y="188" type="line"/>
      <point x="238" y="380"/>
      <point x="332" y="394"/>
      <point x="350" y="394" type="curve" smooth="yes"/>
      <point x="375" y="394"/>
      <point x="379" y="363"/>
      <point x="379" y="344" type="curve" smooth="yes"/>
      <point x="379" y="268"/>
      <point x="247" y="130"/>
      <point x="130" y="130" type="curve" smooth="yes"/>
      <point x="107" y="130"/>
      <point x="88" y="134"/>
      <point x="72" y="134" type="curve" smooth="yes"/>
      <point x="53" y="134"/>
      <point x="40" y="126"/>
      <point x="40" y="101" type="curve" smooth="yes"/>
      <point x="40" y="53"/>
      <point x="79" y="14"/>
      <point x="143" y="14" type="curve" smooth="yes"/>
      <point x="313" y="14"/>
      <point x="510" y="220"/>
    </contour>
  </outline>
</glyph>
<glyph name="q" format="1">
  <advance width="519"/>
  <unicode hex="0071"/>
  <outline>
    <contour>
      <point x="476" y="393" type="curve" smooth="yes"/>
      <point x="476" y="444"/>
      <point x="407" y="528"/>
      <point x="340" y="528" type="curve" smooth="yes"/>
      <point x="179" y="528"/>
      <point x="28" y="256"/>
      <point x="28" y="157" type="curve" smooth="yes"/>
      <point x="28" y="99"/>
      <point x="106" y="12"/>
      <point x="165" y="12" type="curve" smooth="yes"/>
      <point x="208" y="12"/>
      <point x="295" y="53"/>
      <point x="348" y="146" type="curve"/>
      <point x="288" y="122" type="line"/>
      <point x="240" y="-3"/>
      <point x="181" y="-148"/>
      <point x="181" y="-171" type="curve" smooth="yes"/>
      <point x="181" y="-206"/>
      <point x="213" y="-256"/>
      <point x="240" y="-256" type="curve" smooth="yes"/>
      <point x="270" y="-256"/>
      <point x="322" y="-202"/>
      <point x="397" y="-154" type="curve" smooth="yes"/>
      <point x="446" y="-123"/>
      <point x="472" y="-106"/>
      <point x="472" y="-87" type="curve" smooth="yes"/>
      <point x="472" y="-69"/>
      <point x="452" y="-42"/>
      <point x="427" y="-42" type="curve" smooth="yes"/>
      <point x="398" y="-42"/>
      <point x="329" y="-67"/>
      <point x="301" y="-91" type="curve"/>
      <point x="324" y="-131" type="line"/>
      <point x="390" y="57"/>
      <point x="479" y="246"/>
      <point x="479" y="282" type="curve" smooth="yes"/>
      <point x="479" y="307"/>
      <point x="398" y="354"/>
      <point x="382" y="354" type="curve" smooth="yes"/>
      <point x="364" y="354"/>
      <point x="355" y="349"/>
      <point x="352" y="337" type="curve" smooth="yes"/>
      <point x="324" y="213"/>
      <point x="200" y="139"/>
      <point x="161" y="138" type="curve" smooth="yes"/>
      <point x="146" y="138"/>
      <point x="143" y="139"/>
      <point x="143" y="151" type="curve" smooth="yes"/>
      <point x="143" y="203"/>
      <point x="274" y="406"/>
      <point x="369" y="406" type="curve" smooth="yes"/>
      <point x="398" y="406"/>
      <point x="427" y="365"/>
      <point x="450" y="365" type="curve" smooth="yes"/>
      <point x="468" y="365"/>
      <point x="476" y="378"/>
    </contour>
  </outline>
</glyph>
<glyph name="r" format="1">
  <advance width="362"/>
  <unicode hex="0072"/>
  <outline>
    <contour>
      <point x="207" y="507" type="move" name="top"/>
    </contour>
    <contour>
      <point x="109" y="528" type="curve" smooth="yes"/>
      <point x="81" y="528"/>
      <point x="74" y="504"/>
      <point x="74" y="472" type="curve" smooth="yes"/>
      <point x="74" y="444"/>
      <point x="80" y="406"/>
      <point x="80" y="359" type="curve" smooth="yes"/>
      <point x="80" y="331"/>
      <point x="78" y="299"/>
      <point x="71" y="263" type="curve" smooth="yes"/>
      <point x="59" y="198"/>
      <point x="26" y="144"/>
      <point x="26" y="107" type="curve" smooth="yes"/>
      <point x="26" y="69"/>
      <point x="43" y="13"/>
      <point x="86" y="13" type="curve" smooth="yes"/>
      <point x="134" y="13"/>
      <point x="165" y="100"/>
      <point x="198" y="241" type="curve" smooth="yes"/>
      <point x="222" y="346"/>
      <point x="277" y="389"/>
      <point x="323" y="418" type="curve" smooth="yes"/>
      <point x="363" y="444"/>
      <point x="397" y="460"/>
      <point x="397" y="498" type="curve" smooth="yes"/>
      <point x="397" y="524"/>
      <point x="367" y="533"/>
      <point x="324" y="533" type="curve" smooth="yes"/>
      <point x="272" y="533"/>
      <point x="192" y="492"/>
      <point x="144" y="431" type="curve"/>
      <point x="167" y="285" type="line"/>
      <point x="180" y="323"/>
      <point x="187" y="364"/>
      <point x="187" y="398" type="curve" smooth="yes"/>
      <point x="187" y="496"/>
      <point x="143" y="528"/>
    </contour>
  </outline>
</glyph>
<glyph name="s" format="1">
  <advance width="467"/>
  <unicode hex="0073"/>
  <outline>
    <contour>
      <point x="261" y="507" type="move" name="top"/>
    </contour>
    <contour>
      <point x="170" y="7" type="move" name="cedilla"/>
    </contour>
    <contour>
      <point x="344" y="527" type="curve" smooth="yes"/>
      <point x="278" y="527"/>
      <point x="92" y="424"/>
      <point x="92" y="346" type="curve" smooth="yes"/>
      <point x="92" y="260"/>
      <point x="273" y="204"/>
      <point x="273" y="146" type="curve" smooth="yes"/>
      <point x="273" y="130"/>
      <point x="228" y="125"/>
      <point x="198" y="125" type="curve" smooth="yes"/>
      <point x="94" y="125"/>
      <point x="78" y="164"/>
      <point x="43" y="164" type="curve" smooth="yes"/>
      <point x="23" y="164"/>
      <point x="11" y="150"/>
      <point x="11" y="122" type="curve" smooth="yes"/>
      <point x="11" y="80"/>
      <point x="90" y="12"/>
      <point x="212" y="12" type="curve" smooth="yes"/>
      <point x="322" y="12"/>
      <point x="411" y="85"/>
      <point x="411" y="139" type="curve" smooth="yes"/>
      <point x="411" y="256"/>
      <point x="239" y="304"/>
      <point x="239" y="338" type="curve" smooth="yes"/>
      <point x="239" y="378"/>
      <point x="337" y="396"/>
      <point x="357" y="396" type="curve" smooth="yes"/>
      <point x="394" y="396"/>
      <point x="408" y="377"/>
      <point x="435" y="377" type="curve" smooth="yes"/>
      <point x="448" y="377"/>
      <point x="456" y="386"/>
      <point x="456" y="401" type="curve" smooth="yes"/>
      <point x="456" y="446"/>
      <point x="397" y="527"/>
    </contour>
  </outline>
</glyph>
<glyph name="t" format="1">
  <advance width="451"/>
  <unicode hex="0074"/>
  <outline>
    <contour>
      <point x="124" y="7" type="move" name="cedilla"/>
    </contour>
    <contour>
      <point x="219" y="691" type="curve" smooth="yes"/>
      <point x="196" y="691"/>
      <point x="189" y="679"/>
      <point x="189" y="661" type="curve" smooth="yes"/>
      <point x="189" y="452"/>
      <point x="66" y="197"/>
      <point x="66" y="118" type="curve" smooth="yes"/>
      <point x="66" y="67"/>
      <point x="147" y="12"/>
      <point x="186" y="12" type="curve" smooth="yes"/>
      <point x="289" y="12"/>
      <point x="393" y="99"/>
      <point x="393" y="145" type="curve" smooth="yes"/>
      <point x="393" y="163"/>
      <point x="389" y="175"/>
      <point x="368" y="175" type="curve" smooth="yes"/>
      <point x="342" y="175"/>
      <point x="251" y="130"/>
      <point x="212" y="130" type="curve" smooth="yes"/>
      <point x="203" y="130"/>
      <point x="200" y="130"/>
      <point x="200" y="136" type="curve" smooth="yes"/>
      <point x="200" y="148"/>
      <point x="221" y="207"/>
      <point x="239" y="265" type="curve" smooth="yes"/>
      <point x="272" y="372"/>
      <point x="326" y="531"/>
      <point x="326" y="596" type="curve" smooth="yes"/>
      <point x="326" y="643"/>
      <point x="248" y="691"/>
    </contour>
    <contour>
      <point x="15" y="446" type="curve" smooth="yes"/>
      <point x="15" y="413"/>
      <point x="51" y="366"/>
      <point x="82" y="366" type="curve" smooth="yes"/>
      <point x="107" y="366"/>
      <point x="179" y="389"/>
      <point x="261" y="405" type="curve" smooth="yes"/>
      <point x="371" y="426"/>
      <point x="461" y="445"/>
      <point x="461" y="480" type="curve" smooth="yes"/>
      <point x="461" y="501"/>
      <point x="439" y="514"/>
      <point x="386" y="514" type="curve" smooth="yes"/>
      <point x="209" y="514"/>
      <point x="15" y="484"/>
    </contour>
  </outline>
</glyph>
<glyph name="u" format="1">
  <advance width="486"/>
  <unicode hex="0075"/>
  <outline>
    <contour>
      <point x="290" y="507" type="move" name="top"/>
    </contour>
    <contour>
      <point x="286" y="7" type="move" name="ogonek"/>
    </contour>
    <contour>
      <point x="241" y="445" type="curve" smooth="yes"/>
      <point x="241" y="485"/>
      <point x="207" y="528"/>
      <point x="167" y="528" type="curve" smooth="yes"/>
      <point x="98" y="528"/>
      <point x="10" y="250"/>
      <point x="10" y="134" type="curve" smooth="yes"/>
      <point x="10" y="79"/>
      <point x="93" y="12"/>
      <point x="132" y="12" type="curve" smooth="yes"/>
      <point x="213" y="12"/>
      <point x="343" y="221"/>
      <point x="374" y="300" type="curve"/>
      <point x="348" y="311" type="line"/>
      <point x="317" y="255"/>
      <point x="284" y="137"/>
      <point x="284" y="70" type="curve" smooth="yes"/>
      <point x="284" y="29"/>
      <point x="307" y="12"/>
      <point x="331" y="12" type="curve" smooth="yes"/>
      <point x="353" y="12"/>
      <point x="368" y="23"/>
      <point x="378" y="54" type="curve" smooth="yes"/>
      <point x="439" y="250"/>
      <point x="495" y="393"/>
      <point x="495" y="416" type="curve" smooth="yes"/>
      <point x="495" y="455"/>
      <point x="441" y="528"/>
      <point x="406" y="528" type="curve" smooth="yes"/>
      <point x="390" y="528"/>
      <point x="382" y="521"/>
      <point x="376" y="503" type="curve" smooth="yes"/>
      <point x="311" y="303"/>
      <point x="172" y="139"/>
      <point x="145" y="139" type="curve" smooth="yes"/>
      <point x="142" y="139"/>
      <point x="140" y="141"/>
      <point x="140" y="145" type="curve" smooth="yes"/>
      <point x="140" y="239"/>
      <point x="241" y="413"/>
    </contour>
  </outline>
</glyph>
<glyph name="v" format="1">
  <advance width="422"/>
  <unicode hex="0076"/>
  <outline>
    <contour>
      <point x="246" y="95" type="line"/>
      <point x="178" y="208"/>
      <point x="212" y="378"/>
      <point x="183" y="429" type="curve" smooth="yes"/>
      <point x="155" y="491"/>
      <point x="102" y="528"/>
      <point x="58" y="528" type="curve" smooth="yes"/>
      <point x="41" y="528"/>
      <point x="30" y="516"/>
      <point x="30" y="487" type="curve" smooth="yes"/>
      <point x="30" y="434"/>
      <point x="88" y="154"/>
      <point x="122" y="73" type="curve" smooth="yes"/>
      <point x="134" y="44"/>
      <point x="184" y="13"/>
      <point x="202" y="13" type="curve" smooth="yes"/>
      <point x="242" y="13"/>
      <point x="317" y="142"/>
      <point x="388" y="299" type="curve" smooth="yes"/>
      <point x="414" y="356"/>
      <point x="450" y="439"/>
      <point x="450" y="471" type="curve" smooth="yes"/>
      <point x="450" y="498"/>
      <point x="410" y="528"/>
      <point x="375" y="528" type="curve" smooth="yes"/>
      <point x="320" y="528"/>
      <point x="260" y="261"/>
      <point x="178" y="147" type="curve"/>
    </contour>
  </outline>
</glyph>
<glyph name="x" format="1">
  <advance width="474"/>
  <unicode hex="0078"/>
  <outline>
    <contour>
      <point x="211" y="473" type="curve" smooth="yes"/>
      <point x="211" y="504"/>
      <point x="126" y="528"/>
      <point x="76" y="528" type="curve" smooth="yes"/>
      <point x="58" y="528"/>
      <point x="57" y="517"/>
      <point x="57" y="500" type="curve" smooth="yes"/>
      <point x="57" y="442"/>
      <point x="263" y="12"/>
      <point x="371" y="12" type="curve" smooth="yes"/>
      <point x="392" y="12"/>
      <point x="404" y="25"/>
      <point x="404" y="49" type="curve" smooth="yes"/>
      <point x="404" y="70"/>
      <point x="374" y="128"/>
      <point x="338" y="191" type="curve" smooth="yes"/>
      <point x="283" y="289"/>
      <point x="211" y="407"/>
    </contour>
    <contour>
      <point x="489" y="448" type="curve" smooth="yes"/>
      <point x="489" y="480"/>
      <point x="433" y="529"/>
      <point x="408" y="529" type="curve" smooth="yes"/>
      <point x="365" y="529"/>
      <point x="311" y="475"/>
      <point x="202" y="316" type="curve" smooth="yes"/>
      <point x="104" y="174"/>
      <point x="0" y="100"/>
      <point x="0" y="85" type="curve" smooth="yes"/>
      <point x="0" y="61"/>
      <point x="38" y="12"/>
      <point x="76" y="12" type="curve" smooth="yes"/>
      <point x="118" y="12"/>
      <point x="201" y="110"/>
      <point x="283" y="209" type="curve" smooth="yes"/>
      <point x="341" y="280"/>
      <point x="382" y="335"/>
      <point x="424" y="379" type="curve" smooth="yes"/>
      <point x="453" y="410"/>
      <point x="489" y="423"/>
    </contour>
  </outline>
</glyph>
<glyph name="braceleft" format="1">
  <advance width="462"/>
  <unicode hex="007B"/>
  <outline>
    <contour>
      <point x="276" y="649" type="curve" smooth="yes"/>
      <point x="276" y="745"/>
      <point x="329" y="760"/>
      <point x="364" y="760" type="curve" smooth="yes"/>
      <point x="401" y="760"/>
      <point x="415" y="743"/>
      <point x="415" y="720" type="curve" smooth="yes"/>
      <point x="415" y="671"/>
      <point x="415" y="645"/>
      <point x="437" y="645" type="curve" smooth="yes"/>
      <point x="462" y="645"/>
      <point x="504" y="709"/>
      <point x="504" y="732" type="curve" smooth="yes"/>
      <point x="503" y="804"/>
      <point x="432" y="880"/>
      <point x="347" y="880" type="curve" smooth="yes"/>
      <point x="231" y="880"/>
      <point x="145" y="811"/>
      <point x="145" y="692" type="curve" smooth="yes"/>
      <point x="145" y="564"/>
      <point x="198" y="523"/>
      <point x="198" y="469" type="curve" smooth="yes"/>
      <point x="198" y="440"/>
      <point x="182" y="426"/>
      <point x="156" y="426" type="curve" smooth="yes"/>
      <point x="134" y="426"/>
      <point x="90" y="465"/>
      <point x="68" y="465" type="curve" smooth="yes"/>
      <point x="57" y="465"/>
      <point x="53" y="443"/>
      <point x="53" y="434" type="curve" smooth="yes"/>
      <point x="53" y="378"/>
      <point x="120" y="318"/>
      <point x="184" y="318" type="curve" smooth="yes"/>
      <point x="271" y="318"/>
      <point x="320" y="381"/>
      <point x="320" y="441" type="curve" smooth="yes"/>
      <point x="320" y="499"/>
      <point x="277" y="534"/>
    </contour>
    <contour>
      <point x="259" y="10" type="curve" smooth="yes"/>
      <point x="196" y="10"/>
      <point x="159" y="24"/>
      <point x="159" y="72" type="curve" smooth="yes"/>
      <point x="159" y="175"/>
      <point x="209" y="228"/>
      <point x="209" y="309" type="curve" smooth="yes"/>
      <point x="209" y="412"/>
      <point x="112" y="444"/>
      <point x="74" y="463" type="curve"/>
      <point x="64" y="394" type="line"/>
      <point x="73" y="376"/>
      <point x="90" y="360"/>
      <point x="90" y="348" type="curve" smooth="yes"/>
      <point x="90" y="245"/>
      <point x="27" y="207"/>
      <point x="27" y="71" type="curve" smooth="yes"/>
      <point x="27" y="-24"/>
      <point x="116" y="-115"/>
      <point x="226" y="-115" type="curve" smooth="yes"/>
      <point x="285" y="-115"/>
      <point x="338" y="-74"/>
      <point x="338" y="-37" type="curve" smooth="yes"/>
      <point x="338" y="0"/>
      <point x="313" y="10"/>
    </contour>
  </outline>
</glyph>
<glyph name="bar" format="1">
  <advance width="456"/>
  <unicode hex="007C"/>
  <outline>
    <contour>
      <point x="187" y="-166" type="curve" smooth="yes"/>
      <point x="217" y="-166"/>
      <point x="310" y="355"/>
      <point x="338" y="487" type="curve" smooth="yes"/>
      <point x="371" y="645"/>
      <point x="389" y="717"/>
      <point x="389" y="750" type="curve" smooth="yes"/>
      <point x="389" y="804"/>
      <point x="309" y="875"/>
      <point x="281" y="875" type="curve" smooth="yes"/>
      <point x="258" y="875"/>
      <point x="251" y="863"/>
      <point x="251" y="845" type="curve" smooth="yes"/>
      <point x="251" y="751"/>
      <point x="95" y="-31"/>
      <point x="95" y="-71" type="curve" smooth="yes"/>
      <point x="95" y="-96"/>
      <point x="158" y="-166"/>
    </contour>
  </outline>
</glyph>
<glyph name="braceright" format="1">
  <advance width="626"/>
  <unicode hex="007D"/>
  <outline>
    <contour>
      <point x="541" y="723" type="curve" smooth="yes"/>
      <point x="541" y="785"/>
      <point x="431" y="880"/>
      <point x="336" y="880" type="curve" smooth="yes"/>
      <point x="241" y="880"/>
      <point x="144" y="812"/>
      <point x="144" y="770" type="curve" smooth="yes"/>
      <point x="144" y="746"/>
      <point x="186" y="687"/>
      <point x="213" y="687" type="curve" smooth="yes"/>
      <point x="247" y="687"/>
      <point x="269" y="772"/>
      <point x="330" y="772" type="curve" smooth="yes"/>
      <point x="376" y="772"/>
      <point x="401" y="748"/>
      <point x="401" y="713" type="curve" smooth="yes"/>
      <point x="401" y="626"/>
      <point x="216" y="516"/>
      <point x="216" y="416" type="curve" smooth="yes"/>
      <point x="216" y="345"/>
      <point x="287" y="299"/>
      <point x="349" y="299" type="curve" smooth="yes"/>
      <point x="403" y="299"/>
      <point x="476" y="328"/>
      <point x="476" y="383" type="curve" smooth="yes"/>
      <point x="476" y="396"/>
      <point x="463" y="399"/>
      <point x="444" y="399" type="curve" smooth="yes"/>
      <point x="424" y="399"/>
      <point x="397" y="395"/>
      <point x="379" y="395" type="curve" smooth="yes"/>
      <point x="358" y="395"/>
      <point x="343" y="407"/>
      <point x="343" y="427" type="curve" smooth="yes"/>
      <point x="343" y="498"/>
      <point x="541" y="588"/>
    </contour>
    <contour>
      <point x="70" y="-1" type="curve" smooth="yes"/>
      <point x="70" y="-51"/>
      <point x="130" y="-108"/>
      <point x="221" y="-108" type="curve" smooth="yes"/>
      <point x="445" y="-108"/>
      <point x="322" y="256"/>
      <point x="437" y="323" type="curve"/>
      <point x="464" y="396" type="line"/>
      <point x="454" y="397"/>
      <point x="442" y="397"/>
      <point x="432" y="397" type="curve" smooth="yes"/>
      <point x="159" y="397"/>
      <point x="302" y="-10"/>
      <point x="203" y="-10" type="curve" smooth="yes"/>
      <point x="126" y="-10"/>
      <point x="135" y="27"/>
      <point x="91" y="27" type="curve" smooth="yes"/>
      <point x="72" y="27"/>
      <point x="70" y="11"/>
    </contour>
  </outline>
</glyph>
<glyph name="asciitilde" format="1">
  <advance width="586"/>
  <unicode hex="007E"/>
  <outline>
    <contour>
      <point x="72" y="270" type="curve"/>
      <point x="72" y="234"/>
      <point x="97" y="218"/>
      <point x="131" y="218" type="curve"/>
      <point x="200" y="218"/>
      <point x="184" y="307"/>
      <point x="254" y="336" type="curve"/>
      <point x="293" y="259"/>
      <point x="354" y="205"/>
      <point x="405" y="205" type="curve"/>
      <point x="458" y="205"/>
      <point x="538" y="302"/>
      <point x="538" y="374" type="curve"/>
      <point x="538" y="410"/>
      <point x="521" y="426"/>
      <point x="496" y="426" type="curve"/>
      <point x="432" y="426"/>
      <point x="426" y="345"/>
      <point x="389" y="326" type="curve"/>
      <point x="345" y="346"/>
      <point x="335" y="440"/>
      <point x="229" y="440" type="curve"/>
      <point x="154" y="440"/>
      <point x="72" y="341"/>
    </contour>
  </outline>
</glyph>
<glyph name="cent" format="1">
  <advance width="545"/>
  <unicode hex="00A2"/>
  <outline>
    <contour>
      <point x="418" y="628" type="curve" smooth="yes"/>
      <point x="335" y="628"/>
      <point x="193" y="17"/>
      <point x="193" y="-33" type="curve" smooth="yes"/>
      <point x="193" y="-51"/>
      <point x="208" y="-68"/>
      <point x="228" y="-68" type="curve" smooth="yes"/>
      <point x="281" y="-68"/>
      <point x="297" y="93"/>
      <point x="438" y="522" type="curve" smooth="yes"/>
      <point x="446" y="547"/>
      <point x="452" y="566"/>
      <point x="452" y="582" type="curve" smooth="yes"/>
      <point x="452" y="604"/>
      <point x="444" y="628"/>
    </contour>
    <contour>
      <point x="490" y="402" type="curve" smooth="yes"/>
      <point x="490" y="465"/>
      <point x="386" y="552"/>
      <point x="337" y="552" type="curve" smooth="yes"/>
      <point x="198" y="552"/>
      <point x="25" y="334"/>
      <point x="25" y="198" type="curve" smooth="yes"/>
      <point x="25" y="132"/>
      <point x="156" y="37"/>
      <point x="219" y="37" type="curve" smooth="yes"/>
      <point x="322" y="37"/>
      <point x="470" y="104"/>
      <point x="470" y="162" type="curve" smooth="yes"/>
      <point x="470" y="179"/>
      <point x="459" y="187"/>
      <point x="443" y="187" type="curve" smooth="yes"/>
      <point x="403" y="187"/>
      <point x="377" y="163"/>
      <point x="240" y="163" type="curve" smooth="yes"/>
      <point x="201" y="163"/>
      <point x="168" y="178"/>
      <point x="168" y="208" type="curve" smooth="yes"/>
      <point x="168" y="281"/>
      <point x="277" y="427"/>
      <point x="340" y="427" type="curve" smooth="yes"/>
      <point x="376" y="427"/>
      <point x="434" y="375"/>
      <point x="466" y="375" type="curve" smooth="yes"/>
      <point x="480" y="375"/>
      <point x="490" y="385"/>
    </contour>
  </outline>
</glyph>
<glyph name="dieresis" format="1">
  <advance width="335"/>
  <unicode hex="00A8"/>
  <outline>
    <contour>
      <point x="73" y="810" type="curve" smooth="yes"/>
      <point x="44" y="810"/>
      <point x="10" y="767"/>
      <point x="10" y="738" type="curve" smooth="yes"/>
      <point x="10" y="705"/>
      <point x="65" y="648"/>
      <point x="101" y="648" type="curve" smooth="yes"/>
      <point x="121" y="648"/>
      <point x="147" y="673"/>
      <point x="147" y="690" type="curve" smooth="yes"/>
      <point x="147" y="715"/>
      <point x="102" y="810"/>
    </contour>
    <contour>
      <point x="251" y="810" type="curve" smooth="yes"/>
      <point x="222" y="810"/>
      <point x="188" y="767"/>
      <point x="188" y="738" type="curve" smooth="yes"/>
      <point x="188" y="705"/>
      <point x="243" y="648"/>
      <point x="279" y="648" type="curve" smooth="yes"/>
      <point x="299" y="648"/>
      <point x="325" y="673"/>
      <point x="325" y="690" type="curve" smooth="yes"/>
      <point x="325" y="715"/>
      <point x="280" y="810"/>
    </contour>
  </outline>
</glyph>
<glyph name="ordfeminine" format="1">
  <advance width="536"/>
  <unicode hex="00AA"/>
  <outline>
    <contour>
      <point x="313" y="707" type="curve" smooth="yes"/>
      <point x="185" y="707"/>
      <point x="117" y="494"/>
      <point x="117" y="435" type="curve" smooth="yes"/>
      <point x="117" y="394"/>
      <point x="183" y="337"/>
      <point x="227" y="337" type="curve" smooth="yes"/>
      <point x="299" y="337"/>
      <point x="379" y="416"/>
      <point x="414" y="505" type="curve"/>
      <point x="348" y="554" type="line"/>
      <point x="336" y="513"/>
      <point x="333" y="472"/>
      <point x="333" y="450" type="curve" smooth="yes"/>
      <point x="333" y="391"/>
      <point x="370" y="337"/>
      <point x="402" y="337" type="curve" smooth="yes"/>
      <point x="417" y="337"/>
      <point x="419" y="371"/>
      <point x="419" y="414" type="curve" smooth="yes"/>
      <point x="419" y="464"/>
      <point x="430" y="511"/>
      <point x="430" y="527" type="curve" smooth="yes"/>
      <point x="430" y="549"/>
      <point x="395" y="599"/>
      <point x="377" y="599" type="curve" smooth="yes"/>
      <point x="364" y="599"/>
      <point x="355" y="593"/>
      <point x="353" y="579" type="curve" smooth="yes"/>
      <point x="331" y="468"/>
      <point x="253" y="424"/>
      <point x="238" y="424" type="curve" smooth="yes"/>
      <point x="221" y="424"/>
      <point x="215" y="428"/>
      <point x="215" y="445" type="curve" smooth="yes"/>
      <point x="215" y="471"/>
      <point x="266" y="612"/>
      <point x="316" y="612" type="curve" smooth="yes"/>
      <point x="345" y="612"/>
      <point x="359" y="587"/>
      <point x="359" y="553" type="curve" smooth="yes"/>
      <point x="359" y="511"/>
      <point x="362" y="481"/>
      <point x="382" y="481" type="curve" smooth="yes"/>
      <point x="406" y="481"/>
      <point x="439" y="557"/>
      <point x="439" y="583" type="curve" smooth="yes"/>
      <point x="439" y="639"/>
      <point x="366" y="707"/>
    </contour>
  </outline>
</glyph>
<glyph name="guillemotleft" format="1">
  <advance width="426"/>
  <unicode hex="00AB"/>
  <outline>
    <contour>
      <point x="245" y="501" type="curve" smooth="yes"/>
      <point x="199" y="501"/>
      <point x="93" y="434"/>
      <point x="48" y="395" type="curve" smooth="yes"/>
      <point x="36" y="385"/>
      <point x="15" y="344"/>
      <point x="15" y="321" type="curve" smooth="yes"/>
      <point x="15" y="255"/>
      <point x="191" y="171"/>
      <point x="264" y="171" type="curve" smooth="yes"/>
      <point x="294" y="171"/>
      <point x="310" y="180"/>
      <point x="310" y="202" type="curve" smooth="yes"/>
      <point x="310" y="237"/>
      <point x="121" y="279"/>
      <point x="121" y="331" type="curve" smooth="yes"/>
      <point x="121" y="349"/>
      <point x="180" y="388"/>
      <point x="289" y="422" type="curve" smooth="yes"/>
      <point x="309" y="428"/>
      <point x="318" y="437"/>
      <point x="318" y="452" type="curve" smooth="yes"/>
      <point x="318" y="474"/>
      <point x="267" y="501"/>
    </contour>
    <contour>
      <point x="560" y="475" type="curve" smooth="yes"/>
      <point x="503" y="475"/>
      <point x="393" y="429"/>
      <point x="345" y="398" type="curve" smooth="yes"/>
      <point x="324" y="384"/>
      <point x="301" y="350"/>
      <point x="301" y="334" type="curve" smooth="yes"/>
      <point x="301" y="263"/>
      <point x="451" y="174"/>
      <point x="534" y="174" type="curve" smooth="yes"/>
      <point x="558" y="174"/>
      <point x="570" y="182"/>
      <point x="572" y="201" type="curve" smooth="yes"/>
      <point x="572" y="247"/>
      <point x="412" y="283"/>
      <point x="412" y="324" type="curve" smooth="yes"/>
      <point x="412" y="345"/>
      <point x="454" y="374"/>
      <point x="601" y="390" type="curve" smooth="yes"/>
      <point x="619" y="392"/>
      <point x="632" y="399"/>
      <point x="632" y="414" type="curve" smooth="yes"/>
      <point x="632" y="436"/>
      <point x="583" y="475"/>
    </contour>
  </outline>
</glyph>
<glyph name="registered" format="1">
  <advance width="767"/>
  <unicode hex="00AE"/>
  <outline>
    <contour>
      <point x="428" y="497" type="move" name="top"/>
    </contour>
    <contour>
      <point x="708" y="404" type="curve" smooth="yes"/>
      <point x="708" y="549"/>
      <point x="611" y="660"/>
      <point x="451" y="660" type="curve" smooth="yes"/>
      <point x="271" y="660"/>
      <point x="94" y="492"/>
      <point x="94" y="309" type="curve" smooth="yes"/>
      <point x="94" y="170"/>
      <point x="179" y="60"/>
      <point x="342" y="60" type="curve" smooth="yes"/>
      <point x="548" y="60"/>
      <point x="708" y="206"/>
    </contour>
    <contour>
      <point x="338" y="134" type="curve" smooth="yes"/>
      <point x="247" y="134"/>
      <point x="188" y="190"/>
      <point x="188" y="295" type="curve" smooth="yes"/>
      <point x="188" y="478"/>
      <point x="342" y="585"/>
      <point x="467" y="585" type="curve" smooth="yes"/>
      <point x="551" y="585"/>
      <point x="612" y="513"/>
      <point x="612" y="410" type="curve" smooth="yes"/>
      <point x="612" y="234"/>
      <point x="508" y="134"/>
    </contour>
    <contour>
      <point x="516" y="448" type="curve"/>
      <point x="516" y="388"/>
      <point x="433" y="352"/>
      <point x="433" y="337" type="curve"/>
      <point x="433" y="327"/>
      <point x="439" y="314"/>
      <point x="459" y="295" type="curve"/>
      <point x="485" y="272"/>
      <point x="518" y="250"/>
      <point x="518" y="236" type="curve"/>
      <point x="518" y="226"/>
      <point x="510" y="217"/>
      <point x="492" y="217" type="curve"/>
      <point x="435" y="217"/>
      <point x="359" y="310"/>
      <point x="357" y="350" type="curve" smooth="yes"/>
      <point x="356" y="378"/>
      <point x="446" y="406"/>
      <point x="446" y="444" type="curve"/>
      <point x="446" y="450"/>
      <point x="439" y="453"/>
      <point x="415" y="453" type="curve"/>
      <point x="383" y="453"/>
      <point x="360" y="432"/>
      <point x="339" y="432" type="curve"/>
      <point x="320" y="432"/>
      <point x="296" y="469"/>
      <point x="296" y="479" type="curve"/>
      <point x="296" y="495"/>
      <point x="354" y="520"/>
      <point x="396" y="520" type="curve"/>
      <point x="482" y="520"/>
      <point x="516" y="489"/>
    </contour>
    <contour>
      <point x="327" y="466" type="curve"/>
      <point x="327" y="475"/>
      <point x="331" y="481"/>
      <point x="342" y="481" type="curve"/>
      <point x="357" y="481"/>
      <point x="392" y="448"/>
      <point x="392" y="424" type="curve"/>
      <point x="392" y="401"/>
      <point x="385" y="374"/>
      <point x="363" y="300" type="curve"/>
      <point x="348" y="250"/>
      <point x="338" y="217"/>
      <point x="326" y="217" type="curve"/>
      <point x="312" y="217"/>
      <point x="285" y="247"/>
      <point x="285" y="261" type="curve"/>
      <point x="285" y="290"/>
      <point x="327" y="361"/>
    </contour>
  </outline>
</glyph>
<glyph name="macron" format="1">
  <advance width="0"/>
  <unicode hex="00AF"/>
  <outline>
    <contour>
      <point x="0" y="507" type="move" name="_top"/>
    </contour>
    <contour>
      <point x="204" y="648" type="curve" smooth="yes"/>
      <point x="204" y="671"/>
      <point x="171" y="678"/>
      <point x="125" y="678" type="curve" smooth="yes"/>
      <point x="-20" y="678"/>
      <point x="-153" y="677"/>
      <point x="-153" y="637" type="curve" smooth="yes"/>
      <point x="-153" y="614"/>
      <point x="-125" y="573"/>
      <point x="-97" y="572" type="curve" smooth="yes"/>
      <point x="-71" y="572"/>
      <point x="-34" y="582"/>
      <point x="44" y="595" type="curve" smooth="yes"/>
      <point x="157" y="613"/>
      <point x="204" y="620"/>
    </contour>
  </outline>
</glyph>
<glyph name="degree" format="1">
  <advance width="421"/>
  <unicode hex="00B0"/>
  <outline>
    <contour>
      <point x="307" y="726" type="curve" smooth="yes"/>
      <point x="191" y="726"/>
      <point x="89" y="611"/>
      <point x="89" y="505" type="curve" smooth="yes"/>
      <point x="89" y="433"/>
      <point x="138" y="380"/>
      <point x="216" y="380" type="curve" smooth="yes"/>
      <point x="331" y="380"/>
      <point x="434" y="495"/>
      <point x="434" y="600" type="curve" smooth="yes"/>
      <point x="434" y="672"/>
      <point x="384" y="726"/>
    </contour>
    <contour>
      <point x="278" y="620" type="curve" smooth="yes"/>
      <point x="300" y="620"/>
      <point x="312" y="599"/>
      <point x="312" y="572" type="curve" smooth="yes"/>
      <point x="312" y="534"/>
      <point x="280" y="480"/>
      <point x="242" y="480" type="curve" smooth="yes"/>
      <point x="222" y="480"/>
      <point x="208" y="500"/>
      <point x="208" y="527" type="curve" smooth="yes"/>
      <point x="208" y="566"/>
      <point x="240" y="620"/>
    </contour>
  </outline>
</glyph>
<glyph name="plusminus" format="1">
  <advance width="600"/>
  <unicode hex="00B1"/>
  <outline>
    <contour>
      <point x="214" y="364" type="curve" smooth="yes"/>
      <point x="293" y="364"/>
      <point x="660" y="382"/>
      <point x="660" y="463" type="curve"/>
      <point x="660" y="489"/>
      <point x="617" y="498"/>
      <point x="561" y="498" type="curve" smooth="yes"/>
      <point x="520" y="498"/>
      <point x="405" y="488"/>
      <point x="291" y="483" type="curve" smooth="yes"/>
      <point x="247" y="481"/>
      <point x="202" y="480"/>
      <point x="163" y="480" type="curve" smooth="yes"/>
      <point x="143" y="480"/>
      <point x="136" y="474"/>
      <point x="136" y="458" type="curve"/>
      <point x="136" y="427"/>
      <point x="174" y="364"/>
    </contour>
    <contour>
      <point x="450" y="363" type="curve"/>
      <point x="472" y="457"/>
      <point x="485" y="538"/>
      <point x="485" y="571" type="curve" smooth="yes"/>
      <point x="485" y="593"/>
      <point x="409" y="663"/>
      <point x="369" y="663" type="curve" smooth="yes"/>
      <point x="356" y="663"/>
      <point x="343" y="655"/>
      <point x="343" y="637" type="curve" smooth="yes"/>
      <point x="343" y="432"/>
      <point x="301" y="299"/>
      <point x="301" y="266" type="curve" smooth="yes"/>
      <point x="301" y="232"/>
      <point x="354" y="189"/>
      <point x="381" y="189" type="curve" smooth="yes"/>
      <point x="399" y="189"/>
      <point x="425" y="253"/>
    </contour>
    <contour>
      <point x="158" y="39" type="curve" smooth="yes"/>
      <point x="264" y="39"/>
      <point x="609" y="62"/>
      <point x="609" y="133" type="curve" smooth="yes"/>
      <point x="609" y="157"/>
      <point x="552" y="164"/>
      <point x="497" y="164" type="curve" smooth="yes"/>
      <point x="427" y="164"/>
      <point x="177" y="143"/>
      <point x="110" y="143" type="curve" smooth="yes"/>
      <point x="91" y="143"/>
      <point x="80" y="136"/>
      <point x="80" y="119" type="curve" smooth="yes"/>
      <point x="80" y="88"/>
      <point x="116" y="39"/>
    </contour>
  </outline>
</glyph>
<glyph name="twosuperior" format="1">
  <advance width="335"/>
  <unicode hex="00B2"/>
  <outline>
    <contour>
      <point x="189" y="587" type="curve"/>
      <point x="197" y="587"/>
      <point x="208" y="630"/>
      <point x="241" y="630" type="curve"/>
      <point x="250" y="630"/>
      <point x="257" y="623"/>
      <point x="257" y="611" type="curve"/>
      <point x="257" y="543"/>
      <point x="76" y="436"/>
      <point x="76" y="407" type="curve" smooth="yes"/>
      <point x="76" y="382"/>
      <point x="122" y="342"/>
      <point x="147" y="342" type="curve" smooth="yes"/>
      <point x="195" y="342"/>
      <point x="351" y="375"/>
      <point x="351" y="406" type="curve" smooth="yes"/>
      <point x="351" y="422"/>
      <point x="332" y="430"/>
      <point x="299" y="430" type="curve" smooth="yes"/>
      <point x="269" y="430"/>
      <point x="217" y="423"/>
      <point x="178" y="413" type="curve"/>
      <point x="235" y="439"/>
      <point x="334" y="537"/>
      <point x="334" y="615" type="curve"/>
      <point x="334" y="669"/>
      <point x="308" y="712"/>
      <point x="242" y="712" type="curve"/>
      <point x="176" y="712"/>
      <point x="133" y="664"/>
      <point x="133" y="628" type="curve"/>
      <point x="133" y="617"/>
      <point x="175" y="587"/>
    </contour>
  </outline>
</glyph>
<glyph name="acute" format="1">
  <advance width="0"/>
  <unicode hex="00B4"/>
  <outline>
    <contour>
      <point x="0" y="603" type="move" name="_top"/>
    </contour>
    <contour>
      <point x="-13" y="696" type="curve" smooth="yes"/>
      <point x="-13" y="674"/>
      <point x="4" y="650"/>
      <point x="26" y="650" type="curve" smooth="yes"/>
      <point x="48" y="650"/>
      <point x="65" y="667"/>
      <point x="101" y="687" type="curve" smooth="yes"/>
      <point x="197" y="740"/>
      <point x="233" y="741"/>
      <point x="233" y="790" type="curve" smooth="yes"/>
      <point x="233" y="828"/>
      <point x="201" y="874"/>
      <point x="169" y="874" type="curve" smooth="yes"/>
      <point x="143" y="874"/>
      <point x="123" y="850"/>
      <point x="44" y="783" type="curve" smooth="yes"/>
      <point x="-1" y="745"/>
      <point x="-13" y="725"/>
    </contour>
  </outline>
</glyph>
<glyph name="mu.math" format="1">
  <advance width="439"/>
  <unicode hex="00B5"/>
  <outline>
    <contour>
      <point x="94" y="12" type="curve" smooth="yes"/>
      <point x="181" y="12"/>
      <point x="313" y="246"/>
      <point x="334" y="300" type="curve"/>
      <point x="309" y="308" type="line"/>
      <point x="277" y="253"/>
      <point x="245" y="137"/>
      <point x="245" y="70" type="curve" smooth="yes"/>
      <point x="245" y="26"/>
      <point x="268" y="12"/>
      <point x="292" y="12" type="curve" smooth="yes"/>
      <point x="312" y="12"/>
      <point x="330" y="22"/>
      <point x="340" y="54" type="curve" smooth="yes"/>
      <point x="395" y="238"/>
      <point x="458" y="396"/>
      <point x="458" y="417" type="curve" smooth="yes"/>
      <point x="458" y="455"/>
      <point x="401" y="528"/>
      <point x="367" y="528" type="curve" smooth="yes"/>
      <point x="351" y="528"/>
      <point x="342" y="521"/>
      <point x="337" y="503" type="curve" smooth="yes"/>
      <point x="295" y="342"/>
      <point x="140" y="139"/>
      <point x="106" y="139" type="curve" smooth="yes"/>
      <point x="104" y="139"/>
      <point x="103" y="141"/>
      <point x="103" y="145" type="curve" smooth="yes"/>
      <point x="103" y="257"/>
      <point x="173" y="408"/>
      <point x="173" y="478" type="curve" smooth="yes"/>
      <point x="173" y="497"/>
      <point x="120" y="528"/>
      <point x="94" y="528" type="curve" smooth="yes"/>
      <point x="50" y="528"/>
      <point x="20" y="325"/>
      <point x="-38" y="158" type="curve" smooth="yes"/>
      <point x="-104" y="-32"/>
      <point x="-162" y="-129"/>
      <point x="-162" y="-151" type="curve" smooth="yes"/>
      <point x="-162" y="-173"/>
      <point x="-118" y="-200"/>
      <point x="-86" y="-200" type="curve" smooth="yes"/>
      <point x="-57" y="-200"/>
      <point x="15" y="-35"/>
      <point x="45" y="41" type="curve"/>
      <point x="57" y="23"/>
      <point x="74" y="12"/>
    </contour>
  </outline>
</glyph>
<glyph name="cedilla" format="1">
  <advance width="0"/>
  <unicode hex="00B8"/>
  <outline>
    <contour>
      <point x="0" y="8" type="move" name="_cedilla"/>
    </contour>
    <contour>
      <point x="67" y="56" type="curve" smooth="yes"/>
      <point x="67" y="75"/>
      <point x="43" y="80"/>
      <point x="21" y="80" type="curve" smooth="yes"/>
      <point x="2" y="80"/>
      <point x="-16" y="74"/>
      <point x="-21" y="60" type="curve" smooth="yes"/>
      <point x="-33" y="30"/>
      <point x="-77" y="-51"/>
      <point x="-77" y="-75" type="curve" smooth="yes"/>
      <point x="-77" y="-94"/>
      <point x="-17" y="-92"/>
      <point x="6" y="-110" type="curve"/>
      <point x="-64" y="-145"/>
      <point x="-155" y="-133"/>
      <point x="-155" y="-166" type="curve" smooth="yes"/>
      <point x="-155" y="-181"/>
      <point x="-125" y="-204"/>
      <point x="-84" y="-204" type="curve" smooth="yes"/>
      <point x="21" y="-204"/>
      <point x="125" y="-149"/>
      <point x="126" y="-91" type="curve" smooth="yes"/>
      <point x="126" y="-56"/>
      <point x="54" y="-27"/>
      <point x="25" y="-27" type="curve" smooth="yes"/>
      <point x="11" y="-27"/>
      <point x="-3" y="-34"/>
      <point x="-10" y="-42" type="curve"/>
      <point x="13" y="-56" type="line"/>
      <point x="40" y="-18"/>
      <point x="67" y="40"/>
    </contour>
  </outline>
</glyph>
<glyph name="threequarters" format="1">
  <advance width="962"/>
  <unicode hex="00BE"/>
  <outline>
    <contour>
      <point x="671" y="87" type="curve" smooth="yes"/>
      <point x="762" y="87"/>
      <point x="851" y="121"/>
      <point x="851" y="170" type="curve"/>
      <point x="851" y="201"/>
      <point x="838" y="217"/>
      <point x="808" y="217" type="curve"/>
      <point x="776" y="217"/>
      <point x="723" y="177"/>
      <point x="674" y="177" type="curve" smooth="yes"/>
      <point x="661" y="177"/>
      <point x="658" y="178"/>
      <point x="658" y="189" type="curve" smooth="yes"/>
      <point x="658" y="220"/>
      <point x="783" y="364"/>
      <point x="783" y="391" type="curve"/>
      <point x="783" y="414"/>
      <point x="746" y="451"/>
      <point x="724" y="451" type="curve"/>
      <point x="686" y="451"/>
      <point x="553" y="264"/>
      <point x="553" y="183" type="curve" smooth="yes"/>
      <point x="553" y="124"/>
      <point x="604" y="87"/>
    </contour>
    <contour>
      <point x="891" y="250" type="curve"/>
      <point x="891" y="273"/>
      <point x="839" y="319"/>
      <point x="816" y="319" type="curve"/>
      <point x="805" y="319"/>
      <point x="795" y="312"/>
      <point x="795" y="299" type="curve"/>
      <point x="795" y="147"/>
      <point x="733" y="23"/>
      <point x="733" y="-35" type="curve"/>
      <point x="733" y="-61"/>
      <point x="745" y="-92"/>
      <point x="770" y="-92" type="curve"/>
      <point x="819" y="-92"/>
      <point x="891" y="209"/>
    </contour>
    <contour>
      <point x="438" y="707" type="curve" smooth="yes"/>
      <point x="438" y="754"/>
      <point x="394" y="804"/>
      <point x="335" y="804" type="curve"/>
      <point x="280" y="804"/>
      <point x="173" y="765"/>
      <point x="173" y="728" type="curve"/>
      <point x="173" y="715"/>
      <point x="214" y="668"/>
      <point x="229" y="668" type="curve"/>
      <point x="243" y="668"/>
      <point x="301" y="715"/>
      <point x="337" y="715" type="curve"/>
      <point x="340" y="715"/>
      <point x="341" y="714"/>
      <point x="341" y="712" type="curve"/>
      <point x="341" y="669"/>
      <point x="200" y="603"/>
      <point x="200" y="558" type="curve"/>
      <point x="200" y="544"/>
      <point x="219" y="536"/>
      <point x="240" y="536" type="curve" smooth="yes"/>
      <point x="305" y="536"/>
      <point x="438" y="656"/>
    </contour>
    <contour>
      <point x="92" y="372" type="curve"/>
      <point x="92" y="356"/>
      <point x="107" y="343"/>
      <point x="158" y="343" type="curve"/>
      <point x="271" y="343"/>
      <point x="428" y="416"/>
      <point x="428" y="497" type="curve"/>
      <point x="428" y="555"/>
      <point x="362" y="592"/>
      <point x="253" y="592" type="curve"/>
      <point x="231" y="592"/>
      <point x="200" y="576"/>
      <point x="200" y="560" type="curve"/>
      <point x="200" y="501"/>
      <point x="318" y="540"/>
      <point x="318" y="497" type="curve"/>
      <point x="318" y="447"/>
      <point x="92" y="401"/>
    </contour>
    <contour>
      <point x="258" y="-8" type="curve" smooth="yes"/>
      <point x="287" y="-8"/>
      <point x="407" y="157"/>
      <point x="524" y="311" type="curve" smooth="yes"/>
      <point x="703" y="547"/>
      <point x="794" y="657"/>
      <point x="794" y="703" type="curve" smooth="yes"/>
      <point x="794" y="748"/>
      <point x="749" y="796"/>
      <point x="725" y="796" type="curve" smooth="yes"/>
      <point x="711" y="796"/>
      <point x="707" y="789"/>
      <point x="697" y="772" type="curve" smooth="yes"/>
      <point x="562" y="549"/>
      <point x="207" y="110"/>
      <point x="207" y="48" type="curve" smooth="yes"/>
      <point x="207" y="19"/>
      <point x="241" y="-8"/>
    </contour>
  </outline>
</glyph>
<glyph name="Aring" format="1">
  <advance width="631"/>
  <unicode hex="00C5"/>
  <outline>
    <contour>
      <point x="332" y="743" type="move" name="top"/>
    </contour>
    <contour>
      <point x="397" y="8" type="move" name="ogonek"/>
    </contour>
    <contour>
      <point x="244" y="662" type="curve" smooth="yes"/>
      <point x="208" y="550"/>
      <point x="169" y="454"/>
      <point x="146" y="384" type="curve" smooth="yes"/>
      <point x="106" y="267"/>
      <point x="34" y="135"/>
      <point x="34" y="100" type="curve" smooth="yes"/>
      <point x="34" y="55"/>
      <point x="101" y="14"/>
      <point x="124" y="14" type="curve" smooth="yes"/>
      <point x="172" y="14"/>
      <point x="341" y="570"/>
      <point x="367" y="651" type="curve"/>
      <point x="336" y="656" type="line"/>
      <point x="350" y="560"/>
      <point x="374" y="241"/>
      <point x="390" y="136" type="curve" smooth="yes"/>
      <point x="406" y="33"/>
      <point x="423" y="14"/>
      <point x="450" y="14" type="curve" smooth="yes"/>
      <point x="483" y="14"/>
      <point x="498" y="48"/>
      <point x="498" y="177" type="curve" smooth="yes"/>
      <point x="498" y="505"/>
      <point x="451" y="744"/>
      <point x="390" y="744" type="curve" smooth="yes"/>
      <point x="358" y="744"/>
      <point x="258" y="707"/>
    </contour>
    <contour>
      <point x="508" y="388" type="curve" smooth="yes"/>
      <point x="299" y="388"/>
      <point x="31" y="338"/>
      <point x="31" y="277" type="curve" smooth="yes"/>
      <point x="31" y="243"/>
      <point x="67" y="196"/>
      <point x="100" y="196" type="curve" smooth="yes"/>
      <point x="131" y="196"/>
      <point x="190" y="220"/>
      <point x="270" y="242" type="curve" smooth="yes"/>
      <point x="372" y="270"/>
      <point x="583" y="303"/>
      <point x="583" y="353" type="curve" smooth="yes"/>
      <point x="583" y="381"/>
      <point x="559" y="388"/>
    </contour>
    <contour>
      <point x="275" y="889" type="curve" smooth="yes"/>
      <point x="275" y="832"/>
      <point x="317" y="786"/>
      <point x="374" y="786" type="curve" smooth="yes"/>
      <point x="434" y="786"/>
      <point x="491" y="837"/>
      <point x="491" y="907" type="curve" smooth="yes"/>
      <point x="491" y="964"/>
      <point x="449" y="1010"/>
      <point x="392" y="1010" type="curve" smooth="yes"/>
      <point x="332" y="1010"/>
      <point x="275" y="959"/>
    </contour>
    <contour>
      <point x="409" y="901" type="curve" smooth="yes"/>
      <point x="409" y="876"/>
      <point x="395" y="858"/>
      <point x="381" y="858" type="curve" smooth="yes"/>
      <point x="367" y="858"/>
      <point x="356" y="874"/>
      <point x="356" y="892" type="curve" smooth="yes"/>
      <point x="356" y="917"/>
      <point x="370" y="934"/>
      <point x="384" y="934" type="curve" smooth="yes"/>
      <point x="398" y="934"/>
      <point x="409" y="920"/>
    </contour>
  </outline>
</glyph>
<glyph name="Eth" format="1">
  <advance width="649"/>
  <unicode hex="00D0"/>
  <outline>
    <contour>
      <point x="343" y="657" type="move" name="top"/>
    </contour>
    <contour>
      <point x="315" y="434" type="curve" smooth="yes"/>
      <point x="254" y="434"/>
      <point x="161" y="413"/>
      <point x="72" y="404" type="curve" smooth="yes"/>
      <point x="44" y="401"/>
      <point x="17" y="388"/>
      <point x="17" y="356" type="curve" smooth="yes"/>
      <point x="17" y="315"/>
      <point x="54" y="281"/>
      <point x="104" y="281" type="curve" smooth="yes"/>
      <point x="139" y="281"/>
      <point x="294" y="306"/>
      <point x="349" y="318" type="curve" smooth="yes"/>
      <point x="396" y="328"/>
      <point x="415" y="345"/>
      <point x="415" y="368" type="curve" smooth="yes"/>
      <point x="415" y="404"/>
      <point x="368" y="434"/>
    </contour>
    <contour>
      <point x="342" y="575" type="curve" smooth="yes"/>
      <point x="342" y="631"/>
      <point x="268" y="710"/>
      <point x="247" y="710" type="curve" smooth="yes"/>
      <point x="231" y="710"/>
      <point x="226" y="703"/>
      <point x="225" y="679" type="curve" smooth="yes"/>
      <point x="218" y="541"/>
      <point x="95" y="217"/>
      <point x="95" y="130" type="curve" smooth="yes"/>
      <point x="95" y="101"/>
      <point x="165" y="20"/>
      <point x="187" y="20" type="curve" smooth="yes"/>
      <point x="344" y="20"/>
      <point x="682" y="247"/>
      <point x="682" y="365" type="curve" smooth="yes"/>
      <point x="682" y="573"/>
      <point x="362" y="754"/>
      <point x="153" y="754" type="curve" smooth="yes"/>
      <point x="141" y="754"/>
      <point x="133" y="747"/>
      <point x="133" y="731" type="curve" smooth="yes"/>
      <point x="133" y="686"/>
      <point x="201" y="608"/>
      <point x="280" y="587" type="curve" smooth="yes"/>
      <point x="411" y="551"/>
      <point x="538" y="443"/>
      <point x="538" y="393" type="curve" smooth="yes"/>
      <point x="538" y="338"/>
      <point x="363" y="206"/>
      <point x="232" y="162" type="curve"/>
      <point x="239" y="180"/>
      <point x="247" y="213"/>
      <point x="257" y="244" type="curve" smooth="yes"/>
      <point x="313" y="416"/>
      <point x="342" y="525"/>
    </contour>
  </outline>
</glyph>
<glyph name="Ntilde" format="1">
  <advance width="631"/>
  <unicode hex="00D1"/>
  <outline>
    <contour>
      <point x="381" y="743" type="move" name="top"/>
    </contour>
    <contour>
      <point x="524" y="750" type="curve" smooth="yes"/>
      <point x="514" y="750"/>
      <point x="508" y="745"/>
      <point x="505" y="730" type="curve" smooth="yes"/>
      <point x="489" y="649"/>
      <point x="468" y="420"/>
      <point x="416" y="266" type="curve"/>
      <point x="351" y="415"/>
      <point x="304" y="618"/>
      <point x="261" y="682" type="curve" smooth="yes"/>
      <point x="241" y="711"/>
      <point x="198" y="745"/>
      <point x="175" y="745" type="curve" smooth="yes"/>
      <point x="160" y="745"/>
      <point x="154" y="732"/>
      <point x="152" y="707" type="curve" smooth="yes"/>
      <point x="142" y="584"/>
      <point x="32" y="174"/>
      <point x="32" y="108" type="curve" smooth="yes"/>
      <point x="32" y="78"/>
      <point x="90" y="13"/>
      <point x="116" y="13" type="curve" smooth="yes"/>
      <point x="149" y="13"/>
      <point x="190" y="232"/>
      <point x="234" y="432" type="curve"/>
      <point x="293" y="300"/>
      <point x="336" y="148"/>
      <point x="365" y="68" type="curve" smooth="yes"/>
      <point x="377" y="36"/>
      <point x="419" y="13"/>
      <point x="436" y="13" type="curve" smooth="yes"/>
      <point x="517" y="13"/>
      <point x="624" y="556"/>
      <point x="624" y="671" type="curve" smooth="yes"/>
      <point x="624" y="694"/>
      <point x="565" y="750"/>
    </contour>
    <contour>
      <point x="213" y="842" type="curve" smooth="yes"/>
      <point x="213" y="810"/>
      <point x="238" y="794"/>
      <point x="266" y="794" type="curve" smooth="yes"/>
      <point x="322" y="794"/>
      <point x="320" y="866"/>
      <point x="365" y="888" type="curve"/>
      <point x="398" y="827"/>
      <point x="448" y="783"/>
      <point x="491" y="783" type="curve" smooth="yes"/>
      <point x="540" y="783"/>
      <point x="607" y="867"/>
      <point x="607" y="926" type="curve" smooth="yes"/>
      <point x="607" y="957"/>
      <point x="592" y="974"/>
      <point x="567" y="974" type="curve" smooth="yes"/>
      <point x="515" y="974"/>
      <point x="504" y="908"/>
      <point x="479" y="893" type="curve" smooth="yes"/>
      <point x="448" y="909"/>
      <point x="433" y="985"/>
      <point x="348" y="985" type="curve" smooth="yes"/>
      <point x="282" y="985"/>
      <point x="213" y="900"/>
    </contour>
  </outline>
</glyph>
<glyph name="Oslash" format="1">
  <advance width="619"/>
  <unicode hex="00D8"/>
  <outline>
    <contour>
      <point x="237" y="13" type="curve" smooth="yes"/>
      <point x="444" y="13"/>
      <point x="622" y="284"/>
      <point x="622" y="471" type="curve" smooth="yes"/>
      <point x="622" y="613"/>
      <point x="520" y="747"/>
      <point x="386" y="747" type="curve" smooth="yes"/>
      <point x="242" y="747"/>
      <point x="32" y="487"/>
      <point x="32" y="230" type="curve" smooth="yes"/>
      <point x="32" y="140"/>
      <point x="133" y="13"/>
    </contour>
    <contour>
      <point x="480" y="461" type="curve" smooth="yes"/>
      <point x="480" y="320"/>
      <point x="321" y="134"/>
      <point x="236" y="134" type="curve" smooth="yes"/>
      <point x="212" y="134"/>
      <point x="179" y="172"/>
      <point x="179" y="230" type="curve" smooth="yes"/>
      <point x="179" y="411"/>
      <point x="333" y="616"/>
      <point x="398" y="616" type="curve" smooth="yes"/>
      <point x="437" y="616"/>
      <point x="480" y="567"/>
    </contour>
    <contour>
      <point x="619" y="738" type="curve" smooth="yes"/>
      <point x="566" y="738"/>
      <point x="400" y="522"/>
      <point x="266" y="356" type="curve" smooth="yes"/>
      <point x="154" y="217"/>
      <point x="33" y="74"/>
      <point x="33" y="49" type="curve" smooth="yes"/>
      <point x="33" y="31"/>
      <point x="43" y="11"/>
      <point x="62" y="11" type="curve" smooth="yes"/>
      <point x="103" y="11"/>
      <point x="213" y="198"/>
      <point x="613" y="629" type="curve" smooth="yes"/>
      <point x="647" y="666"/>
      <point x="656" y="690"/>
      <point x="656" y="704" type="curve" smooth="yes"/>
      <point x="656" y="725"/>
      <point x="640" y="738"/>
    </contour>
  </outline>
</glyph>
<glyph name="Thorn" format="1">
  <advance width="535"/>
  <unicode hex="00DE"/>
  <outline>
    <contour>
      <point x="115" y="10" type="curve" smooth="yes"/>
      <point x="149" y="10"/>
      <point x="161" y="64"/>
      <point x="191" y="194" type="curve" smooth="yes"/>
      <point x="224" y="335"/>
      <point x="293" y="557"/>
      <point x="293" y="619" type="curve" smooth="yes"/>
      <point x="293" y="707"/>
      <point x="198" y="751"/>
      <point x="171" y="751" type="curve" smooth="yes"/>
      <point x="146" y="751"/>
      <point x="139" y="738"/>
      <point x="139" y="718" type="curve" smooth="yes"/>
      <point x="139" y="480"/>
      <point x="40" y="183"/>
      <point x="40" y="112" type="curve" smooth="yes"/>
      <point x="40" y="81"/>
      <point x="83" y="10"/>
    </contour>
    <contour>
      <point x="182" y="425" type="line"/>
      <point x="218" y="460"/>
      <point x="273" y="479"/>
      <point x="310" y="479" type="curve" smooth="yes"/>
      <point x="353" y="479"/>
      <point x="390" y="461"/>
      <point x="390" y="442" type="curve" smooth="yes"/>
      <point x="390" y="372"/>
      <point x="324" y="337"/>
      <point x="264" y="320" type="curve" smooth="yes"/>
      <point x="244" y="315"/>
      <point x="226" y="311"/>
      <point x="210" y="309" type="curve"/>
      <point x="174" y="190" type="line"/>
      <point x="210" y="191"/>
      <point x="244" y="196"/>
      <point x="277" y="204" type="curve" smooth="yes"/>
      <point x="419" y="238"/>
      <point x="522" y="328"/>
      <point x="522" y="435" type="curve" smooth="yes"/>
      <point x="522" y="497"/>
      <point x="422" y="619"/>
      <point x="330" y="619" type="curve" smooth="yes"/>
      <point x="292" y="619"/>
      <point x="250" y="611"/>
      <point x="212" y="596" type="curve"/>
    </contour>
  </outline>
</glyph>
<glyph name="acircumflex" format="1">
  <advance width="518"/>
  <unicode hex="00E2"/>
  <outline>
    <contour>
      <point x="374" y="507" type="move" name="top"/>
    </contour>
    <contour>
      <point x="344" y="7" type="move" name="ogonek"/>
    </contour>
    <contour>
      <point x="337" y="528" type="curve" smooth="yes"/>
      <point x="180" y="528"/>
      <point x="29" y="248"/>
      <point x="29" y="149" type="curve" smooth="yes"/>
      <point x="29" y="92"/>
      <point x="116" y="12"/>
      <point x="172" y="12" type="curve" smooth="yes"/>
      <point x="262" y="12"/>
      <point x="392" y="167"/>
      <point x="448" y="260" type="curve"/>
      <point x="363" y="312" type="line"/>
      <point x="334" y="267"/>
      <point x="323" y="212"/>
      <point x="323" y="162" type="curve" smooth="yes"/>
      <point x="323" y="83"/>
      <point x="368" y="12"/>
      <point x="399" y="12" type="curve" smooth="yes"/>
      <point x="429" y="12"/>
      <point x="435" y="72"/>
      <point x="446" y="134" type="curve" smooth="yes"/>
      <point x="460" y="211"/>
      <point x="477" y="239"/>
      <point x="477" y="269" type="curve" smooth="yes"/>
      <point x="477" y="291"/>
      <point x="402" y="345"/>
      <point x="386" y="345" type="curve" smooth="yes"/>
      <point x="368" y="345"/>
      <point x="359" y="342"/>
      <point x="357" y="330" type="curve" smooth="yes"/>
      <point x="333" y="205"/>
      <point x="207" y="138"/>
      <point x="168" y="138" type="curve" smooth="yes"/>
      <point x="155" y="138"/>
      <point x="153" y="140"/>
      <point x="153" y="151" type="curve" smooth="yes"/>
      <point x="153" y="203"/>
      <point x="267" y="401"/>
      <point x="355" y="401" type="curve" smooth="yes"/>
      <point x="371" y="401"/>
      <point x="375" y="365"/>
      <point x="375" y="301" type="curve" smooth="yes"/>
      <point x="375" y="262"/>
      <point x="385" y="237"/>
      <point x="406" y="237" type="curve" smooth="yes"/>
      <point x="430" y="237"/>
      <point x="489" y="333"/>
      <point x="489" y="385" type="curve" smooth="yes"/>
      <point x="489" y="448"/>
      <point x="390" y="528"/>
    </contour>
    <contour>
      <point x="430" y="765" type="curve" smooth="yes"/>
      <point x="411" y="765"/>
      <point x="369" y="736"/>
      <point x="322" y="709" type="curve" smooth="yes"/>
      <point x="273" y="681"/>
      <point x="249" y="655"/>
      <point x="249" y="619" type="curve" smooth="yes"/>
      <point x="249" y="592"/>
      <point x="266" y="570"/>
      <point x="293" y="570" type="curve" smooth="yes"/>
      <point x="331" y="570"/>
      <point x="347" y="607"/>
      <point x="417" y="643" type="curve"/>
      <point x="452" y="598"/>
      <point x="515" y="551"/>
      <point x="553" y="551" type="curve" smooth="yes"/>
      <point x="569" y="551"/>
      <point x="583" y="566"/>
      <point x="583" y="577" type="curve" smooth="yes"/>
      <point x="583" y="616"/>
      <point x="536" y="648"/>
      <point x="504" y="684" type="curve" smooth="yes"/>
      <point x="469" y="722"/>
      <point x="456" y="765"/>
    </contour>
  </outline>
</glyph>
<glyph name="aring" format="1">
  <advance width="518"/>
  <unicode hex="00E5"/>
  <outline>
    <contour>
      <point x="374" y="507" type="move" name="top"/>
    </contour>
    <contour>
      <point x="344" y="7" type="move" name="ogonek"/>
    </contour>
    <contour>
      <point x="337" y="528" type="curve" smooth="yes"/>
      <point x="180" y="528"/>
      <point x="29" y="248"/>
      <point x="29" y="149" type="curve" smooth="yes"/>
      <point x="29" y="92"/>
      <point x="116" y="12"/>
      <point x="172" y="12" type="curve" smooth="yes"/>
      <point x="262" y="12"/>
      <point x="392" y="167"/>
      <point x="448" y="260" type="curve"/>
      <point x="363" y="312" type="line"/>
      <point x="334" y="267"/>
      <point x="323" y="212"/>
      <point x="323" y="162" type="curve" smooth="yes"/>
      <point x="323" y="83"/>
      <point x="368" y="12"/>
      <point x="399" y="12" type="curve" smooth="yes"/>
      <point x="429" y="12"/>
      <point x="435" y="72"/>
      <point x="446" y="134" type="curve" smooth="yes"/>
      <point x="460" y="211"/>
      <point x="477" y="239"/>
      <point x="477" y="269" type="curve" smooth="yes"/>
      <point x="477" y="291"/>
      <point x="402" y="345"/>
      <point x="386" y="345" type="curve" smooth="yes"/>
      <point x="368" y="345"/>
      <point x="359" y="342"/>
      <point x="357" y="330" type="curve" smooth="yes"/>
      <point x="333" y="205"/>
      <point x="207" y="138"/>
      <point x="168" y="138" type="curve" smooth="yes"/>
      <point x="155" y="138"/>
      <point x="153" y="140"/>
      <point x="153" y="151" type="curve" smooth="yes"/>
      <point x="153" y="203"/>
      <point x="267" y="401"/>
      <point x="355" y="401" type="curve" smooth="yes"/>
      <point x="371" y="401"/>
      <point x="375" y="365"/>
      <point x="375" y="301" type="curve" smooth="yes"/>
      <point x="375" y="262"/>
      <point x="385" y="237"/>
      <point x="406" y="237" type="curve" smooth="yes"/>
      <point x="430" y="237"/>
      <point x="489" y="333"/>
      <point x="489" y="385" type="curve" smooth="yes"/>
      <point x="489" y="448"/>
      <point x="390" y="528"/>
    </contour>
    <contour>
      <point x="327" y="653" type="curve" smooth="yes"/>
      <point x="327" y="596"/>
      <point x="369" y="550"/>
      <point x="426" y="550" type="curve" smooth="yes"/>
      <point x="486" y="550"/>
      <point x="543" y="601"/>
      <point x="543" y="671" type="curve" smooth="yes"/>
      <point x="543" y="728"/>
      <point x="501" y="774"/>
      <point x="444" y="774" type="curve" smooth="yes"/>
      <point x="384" y="774"/>
      <point x="327" y="723"/>
    </contour>
    <contour>
      <point x="461" y="665" type="curve" smooth="yes"/>
      <point x="461" y="640"/>
      <point x="447" y="622"/>
      <point x="433" y="622" type="curve" smooth="yes"/>
      <point x="419" y="622"/>
      <point x="408" y="638"/>
      <point x="408" y="656" type="curve" smooth="yes"/>
      <point x="408" y="681"/>
      <point x="422" y="698"/>
      <point x="436" y="698" type="curve" smooth="yes"/>
      <point x="450" y="698"/>
      <point x="461" y="684"/>
    </contour>
  </outline>
</glyph>
<glyph name="ae" format="1">
  <advance width="770"/>
  <unicode hex="00E6"/>
  <outline>
    <contour>
      <point x="500" y="507" type="move" name="top"/>
    </contour>
    <contour>
      <point x="421" y="17" type="move" name="ogonek"/>
    </contour>
    <contour>
      <point x="29" y="149" type="curve" smooth="yes"/>
      <point x="29" y="94"/>
      <point x="118" y="12"/>
      <point x="176" y="12" type="curve" smooth="yes"/>
      <point x="225" y="12"/>
      <point x="289" y="60"/>
      <point x="346" y="116" type="curve"/>
      <point x="374" y="58"/>
      <point x="431" y="12"/>
      <point x="527" y="12" type="curve" smooth="yes"/>
      <point x="628" y="12"/>
      <point x="731" y="69"/>
      <point x="731" y="121" type="curve" smooth="yes"/>
      <point x="731" y="137"/>
      <point x="722" y="148"/>
      <point x="690" y="148" type="curve" smooth="yes"/>
      <point x="662" y="148"/>
      <point x="632" y="120"/>
      <point x="506" y="120" type="curve" smooth="yes"/>
      <point x="455" y="120"/>
      <point x="452" y="137"/>
      <point x="452" y="173" type="curve" smooth="yes"/>
      <point x="452" y="189"/>
      <point x="455" y="206"/>
      <point x="460" y="224" type="curve"/>
      <point x="487" y="218"/>
      <point x="523" y="214"/>
      <point x="568" y="214" type="curve" smooth="yes"/>
      <point x="669" y="214"/>
      <point x="779" y="274"/>
      <point x="779" y="341" type="curve" smooth="yes"/>
      <point x="779" y="417"/>
      <point x="699" y="528"/>
      <point x="602" y="528" type="curve" smooth="yes"/>
      <point x="558" y="528"/>
      <point x="508" y="502"/>
      <point x="463" y="459" type="curve"/>
      <point x="428" y="497"/>
      <point x="374" y="528"/>
      <point x="341" y="528" type="curve" smooth="yes"/>
      <point x="186" y="528"/>
      <point x="29" y="248"/>
    </contour>
    <contour>
      <point x="608" y="405" type="curve" smooth="yes"/>
      <point x="633" y="405"/>
      <point x="663" y="374"/>
      <point x="663" y="357" type="curve" smooth="yes"/>
      <point x="663" y="318"/>
      <point x="593" y="308"/>
      <point x="526" y="308" type="curve" smooth="yes"/>
      <point x="517" y="308"/>
      <point x="507" y="308"/>
      <point x="498" y="309" type="curve"/>
      <point x="530" y="361"/>
      <point x="575" y="405"/>
    </contour>
    <contour>
      <point x="380" y="351" type="curve"/>
      <point x="362" y="320"/>
      <point x="347" y="287"/>
      <point x="339" y="253" type="curve" smooth="yes"/>
      <point x="290" y="178"/>
      <point x="201" y="138"/>
      <point x="172" y="138" type="curve" smooth="yes"/>
      <point x="158" y="138"/>
      <point x="153" y="140"/>
      <point x="153" y="151" type="curve" smooth="yes"/>
      <point x="153" y="203"/>
      <point x="273" y="401"/>
      <point x="359" y="401" type="curve" smooth="yes"/>
      <point x="369" y="401"/>
      <point x="376" y="383"/>
    </contour>
  </outline>
</glyph>
<glyph name="ograve" format="1">
  <advance width="452"/>
  <unicode hex="00F2"/>
  <outline>
    <contour>
      <point x="287" y="507" type="move" name="top"/>
    </contour>
    <contour>
      <point x="253" y="529" type="curve" smooth="yes"/>
      <point x="151" y="529"/>
      <point x="20" y="350"/>
      <point x="20" y="180" type="curve" smooth="yes"/>
      <point x="20" y="86"/>
      <point x="83" y="12"/>
      <point x="155" y="12" type="curve" smooth="yes"/>
      <point x="309" y="12"/>
      <point x="431" y="190"/>
      <point x="431" y="353" type="curve" smooth="yes"/>
      <point x="431" y="442"/>
      <point x="354" y="529"/>
    </contour>
    <contour>
      <point x="300" y="342" type="curve" smooth="yes"/>
      <point x="300" y="270"/>
      <point x="242" y="148"/>
      <point x="166" y="114" type="curve"/>
      <point x="155" y="129"/>
      <point x="154" y="164"/>
      <point x="154" y="197" type="curve" smooth="yes"/>
      <point x="154" y="267"/>
      <point x="223" y="402"/>
      <point x="282" y="436" type="curve"/>
      <point x="298" y="415"/>
      <point x="300" y="367"/>
    </contour>
    <contour>
      <point x="265" y="610" type="curve" smooth="yes"/>
      <point x="319" y="577"/>
      <point x="337" y="554"/>
      <point x="360" y="554" type="curve" smooth="yes"/>
      <point x="380" y="554"/>
      <point x="400" y="575"/>
      <point x="400" y="599" type="curve" smooth="yes"/>
      <point x="400" y="624"/>
      <point x="387" y="639"/>
      <point x="322" y="703" type="curve" smooth="yes"/>
      <point x="281" y="743"/>
      <point x="255" y="779"/>
      <point x="229" y="779" type="curve" smooth="yes"/>
      <point x="198" y="779"/>
      <point x="162" y="736"/>
      <point x="162" y="697" type="curve" smooth="yes"/>
      <point x="162" y="669"/>
      <point x="202" y="649"/>
    </contour>
  </outline>
</glyph>
<glyph name="oacute" format="1">
  <advance width="452"/>
  <unicode hex="00F3"/>
  <outline>
    <contour>
      <point x="287" y="507" type="move" name="top"/>
    </contour>
    <contour>
      <point x="274" y="600" type="curve" smooth="yes"/>
      <point x="274" y="578"/>
      <point x="291" y="554"/>
      <point x="313" y="554" type="curve" smooth="yes"/>
      <point x="335" y="554"/>
      <point x="352" y="571"/>
      <point x="388" y="591" type="curve" smooth="yes"/>
      <point x="484" y="644"/>
      <point x="520" y="645"/>
      <point x="520" y="694" type="curve" smooth="yes"/>
      <point x="520" y="732"/>
      <point x="488" y="778"/>
      <point x="456" y="778" type="curve" smooth="yes"/>
      <point x="430" y="778"/>
      <point x="410" y="754"/>
      <point x="331" y="687" type="curve" smooth="yes"/>
      <point x="286" y="649"/>
      <point x="274" y="629"/>
    </contour>
    <contour>
      <point x="253" y="529" type="curve" smooth="yes"/>
      <point x="151" y="529"/>
      <point x="20" y="350"/>
      <point x="20" y="180" type="curve" smooth="yes"/>
      <point x="20" y="86"/>
      <point x="83" y="12"/>
      <point x="155" y="12" type="curve" smooth="yes"/>
      <point x="309" y="12"/>
      <point x="431" y="190"/>
      <point x="431" y="353" type="curve" smooth="yes"/>
      <point x="431" y="442"/>
      <point x="354" y="529"/>
    </contour>
    <contour>
      <point x="300" y="342" type="curve" smooth="yes"/>
      <point x="300" y="270"/>
      <point x="242" y="148"/>
      <point x="166" y="114" type="curve"/>
      <point x="155" y="129"/>
      <point x="154" y="164"/>
      <point x="154" y="197" type="curve" smooth="yes"/>
      <point x="154" y="267"/>
      <point x="223" y="402"/>
      <point x="282" y="436" type="curve"/>
      <point x="298" y="415"/>
      <point x="300" y="367"/>
    </contour>
  </outline>
</glyph>
<glyph name="otilde" format="1">
  <advance width="452"/>
  <unicode hex="00F5"/>
  <outline>
    <contour>
      <point x="287" y="507" type="move" name="top"/>
    </contour>
    <contour>
      <point x="253" y="529" type="curve" smooth="yes"/>
      <point x="151" y="529"/>
      <point x="20" y="350"/>
      <point x="20" y="180" type="curve" smooth="yes"/>
      <point x="20" y="86"/>
      <point x="83" y="12"/>
      <point x="155" y="12" type="curve" smooth="yes"/>
      <point x="309" y="12"/>
      <point x="431" y="190"/>
      <point x="431" y="353" type="curve" smooth="yes"/>
      <point x="431" y="442"/>
      <point x="354" y="529"/>
    </contour>
    <contour>
      <point x="300" y="342" type="curve" smooth="yes"/>
      <point x="300" y="270"/>
      <point x="242" y="148"/>
      <point x="166" y="114" type="curve"/>
      <point x="155" y="129"/>
      <point x="154" y="164"/>
      <point x="154" y="197" type="curve" smooth="yes"/>
      <point x="154" y="267"/>
      <point x="223" y="402"/>
      <point x="282" y="436" type="curve"/>
      <point x="298" y="415"/>
      <point x="300" y="367"/>
    </contour>
    <contour>
      <point x="119" y="606" type="curve" smooth="yes"/>
      <point x="119" y="574"/>
      <point x="144" y="558"/>
      <point x="172" y="558" type="curve" smooth="yes"/>
      <point x="228" y="558"/>
      <point x="226" y="630"/>
      <point x="271" y="652" type="curve"/>
      <point x="304" y="591"/>
      <point x="354" y="547"/>
      <point x="397" y="547" type="curve" smooth="yes"/>
      <point x="446" y="547"/>
      <point x="513" y="631"/>
      <point x="513" y="690" type="curve" smooth="yes"/>
      <point x="513" y="721"/>
      <point x="498" y="738"/>
      <point x="473" y="738" type="curve" smooth="yes"/>
      <point x="421" y="738"/>
      <point x="410" y="672"/>
      <point x="385" y="657" type="curve" smooth="yes"/>
      <point x="354" y="673"/>
      <point x="339" y="749"/>
      <point x="254" y="749" type="curve" smooth="yes"/>
      <point x="188" y="749"/>
      <point x="119" y="664"/>
    </contour>
  </outline>
</glyph>
<glyph name="uacute" format="1">
  <advance width="479"/>
  <unicode hex="00FA"/>
  <outline>
    <contour>
      <point x="287" y="507" type="move" name="top"/>
    </contour>
    <contour>
      <point x="283" y="7" type="move" name="ogonek"/>
    </contour>
    <contour>
      <point x="271" y="600" type="curve" smooth="yes"/>
      <point x="271" y="578"/>
      <point x="288" y="554"/>
      <point x="310" y="554" type="curve" smooth="yes"/>
      <point x="332" y="554"/>
      <point x="349" y="571"/>
      <point x="385" y="591" type="curve" smooth="yes"/>
      <point x="481" y="644"/>
      <point x="517" y="645"/>
      <point x="517" y="694" type="curve" smooth="yes"/>
      <point x="517" y="732"/>
      <point x="485" y="778"/>
      <point x="453" y="778" type="curve" smooth="yes"/>
      <point x="427" y="778"/>
      <point x="407" y="754"/>
      <point x="328" y="687" type="curve" smooth="yes"/>
      <point x="283" y="649"/>
      <point x="271" y="629"/>
    </contour>
    <contour>
      <point x="164" y="528" type="curve" smooth="yes"/>
      <point x="95" y="528"/>
      <point x="7" y="250"/>
      <point x="7" y="134" type="curve" smooth="yes"/>
      <point x="7" y="79"/>
      <point x="90" y="12"/>
      <point x="129" y="12" type="curve" smooth="yes"/>
      <point x="210" y="12"/>
      <point x="340" y="221"/>
      <point x="371" y="300" type="curve"/>
      <point x="345" y="311" type="line"/>
      <point x="314" y="255"/>
      <point x="281" y="137"/>
      <point x="281" y="70" type="curve" smooth="yes"/>
      <point x="281" y="29"/>
      <point x="304" y="12"/>
      <point x="328" y="12" type="curve" smooth="yes"/>
      <point x="350" y="12"/>
      <point x="365" y="23"/>
      <point x="375" y="54" type="curve" smooth="yes"/>
      <point x="436" y="250"/>
      <point x="492" y="393"/>
      <point x="492" y="416" type="curve" smooth="yes"/>
      <point x="492" y="455"/>
      <point x="438" y="528"/>
      <point x="403" y="528" type="curve" smooth="yes"/>
      <point x="387" y="528"/>
      <point x="379" y="521"/>
      <point x="373" y="503" type="curve" smooth="yes"/>
      <point x="308" y="303"/>
      <point x="169" y="139"/>
      <point x="142" y="139" type="curve" smooth="yes"/>
      <point x="139" y="139"/>
      <point x="137" y="141"/>
      <point x="137" y="145" type="curve" smooth="yes"/>
      <point x="137" y="239"/>
      <point x="238" y="413"/>
      <point x="238" y="445" type="curve" smooth="yes"/>
      <point x="238" y="485"/>
      <point x="204" y="528"/>
    </contour>
  </outline>
</glyph>
<glyph name="thorn" format="1">
  <advance width="526"/>
  <unicode hex="00FE"/>
  <outline>
    <contour>
      <point x="142" y="432" type="curve"/>
      <point x="200" y="331" type="line"/>
      <point x="226" y="356"/>
      <point x="294" y="386"/>
      <point x="328" y="386" type="curve" smooth="yes"/>
      <point x="364" y="386"/>
      <point x="399" y="368"/>
      <point x="399" y="334" type="curve" smooth="yes"/>
      <point x="399" y="254"/>
      <point x="255" y="185"/>
      <point x="196" y="185" type="curve" smooth="yes"/>
      <point x="173" y="185"/>
      <point x="153" y="186"/>
      <point x="137" y="186" type="curve" smooth="yes"/>
      <point x="117" y="186"/>
      <point x="105" y="178"/>
      <point x="105" y="152" type="curve" smooth="yes"/>
      <point x="106" y="104"/>
      <point x="155" y="80"/>
      <point x="204" y="80" type="curve" smooth="yes"/>
      <point x="308" y="80"/>
      <point x="518" y="193"/>
      <point x="518" y="328" type="curve" smooth="yes"/>
      <point x="518" y="409"/>
      <point x="400" y="512"/>
      <point x="346" y="512" type="curve" smooth="yes"/>
      <point x="279" y="512"/>
      <point x="172" y="472"/>
    </contour>
    <contour>
      <point x="-27" y="-108" type="curve" smooth="yes"/>
      <point x="-27" y="-136"/>
      <point x="28" y="-200"/>
      <point x="57" y="-200" type="curve" smooth="yes"/>
      <point x="80" y="-200"/>
      <point x="151" y="93"/>
      <point x="179" y="208" type="curve" smooth="yes"/>
      <point x="221" y="375"/>
      <point x="275" y="624"/>
      <point x="275" y="682" type="curve" smooth="yes"/>
      <point x="275" y="736"/>
      <point x="201" y="807"/>
      <point x="173" y="807" type="curve" smooth="yes"/>
      <point x="151" y="807"/>
      <point x="144" y="795"/>
      <point x="144" y="777" type="curve" smooth="yes"/>
      <point x="144" y="492"/>
      <point x="-27" y="-43"/>
    </contour>
  </outline>
</glyph>
<glyph name="abreve" format="1">
  <advance width="518"/>
  <unicode hex="0103"/>
  <outline>
    <contour>
      <point x="374" y="507" type="move" name="top"/>
    </contour>
    <contour>
      <point x="344" y="7" type="move" name="ogonek"/>
    </contour>
    <contour>
      <point x="337" y="528" type="curve" smooth="yes"/>
      <point x="180" y="528"/>
      <point x="29" y="248"/>
      <point x="29" y="149" type="curve" smooth="yes"/>
      <point x="29" y="92"/>
      <point x="116" y="12"/>
      <point x="172" y="12" type="curve" smooth="yes"/>
      <point x="262" y="12"/>
      <point x="392" y="167"/>
      <point x="448" y="260" type="curve"/>
      <point x="363" y="312" type="line"/>
      <point x="334" y="267"/>
      <point x="323" y="212"/>
      <point x="323" y="162" type="curve" smooth="yes"/>
      <point x="323" y="83"/>
      <point x="368" y="12"/>
      <point x="399" y="12" type="curve" smooth="yes"/>
      <point x="429" y="12"/>
      <point x="435" y="72"/>
      <point x="446" y="134" type="curve" smooth="yes"/>
      <point x="460" y="211"/>
      <point x="477" y="239"/>
      <point x="477" y="269" type="curve" smooth="yes"/>
      <point x="477" y="291"/>
      <point x="402" y="345"/>
      <point x="386" y="345" type="curve" smooth="yes"/>
      <point x="368" y="345"/>
      <point x="359" y="342"/>
      <point x="357" y="330" type="curve" smooth="yes"/>
      <point x="333" y="205"/>
      <point x="207" y="138"/>
      <point x="168" y="138" type="curve" smooth="yes"/>
      <point x="155" y="138"/>
      <point x="153" y="140"/>
      <point x="153" y="151" type="curve" smooth="yes"/>
      <point x="153" y="203"/>
      <point x="267" y="401"/>
      <point x="355" y="401" type="curve" smooth="yes"/>
      <point x="371" y="401"/>
      <point x="375" y="365"/>
      <point x="375" y="301" type="curve" smooth="yes"/>
      <point x="375" y="262"/>
      <point x="385" y="237"/>
      <point x="406" y="237" type="curve" smooth="yes"/>
      <point x="430" y="237"/>
      <point x="489" y="333"/>
      <point x="489" y="385" type="curve" smooth="yes"/>
      <point x="489" y="448"/>
      <point x="390" y="528"/>
    </contour>
    <contour>
      <point x="441" y="651" type="curve" smooth="yes"/>
      <point x="364" y="651"/>
      <point x="379" y="766"/>
      <point x="342" y="766" type="curve" smooth="yes"/>
      <point x="319" y="766"/>
      <point x="273" y="743"/>
      <point x="273" y="687" type="curve" smooth="yes"/>
      <point x="273" y="627"/>
      <point x="332" y="552"/>
      <point x="428" y="552" type="curve" smooth="yes"/>
      <point x="510" y="552"/>
      <point x="606" y="631"/>
      <point x="606" y="691" type="curve" smooth="yes"/>
      <point x="606" y="709"/>
      <point x="594" y="723"/>
      <point x="575" y="723" type="curve" smooth="yes"/>
      <point x="531" y="723"/>
      <point x="511" y="651"/>
    </contour>
  </outline>
</glyph>
<glyph name="aogonek" format="1">
  <advance width="518"/>
  <unicode hex="0105"/>
  <outline>
    <contour>
      <point x="374" y="507" type="move" name="top"/>
    </contour>
    <contour>
      <point x="344" y="7" type="move" name="ogonek"/>
    </contour>
    <contour>
      <point x="337" y="528" type="curve" smooth="yes"/>
      <point x="180" y="528"/>
      <point x="29" y="248"/>
      <point x="29" y="149" type="curve" smooth="yes"/>
      <point x="29" y="92"/>
      <point x="116" y="12"/>
      <point x="172" y="12" type="curve" smooth="yes"/>
      <point x="262" y="12"/>
      <point x="392" y="167"/>
      <point x="448" y="260" type="curve"/>
      <point x="363" y="312" type="line"/>
      <point x="334" y="267"/>
      <point x="323" y="212"/>
      <point x="323" y="162" type="curve" smooth="yes"/>
      <point x="323" y="83"/>
      <point x="368" y="12"/>
      <point x="399" y="12" type="curve" smooth="yes"/>
      <point x="429" y="12"/>
      <point x="435" y="72"/>
      <point x="446" y="134" type="curve" smooth="yes"/>
      <point x="460" y="211"/>
      <point x="477" y="239"/>
      <point x="477" y="269" type="curve" smooth="yes"/>
      <point x="477" y="291"/>
      <point x="402" y="345"/>
      <point x="386" y="345" type="curve" smooth="yes"/>
      <point x="368" y="345"/>
      <point x="359" y="342"/>
      <point x="357" y="330" type="curve" smooth="yes"/>
      <point x="333" y="205"/>
      <point x="207" y="138"/>
      <point x="168" y="138" type="curve" smooth="yes"/>
      <point x="155" y="138"/>
      <point x="153" y="140"/>
      <point x="153" y="151" type="curve" smooth="yes"/>
      <point x="153" y="203"/>
      <point x="267" y="401"/>
      <point x="355" y="401" type="curve" smooth="yes"/>
      <point x="371" y="401"/>
      <point x="375" y="365"/>
      <point x="375" y="301" type="curve" smooth="yes"/>
      <point x="375" y="262"/>
      <point x="385" y="237"/>
      <point x="406" y="237" type="curve" smooth="yes"/>
      <point x="430" y="237"/>
      <point x="489" y="333"/>
      <point x="489" y="385" type="curve" smooth="yes"/>
      <point x="489" y="448"/>
      <point x="390" y="528"/>
    </contour>
    <contour>
      <point x="376" y="95" type="curve" smooth="yes"/>
      <point x="328" y="95"/>
      <point x="214" y="-39"/>
      <point x="214" y="-108" type="curve" smooth="yes"/>
      <point x="214" y="-139"/>
      <point x="255" y="-170"/>
      <point x="302" y="-170" type="curve" smooth="yes"/>
      <point x="346" y="-170"/>
      <point x="454" y="-166"/>
      <point x="454" y="-113" type="curve" smooth="yes"/>
      <point x="454" y="-94"/>
      <point x="430" y="-69"/>
      <point x="409" y="-69" type="curve" smooth="yes"/>
      <point x="396" y="-69"/>
      <point x="382" y="-72"/>
      <point x="372" y="-72" type="curve" smooth="yes"/>
      <point x="361" y="-72"/>
      <point x="341" y="-72"/>
      <point x="341" y="-61" type="curve" smooth="yes"/>
      <point x="341" y="-37"/>
      <point x="428" y="5"/>
      <point x="428" y="50" type="curve" smooth="yes"/>
      <point x="428" y="74"/>
      <point x="399" y="95"/>
    </contour>
  </outline>
</glyph>
<glyph name="cacute" format="1">
  <advance width="493"/>
  <unicode hex="0107"/>
  <outline>
    <contour>
      <point x="290" y="507" type="move" name="top"/>
    </contour>
    <contour>
      <point x="175" y="7" type="move" name="cedilla"/>
    </contour>
    <contour>
      <point x="288" y="600" type="curve" smooth="yes"/>
      <point x="288" y="578"/>
      <point x="305" y="554"/>
      <point x="327" y="554" type="curve" smooth="yes"/>
      <point x="349" y="554"/>
      <point x="366" y="571"/>
      <point x="402" y="591" type="curve" smooth="yes"/>
      <point x="498" y="644"/>
      <point x="534" y="645"/>
      <point x="534" y="694" type="curve" smooth="yes"/>
      <point x="534" y="732"/>
      <point x="502" y="778"/>
      <point x="470" y="778" type="curve" smooth="yes"/>
      <point x="444" y="778"/>
      <point x="424" y="754"/>
      <point x="345" y="687" type="curve" smooth="yes"/>
      <point x="300" y="649"/>
      <point x="288" y="629"/>
    </contour>
    <contour>
      <point x="36" y="169" type="curve" smooth="yes"/>
      <point x="36" y="103"/>
      <point x="147" y="12"/>
      <point x="210" y="12" type="curve" smooth="yes"/>
      <point x="313" y="12"/>
      <point x="441" y="89"/>
      <point x="441" y="147" type="curve" smooth="yes"/>
      <point x="441" y="164"/>
      <point x="429" y="171"/>
      <point x="413" y="171" type="curve" smooth="yes"/>
      <point x="373" y="171"/>
      <point x="368" y="138"/>
      <point x="231" y="138" type="curve" smooth="yes"/>
      <point x="192" y="138"/>
      <point x="179" y="149"/>
      <point x="179" y="179" type="curve" smooth="yes"/>
      <point x="179" y="256"/>
      <point x="297" y="396"/>
      <point x="348" y="396" type="curve" smooth="yes"/>
      <point x="383" y="396"/>
      <point x="395" y="374"/>
      <point x="421" y="374" type="curve" smooth="yes"/>
      <point x="435" y="374"/>
      <point x="445" y="384"/>
      <point x="445" y="400" type="curve" smooth="yes"/>
      <point x="445" y="445"/>
      <point x="385" y="527"/>
      <point x="336" y="527" type="curve" smooth="yes"/>
      <point x="191" y="527"/>
      <point x="36" y="310"/>
    </contour>
  </outline>
</glyph>
<glyph name="Ccaron" format="1">
  <advance width="629"/>
  <unicode hex="010C"/>
  <outline>
    <contour>
      <point x="438" y="743" type="move" name="top"/>
    </contour>
    <contour>
      <point x="208" y="8" type="move" name="cedilla"/>
    </contour>
    <contour>
      <point x="441" y="747" type="curve" smooth="yes"/>
      <point x="254" y="747"/>
      <point x="37" y="423"/>
      <point x="37" y="231" type="curve" smooth="yes"/>
      <point x="37" y="142"/>
      <point x="152" y="13"/>
      <point x="239" y="13" type="curve" smooth="yes"/>
      <point x="362" y="13"/>
      <point x="559" y="135"/>
      <point x="559" y="206" type="curve" smooth="yes"/>
      <point x="559" y="228"/>
      <point x="548" y="245"/>
      <point x="540" y="245" type="curve" smooth="yes"/>
      <point x="514" y="245"/>
      <point x="387" y="160"/>
      <point x="230" y="160" type="curve" smooth="yes"/>
      <point x="194" y="160"/>
      <point x="184" y="180"/>
      <point x="184" y="221" type="curve" smooth="yes"/>
      <point x="184" y="356"/>
      <point x="359" y="592"/>
      <point x="463" y="592" type="curve" smooth="yes"/>
      <point x="489" y="592"/>
      <point x="507" y="584"/>
      <point x="522" y="584" type="curve" smooth="yes"/>
      <point x="528" y="584"/>
      <point x="535" y="589"/>
      <point x="535" y="609" type="curve" smooth="yes"/>
      <point x="535" y="661"/>
      <point x="478" y="747"/>
    </contour>
    <contour>
      <point x="468" y="904" type="curve"/>
      <point x="408" y="954"/>
      <point x="395" y="998"/>
      <point x="350" y="998" type="curve" smooth="yes"/>
      <point x="322" y="998"/>
      <point x="305" y="973"/>
      <point x="305" y="944" type="curve" smooth="yes"/>
      <point x="305" y="889"/>
      <point x="430" y="782"/>
      <point x="455" y="782" type="curve" smooth="yes"/>
      <point x="480" y="782"/>
      <point x="503" y="811"/>
      <point x="542" y="840" type="curve" smooth="yes"/>
      <point x="585" y="872"/>
      <point x="635" y="899"/>
      <point x="635" y="929" type="curve" smooth="yes"/>
      <point x="635" y="952"/>
      <point x="623" y="964"/>
      <point x="598" y="964" type="curve" smooth="yes"/>
      <point x="580" y="964"/>
      <point x="533" y="951"/>
    </contour>
  </outline>
</glyph>
<glyph name="dcaron" format="1">
  <advance width="779"/>
  <unicode hex="010F"/>
  <outline>
    <contour>
      <point x="307" y="86" type="curve" smooth="yes"/>
      <point x="307" y="53"/>
      <point x="354" y="12"/>
      <point x="380" y="12" type="curve" smooth="yes"/>
      <point x="411" y="12"/>
      <point x="467" y="228"/>
      <point x="497" y="357" type="curve" smooth="yes"/>
      <point x="519" y="450"/>
      <point x="574" y="660"/>
      <point x="574" y="683" type="curve" smooth="yes"/>
      <point x="574" y="737"/>
      <point x="500" y="808"/>
      <point x="472" y="808" type="curve" smooth="yes"/>
      <point x="450" y="808"/>
      <point x="443" y="796"/>
      <point x="443" y="778" type="curve" smooth="yes"/>
      <point x="443" y="609"/>
      <point x="307" y="151"/>
    </contour>
    <contour>
      <point x="456" y="273" type="curve" smooth="yes"/>
      <point x="456" y="313"/>
      <point x="406" y="346"/>
      <point x="393" y="346" type="curve" smooth="yes"/>
      <point x="374" y="346"/>
      <point x="366" y="342"/>
      <point x="363" y="330" type="curve" smooth="yes"/>
      <point x="333" y="201"/>
      <point x="200" y="139"/>
      <point x="177" y="139" type="curve" smooth="yes"/>
      <point x="164" y="139"/>
      <point x="163" y="141"/>
      <point x="163" y="152" type="curve" smooth="yes"/>
      <point x="163" y="197"/>
      <point x="211" y="401"/>
      <point x="298" y="401" type="curve" smooth="yes"/>
      <point x="313" y="401"/>
      <point x="349" y="372"/>
      <point x="349" y="316" type="curve" smooth="yes"/>
      <point x="349" y="272"/>
      <point x="359" y="246"/>
      <point x="380" y="246" type="curve" smooth="yes"/>
      <point x="404" y="246"/>
      <point x="420" y="303"/>
      <point x="420" y="358" type="curve" smooth="yes"/>
      <point x="420" y="444"/>
      <point x="364" y="528"/>
      <point x="286" y="528" type="curve" smooth="yes"/>
      <point x="134" y="528"/>
      <point x="40" y="250"/>
      <point x="40" y="149" type="curve" smooth="yes"/>
      <point x="40" y="91"/>
      <point x="106" y="12"/>
      <point x="162" y="12" type="curve" smooth="yes"/>
      <point x="244" y="12"/>
      <point x="456" y="217"/>
    </contour>
    <contour>
      <point x="779" y="706" type="curve" smooth="yes"/>
      <point x="779" y="743"/>
      <point x="736" y="793"/>
      <point x="681" y="793" type="curve" smooth="yes"/>
      <point x="653" y="793"/>
      <point x="605" y="754"/>
      <point x="605" y="729" type="curve" smooth="yes"/>
      <point x="605" y="699"/>
      <point x="628" y="683"/>
      <point x="668" y="683" type="curve" smooth="yes"/>
      <point x="639" y="636"/>
      <point x="577" y="618"/>
      <point x="577" y="581" type="curve"/>
      <point x="577" y="558"/>
      <point x="596" y="550"/>
      <point x="612" y="550" type="curve" smooth="yes"/>
      <point x="690" y="550"/>
      <point x="779" y="637"/>
    </contour>
  </outline>
</glyph>
<glyph name="Iogonek" format="1">
  <advance width="309"/>
  <unicode hex="012E"/>
  <outline>
    <contour>
      <point x="234" y="743" type="move" name="top"/>
    </contour>
    <contour>
      <point x="77" y="8" type="move" name="ogonek"/>
    </contour>
    <contour>
      <point x="50" y="118" type="curve" smooth="yes"/>
      <point x="50" y="90"/>
      <point x="110" y="13"/>
      <point x="138" y="13" type="curve" smooth="yes"/>
      <point x="168" y="13"/>
      <point x="187" y="140"/>
      <point x="217" y="285" type="curve" smooth="yes"/>
      <point x="253" y="459"/>
      <point x="286" y="573"/>
      <point x="286" y="607" type="curve"/>
      <point x="286" y="667"/>
      <point x="210" y="745"/>
      <point x="182" y="745" type="curve" smooth="yes"/>
      <point x="160" y="745"/>
      <point x="152" y="733"/>
      <point x="151" y="712" type="curve" smooth="yes"/>
      <point x="148" y="608"/>
      <point x="50" y="162"/>
    </contour>
    <contour>
      <point x="110" y="96" type="curve" smooth="yes"/>
      <point x="62" y="96"/>
      <point x="-52" y="-38"/>
      <point x="-52" y="-107" type="curve" smooth="yes"/>
      <point x="-52" y="-138"/>
      <point x="-11" y="-169"/>
      <point x="36" y="-169" type="curve" smooth="yes"/>
      <point x="80" y="-169"/>
      <point x="188" y="-165"/>
      <point x="188" y="-112" type="curve" smooth="yes"/>
      <point x="188" y="-93"/>
      <point x="164" y="-68"/>
      <point x="143" y="-68" type="curve" smooth="yes"/>
      <point x="130" y="-68"/>
      <point x="116" y="-71"/>
      <point x="106" y="-71" type="curve" smooth="yes"/>
      <point x="95" y="-71"/>
      <point x="75" y="-71"/>
      <point x="75" y="-60" type="curve" smooth="yes"/>
      <point x="75" y="-36"/>
      <point x="162" y="6"/>
      <point x="162" y="51" type="curve" smooth="yes"/>
      <point x="162" y="75"/>
      <point x="133" y="96"/>
    </contour>
  </outline>
</glyph>
<glyph name="kcommaaccent" format="1">
  <advance width="495"/>
  <unicode hex="0137"/>
  <outline>
    <contour>
      <point x="366" y="-94" type="curve" smooth="yes"/>
      <point x="366" y="-57"/>
      <point x="323" y="-7"/>
      <point x="268" y="-7" type="curve" smooth="yes"/>
      <point x="240" y="-7"/>
      <point x="192" y="-46"/>
      <point x="192" y="-71" type="curve" smooth="yes"/>
      <point x="192" y="-97"/>
      <point x="213" y="-117"/>
      <point x="255" y="-117" type="curve" smooth="yes"/>
      <point x="227" y="-164"/>
      <point x="164" y="-182"/>
      <point x="164" y="-219" type="curve"/>
      <point x="164" y="-242"/>
      <point x="183" y="-250"/>
      <point x="199" y="-250" type="curve" smooth="yes"/>
      <point x="278" y="-250"/>
      <point x="366" y="-163"/>
    </contour>
    <component base="k"/>
  </outline>
</glyph>
<glyph name="lacute" format="1">
  <advance width="234"/>
  <unicode hex="013A"/>
  <outline>
    <contour>
      <point x="242" y="733" type="move" name="top"/>
    </contour>
    <contour>
      <point x="227" y="826" type="curve" smooth="yes"/>
      <point x="227" y="804"/>
      <point x="244" y="780"/>
      <point x="266" y="780" type="curve" smooth="yes"/>
      <point x="288" y="780"/>
      <point x="305" y="797"/>
      <point x="341" y="817" type="curve" smooth="yes"/>
      <point x="437" y="870"/>
      <point x="473" y="871"/>
      <point x="473" y="920" type="curve" smooth="yes"/>
      <point x="473" y="958"/>
      <point x="441" y="1004"/>
      <point x="409" y="1004" type="curve" smooth="yes"/>
      <point x="383" y="1004"/>
      <point x="363" y="980"/>
      <point x="284" y="913" type="curve" smooth="yes"/>
      <point x="239" y="875"/>
      <point x="227" y="855"/>
    </contour>
    <contour>
      <point x="265" y="682" type="curve" smooth="yes"/>
      <point x="265" y="736"/>
      <point x="194" y="808"/>
      <point x="165" y="808" type="curve" smooth="yes"/>
      <point x="142" y="808"/>
      <point x="134" y="796"/>
      <point x="134" y="779" type="curve" smooth="yes"/>
      <point x="134" y="449"/>
      <point x="25" y="132"/>
      <point x="25" y="106" type="curve" smooth="yes"/>
      <point x="25" y="76"/>
      <point x="83" y="12"/>
      <point x="112" y="12" type="curve" smooth="yes"/>
      <point x="144" y="12"/>
      <point x="196" y="234"/>
      <point x="228" y="374" type="curve" smooth="yes"/>
      <point x="246" y="458"/>
      <point x="265" y="628"/>
    </contour>
  </outline>
</glyph>
<glyph name="Lcaron" format="1">
  <advance width="546"/>
  <unicode hex="013D"/>
  <outline>
    <contour>
      <point x="338" y="743" type="move" name="top"/>
    </contour>
    <contour>
      <point x="344" y="544" type="curve"/>
      <point x="344" y="521"/>
      <point x="363" y="513"/>
      <point x="379" y="513" type="curve" smooth="yes"/>
      <point x="458" y="513"/>
      <point x="546" y="600"/>
      <point x="546" y="669" type="curve" smooth="yes"/>
      <point x="546" y="706"/>
      <point x="503" y="756"/>
      <point x="448" y="756" type="curve" smooth="yes"/>
      <point x="420" y="756"/>
      <point x="372" y="717"/>
      <point x="372" y="692" type="curve" smooth="yes"/>
      <point x="372" y="666"/>
      <point x="393" y="646"/>
      <point x="435" y="646" type="curve" smooth="yes"/>
      <point x="407" y="599"/>
      <point x="344" y="581"/>
    </contour>
    <contour>
      <point x="218" y="760" type="curve" smooth="yes"/>
      <point x="195" y="760"/>
      <point x="189" y="747"/>
      <point x="189" y="727" type="curve" smooth="yes"/>
      <point x="189" y="595"/>
      <point x="41" y="227"/>
      <point x="41" y="131" type="curve" smooth="yes"/>
      <point x="41" y="73"/>
      <point x="105" y="14"/>
      <point x="171" y="14" type="curve" smooth="yes"/>
      <point x="329" y="14"/>
      <point x="488" y="66"/>
      <point x="488" y="154" type="curve" smooth="yes"/>
      <point x="488" y="173"/>
      <point x="484" y="186"/>
      <point x="463" y="186" type="curve" smooth="yes"/>
      <point x="438" y="186"/>
      <point x="336" y="145"/>
      <point x="194" y="145" type="curve" smooth="yes"/>
      <point x="184" y="145"/>
      <point x="182" y="145"/>
      <point x="182" y="152" type="curve" smooth="yes"/>
      <point x="182" y="178"/>
      <point x="201" y="244"/>
      <point x="216" y="287" type="curve" smooth="yes"/>
      <point x="254" y="393"/>
      <point x="315" y="562"/>
      <point x="315" y="659" type="curve" smooth="yes"/>
      <point x="315" y="710"/>
      <point x="246" y="760"/>
    </contour>
  </outline>
</glyph>
<glyph name="Lslash" format="1">
  <advance width="546"/>
  <unicode hex="0141"/>
  <outline>
    <contour>
      <point x="307" y="657" type="move" name="top"/>
    </contour>
    <contour>
      <point x="400" y="462" type="curve" smooth="yes"/>
      <point x="400" y="479"/>
      <point x="381" y="483"/>
      <point x="356" y="483" type="curve" smooth="yes"/>
      <point x="327" y="483"/>
      <point x="0" y="444"/>
      <point x="0" y="393" type="curve" smooth="yes"/>
      <point x="0" y="376"/>
      <point x="28" y="336"/>
      <point x="61" y="336" type="curve" smooth="yes"/>
      <point x="82" y="336"/>
      <point x="172" y="358"/>
      <point x="248" y="381" type="curve" smooth="yes"/>
      <point x="353" y="414"/>
      <point x="400" y="433"/>
    </contour>
    <component base="L"/>
  </outline>
</glyph>
<glyph name="lslash" format="1">
  <advance width="383"/>
  <unicode hex="0142"/>
  <outline>
    <contour>
      <point x="300" y="733" type="move" name="top"/>
    </contour>
    <contour>
      <point x="287" y="374" type="curve" smooth="yes"/>
      <point x="305" y="458"/>
      <point x="324" y="628"/>
      <point x="324" y="682" type="curve" smooth="yes"/>
      <point x="324" y="736"/>
      <point x="253" y="808"/>
      <point x="224" y="808" type="curve" smooth="yes"/>
      <point x="201" y="808"/>
      <point x="193" y="796"/>
      <point x="193" y="779" type="curve" smooth="yes"/>
      <point x="193" y="449"/>
      <point x="84" y="132"/>
      <point x="84" y="106" type="curve" smooth="yes"/>
      <point x="84" y="76"/>
      <point x="142" y="12"/>
      <point x="171" y="12" type="curve" smooth="yes"/>
      <point x="203" y="12"/>
      <point x="255" y="234"/>
    </contour>
    <contour>
      <point x="409" y="466" type="curve" smooth="yes"/>
      <point x="409" y="483"/>
      <point x="390" y="487"/>
      <point x="365" y="487" type="curve" smooth="yes"/>
      <point x="336" y="487"/>
      <point x="46" y="450"/>
      <point x="46" y="399" type="curve" smooth="yes"/>
      <point x="46" y="382"/>
      <point x="74" y="342"/>
      <point x="107" y="342" type="curve" smooth="yes"/>
      <point x="128" y="342"/>
      <point x="171" y="361"/>
      <point x="247" y="384" type="curve" smooth="yes"/>
      <point x="352" y="417"/>
      <point x="409" y="437"/>
    </contour>
  </outline>
</glyph>
<glyph name="nacute" format="1">
  <advance width="552"/>
  <unicode hex="0144"/>
  <outline>
    <contour>
      <point x="287" y="507" type="move" name="top"/>
    </contour>
    <contour>
      <point x="273" y="600" type="curve" smooth="yes"/>
      <point x="273" y="578"/>
      <point x="290" y="554"/>
      <point x="312" y="554" type="curve" smooth="yes"/>
      <point x="334" y="554"/>
      <point x="351" y="571"/>
      <point x="387" y="591" type="curve" smooth="yes"/>
      <point x="483" y="644"/>
      <point x="519" y="645"/>
      <point x="519" y="694" type="curve" smooth="yes"/>
      <point x="519" y="732"/>
      <point x="487" y="778"/>
      <point x="455" y="778" type="curve" smooth="yes"/>
      <point x="429" y="778"/>
      <point x="409" y="754"/>
      <point x="330" y="687" type="curve" smooth="yes"/>
      <point x="285" y="649"/>
      <point x="273" y="629"/>
    </contour>
    <contour>
      <point x="107" y="536" type="curve" smooth="yes"/>
      <point x="86" y="536"/>
      <point x="85" y="485"/>
      <point x="80" y="416" type="curve" smooth="yes"/>
      <point x="75" y="353"/>
      <point x="73" y="278"/>
      <point x="50" y="204" type="curve" smooth="yes"/>
      <point x="34" y="156"/>
      <point x="15" y="119"/>
      <point x="15" y="102" type="curve" smooth="yes"/>
      <point x="15" y="82"/>
      <point x="70" y="12"/>
      <point x="100" y="12" type="curve" smooth="yes"/>
      <point x="146" y="12"/>
      <point x="198" y="100"/>
      <point x="229" y="155" type="curve" smooth="yes"/>
      <point x="279" y="244"/>
      <point x="345" y="372"/>
      <point x="384" y="372" type="curve" smooth="yes"/>
      <point x="394" y="372"/>
      <point x="394" y="353"/>
      <point x="394" y="329" type="curve" smooth="yes"/>
      <point x="394" y="300"/>
      <point x="381" y="247"/>
      <point x="369" y="204" type="curve" smooth="yes"/>
      <point x="353" y="151"/>
      <point x="336" y="94"/>
      <point x="336" y="59" type="curve" smooth="yes"/>
      <point x="336" y="24"/>
      <point x="349" y="12"/>
      <point x="370" y="12" type="curve" smooth="yes"/>
      <point x="417" y="12"/>
      <point x="463" y="95"/>
      <point x="490" y="186" type="curve" smooth="yes"/>
      <point x="510" y="253"/>
      <point x="523" y="329"/>
      <point x="523" y="382" type="curve" smooth="yes"/>
      <point x="523" y="450"/>
      <point x="464" y="528"/>
      <point x="392" y="528" type="curve" smooth="yes"/>
      <point x="314" y="528"/>
      <point x="172" y="244"/>
      <point x="119" y="158" type="curve"/>
      <point x="136" y="144" type="line"/>
      <point x="190" y="246"/>
      <point x="215" y="415"/>
      <point x="215" y="447" type="curve" smooth="yes"/>
      <point x="215" y="479"/>
      <point x="161" y="536"/>
    </contour>
  </outline>
</glyph>
<glyph name="Ncommaaccent" format="1">
  <advance width="631"/>
  <unicode hex="0145"/>
  <outline>
    <contour>
      <point x="135" y="-225" type="curve"/>
      <point x="135" y="-248"/>
      <point x="154" y="-256"/>
      <point x="170" y="-256" type="curve" smooth="yes"/>
      <point x="248" y="-256"/>
      <point x="337" y="-169"/>
      <point x="337" y="-100" type="curve" smooth="yes"/>
      <point x="337" y="-63"/>
      <point x="294" y="-13"/>
      <point x="239" y="-13" type="curve" smooth="yes"/>
      <point x="211" y="-13"/>
      <point x="163" y="-52"/>
      <point x="163" y="-77" type="curve" smooth="yes"/>
      <point x="163" y="-103"/>
      <point x="189" y="-128"/>
      <point x="226" y="-123" type="curve" smooth="yes"/>
      <point x="197" y="-170"/>
      <point x="135" y="-188"/>
    </contour>
    <component base="N"/>
  </outline>
</glyph>
<glyph name="Ncaron" format="1">
  <advance width="631"/>
  <unicode hex="0147"/>
  <outline>
    <contour>
      <point x="381" y="743" type="move" name="top"/>
    </contour>
    <contour>
      <point x="524" y="750" type="curve" smooth="yes"/>
      <point x="514" y="750"/>
      <point x="508" y="745"/>
      <point x="505" y="730" type="curve" smooth="yes"/>
      <point x="489" y="649"/>
      <point x="468" y="420"/>
      <point x="416" y="266" type="curve"/>
      <point x="351" y="415"/>
      <point x="304" y="618"/>
      <point x="261" y="682" type="curve" smooth="yes"/>
      <point x="241" y="711"/>
      <point x="198" y="745"/>
      <point x="175" y="745" type="curve" smooth="yes"/>
      <point x="160" y="745"/>
      <point x="154" y="732"/>
      <point x="152" y="707" type="curve" smooth="yes"/>
      <point x="142" y="584"/>
      <point x="32" y="174"/>
      <point x="32" y="108" type="curve" smooth="yes"/>
      <point x="32" y="78"/>
      <point x="90" y="13"/>
      <point x="116" y="13" type="curve" smooth="yes"/>
      <point x="149" y="13"/>
      <point x="190" y="232"/>
      <point x="234" y="432" type="curve"/>
      <point x="293" y="300"/>
      <point x="336" y="148"/>
      <point x="365" y="68" type="curve" smooth="yes"/>
      <point x="377" y="36"/>
      <point x="419" y="13"/>
      <point x="436" y="13" type="curve" smooth="yes"/>
      <point x="517" y="13"/>
      <point x="624" y="556"/>
      <point x="624" y="671" type="curve" smooth="yes"/>
      <point x="624" y="694"/>
      <point x="565" y="750"/>
    </contour>
    <contour>
      <point x="409" y="904" type="curve"/>
      <point x="349" y="954"/>
      <point x="336" y="998"/>
      <point x="291" y="998" type="curve" smooth="yes"/>
      <point x="263" y="998"/>
      <point x="246" y="973"/>
      <point x="246" y="944" type="curve" smooth="yes"/>
      <point x="246" y="889"/>
      <point x="371" y="782"/>
      <point x="396" y="782" type="curve" smooth="yes"/>
      <point x="421" y="782"/>
      <point x="444" y="811"/>
      <point x="483" y="840" type="curve" smooth="yes"/>
      <point x="526" y="872"/>
      <point x="576" y="899"/>
      <point x="576" y="929" type="curve" smooth="yes"/>
      <point x="576" y="952"/>
      <point x="564" y="964"/>
      <point x="539" y="964" type="curve" smooth="yes"/>
      <point x="521" y="964"/>
      <point x="474" y="951"/>
    </contour>
  </outline>
</glyph>
<glyph name="Omacron" format="1">
  <advance width="619"/>
  <unicode hex="014C"/>
  <outline>
    <contour>
      <point x="454" y="743" type="move" name="top"/>
    </contour>
    <contour>
      <point x="222" y="13" type="curve" smooth="yes"/>
      <point x="429" y="13"/>
      <point x="607" y="284"/>
      <point x="607" y="471" type="curve" smooth="yes"/>
      <point x="607" y="613"/>
      <point x="520" y="747"/>
      <point x="386" y="747" type="curve" smooth="yes"/>
      <point x="242" y="747"/>
      <point x="32" y="487"/>
      <point x="32" y="230" type="curve" smooth="yes"/>
      <point x="32" y="140"/>
      <point x="118" y="13"/>
    </contour>
    <contour>
      <point x="465" y="461" type="curve" smooth="yes"/>
      <point x="465" y="320"/>
      <point x="306" y="134"/>
      <point x="221" y="134" type="curve" smooth="yes"/>
      <point x="197" y="134"/>
      <point x="179" y="172"/>
      <point x="179" y="230" type="curve" smooth="yes"/>
      <point x="179" y="411"/>
      <point x="333" y="616"/>
      <point x="398" y="616" type="curve" smooth="yes"/>
      <point x="437" y="616"/>
      <point x="465" y="567"/>
    </contour>
    <contour>
      <point x="658" y="884" type="curve" smooth="yes"/>
      <point x="658" y="907"/>
      <point x="625" y="914"/>
      <point x="579" y="914" type="curve" smooth="yes"/>
      <point x="434" y="914"/>
      <point x="301" y="913"/>
      <point x="301" y="873" type="curve" smooth="yes"/>
      <point x="301" y="850"/>
      <point x="329" y="809"/>
      <point x="357" y="808" type="curve" smooth="yes"/>
      <point x="383" y="808"/>
      <point x="420" y="818"/>
      <point x="498" y="831" type="curve" smooth="yes"/>
      <point x="611" y="849"/>
      <point x="658" y="856"/>
    </contour>
  </outline>
</glyph>
<glyph name="oe" format="1">
  <advance width="906"/>
  <unicode hex="0153"/>
  <outline>
    <contour>
      <point x="398" y="452" type="curve"/>
      <point x="366" y="497"/>
      <point x="314" y="529"/>
      <point x="253" y="529" type="curve" smooth="yes"/>
      <point x="151" y="529"/>
      <point x="20" y="350"/>
      <point x="20" y="180" type="curve" smooth="yes"/>
      <point x="20" y="86"/>
      <point x="83" y="12"/>
      <point x="155" y="12" type="curve" smooth="yes"/>
      <point x="213" y="12"/>
      <point x="267" y="38"/>
      <point x="312" y="79" type="curve"/>
      <point x="344" y="39"/>
      <point x="396" y="12"/>
      <point x="470" y="12" type="curve" smooth="yes"/>
      <point x="571" y="12"/>
      <point x="674" y="69"/>
      <point x="674" y="121" type="curve" smooth="yes"/>
      <point x="674" y="137"/>
      <point x="664" y="148"/>
      <point x="633" y="148" type="curve" smooth="yes"/>
      <point x="605" y="148"/>
      <point x="575" y="120"/>
      <point x="449" y="120" type="curve" smooth="yes"/>
      <point x="398" y="120"/>
      <point x="395" y="137"/>
      <point x="395" y="173" type="curve" smooth="yes"/>
      <point x="395" y="194"/>
      <point x="398" y="206"/>
      <point x="406" y="223" type="curve"/>
      <point x="433" y="217"/>
      <point x="469" y="214"/>
      <point x="511" y="214" type="curve" smooth="yes"/>
      <point x="612" y="214"/>
      <point x="722" y="274"/>
      <point x="722" y="341" type="curve" smooth="yes"/>
      <point x="722" y="417"/>
      <point x="642" y="528"/>
      <point x="545" y="528" type="curve" smooth="yes"/>
      <point x="497" y="528"/>
      <point x="444" y="497"/>
    </contour>
    <contour>
      <point x="300" y="342" type="curve" smooth="yes"/>
      <point x="300" y="250"/>
      <point x="238" y="148"/>
      <point x="166" y="114" type="curve"/>
      <point x="155" y="129"/>
      <point x="154" y="164"/>
      <point x="154" y="197" type="curve" smooth="yes"/>
      <point x="154" y="267"/>
      <point x="223" y="402"/>
      <point x="282" y="436" type="curve"/>
      <point x="298" y="415"/>
      <point x="300" y="367"/>
    </contour>
    <contour>
      <point x="606" y="357" type="curve" smooth="yes"/>
      <point x="606" y="318"/>
      <point x="535" y="309"/>
      <point x="469" y="309" type="curve" smooth="yes"/>
      <point x="460" y="309"/>
      <point x="451" y="309"/>
      <point x="442" y="310" type="curve"/>
      <point x="474" y="362"/>
      <point x="516" y="405"/>
      <point x="551" y="405" type="curve" smooth="yes"/>
      <point x="569" y="405"/>
      <point x="606" y="370"/>
    </contour>
  </outline>
</glyph>
<glyph name="Racute" format="1">
  <advance width="575"/>
  <unicode hex="0154"/>
  <outline>
    <contour>
      <point x="354" y="743" type="move" name="top"/>
    </contour>
    <contour>
      <point x="324" y="744" type="curve" smooth="yes"/>
      <point x="190" y="744"/>
      <point x="74" y="685"/>
      <point x="74" y="648" type="curve" smooth="yes"/>
      <point x="74" y="616"/>
      <point x="118" y="549"/>
      <point x="149" y="549" type="curve" smooth="yes"/>
      <point x="198" y="549"/>
      <point x="252" y="603"/>
      <point x="332" y="603" type="curve" smooth="yes"/>
      <point x="392" y="603"/>
      <point x="414" y="587"/>
      <point x="414" y="561" type="curve" smooth="yes"/>
      <point x="414" y="447"/>
      <point x="196" y="387"/>
      <point x="197" y="320" type="curve" smooth="yes"/>
      <point x="198" y="220"/>
      <point x="362" y="8"/>
      <point x="497" y="8" type="curve" smooth="yes"/>
      <point x="539" y="8"/>
      <point x="554" y="26"/>
      <point x="554" y="49" type="curve" smooth="yes"/>
      <point x="554" y="78"/>
      <point x="491" y="125"/>
      <point x="430" y="185" type="curve" smooth="yes"/>
      <point x="381" y="234"/>
      <point x="355" y="260"/>
      <point x="355" y="295" type="curve" smooth="yes"/>
      <point x="355" y="321"/>
      <point x="568" y="403"/>
      <point x="568" y="571" type="curve" smooth="yes"/>
      <point x="568" y="674"/>
      <point x="467" y="744"/>
    </contour>
    <contour>
      <point x="110" y="8" type="curve" smooth="yes"/>
      <point x="134" y="8"/>
      <point x="155" y="92"/>
      <point x="192" y="199" type="curve" smooth="yes"/>
      <point x="255" y="382"/>
      <point x="264" y="447"/>
      <point x="264" y="511" type="curve" smooth="yes"/>
      <point x="264" y="571"/>
      <point x="189" y="650"/>
      <point x="157" y="650" type="curve" smooth="yes"/>
      <point x="133" y="650"/>
      <point x="125" y="637"/>
      <point x="125" y="617" type="curve" smooth="yes"/>
      <point x="125" y="354"/>
      <point x="22" y="180"/>
      <point x="22" y="109" type="curve" smooth="yes"/>
      <point x="22" y="78"/>
      <point x="78" y="8"/>
    </contour>
    <contour>
      <point x="328" y="836" type="curve" smooth="yes"/>
      <point x="328" y="814"/>
      <point x="345" y="790"/>
      <point x="367" y="790" type="curve" smooth="yes"/>
      <point x="389" y="790"/>
      <point x="406" y="807"/>
      <point x="442" y="827" type="curve" smooth="yes"/>
      <point x="538" y="880"/>
      <point x="574" y="881"/>
      <point x="574" y="930" type="curve" smooth="yes"/>
      <point x="574" y="968"/>
      <point x="542" y="1014"/>
      <point x="510" y="1014" type="curve" smooth="yes"/>
      <point x="484" y="1014"/>
      <point x="464" y="990"/>
      <point x="385" y="923" type="curve" smooth="yes"/>
      <point x="340" y="885"/>
      <point x="328" y="865"/>
    </contour>
  </outline>
</glyph>
<glyph name="rcommaaccent" format="1">
  <advance width="326"/>
  <unicode hex="0157"/>
  <outline>
    <contour>
      <point x="207" y="507" type="move" name="top"/>
    </contour>
    <contour>
      <point x="165" y="-94" type="curve" smooth="yes"/>
      <point x="165" y="-57"/>
      <point x="122" y="-7"/>
      <point x="67" y="-7" type="curve" smooth="yes"/>
      <point x="39" y="-7"/>
      <point x="-9" y="-46"/>
      <point x="-9" y="-71" type="curve" smooth="yes"/>
      <point x="-9" y="-97"/>
      <point x="12" y="-117"/>
      <point x="54" y="-117" type="curve" smooth="yes"/>
      <point x="26" y="-164"/>
      <point x="-37" y="-182"/>
      <point x="-37" y="-219" type="curve"/>
      <point x="-37" y="-242"/>
      <point x="-18" y="-250"/>
      <point x="-2" y="-250" type="curve" smooth="yes"/>
      <point x="77" y="-250"/>
      <point x="165" y="-163"/>
    </contour>
    <contour>
      <point x="109" y="528" type="curve" smooth="yes"/>
      <point x="81" y="528"/>
      <point x="74" y="504"/>
      <point x="74" y="472" type="curve" smooth="yes"/>
      <point x="74" y="444"/>
      <point x="80" y="406"/>
      <point x="80" y="359" type="curve" smooth="yes"/>
      <point x="80" y="331"/>
      <point x="78" y="299"/>
      <point x="71" y="263" type="curve" smooth="yes"/>
      <point x="59" y="198"/>
      <point x="26" y="144"/>
      <point x="26" y="107" type="curve" smooth="yes"/>
      <point x="26" y="69"/>
      <point x="43" y="13"/>
      <point x="86" y="13" type="curve" smooth="yes"/>
      <point x="134" y="13"/>
      <point x="165" y="100"/>
      <point x="198" y="241" type="curve" smooth="yes"/>
      <point x="222" y="346"/>
      <point x="277" y="389"/>
      <point x="323" y="418" type="curve" smooth="yes"/>
      <point x="363" y="444"/>
      <point x="397" y="460"/>
      <point x="397" y="498" type="curve" smooth="yes"/>
      <point x="397" y="524"/>
      <point x="367" y="533"/>
      <point x="324" y="533" type="curve" smooth="yes"/>
      <point x="272" y="533"/>
      <point x="192" y="492"/>
      <point x="144" y="431" type="curve"/>
      <point x="167" y="285" type="line"/>
      <point x="180" y="323"/>
      <point x="187" y="364"/>
      <point x="187" y="398" type="curve" smooth="yes"/>
      <point x="187" y="496"/>
      <point x="143" y="528"/>
    </contour>
  </outline>
</glyph>
<glyph name="Scedilla" format="1">
  <advance width="539"/>
  <unicode hex="015E"/>
  <outline>
    <contour>
      <point x="400" y="743" type="move" name="top"/>
    </contour>
    <contour>
      <point x="191" y="0" type="move" name="cedilla"/>
    </contour>
    <contour>
      <point x="499" y="220" type="curve"/>
      <point x="499" y="365"/>
      <point x="276" y="478"/>
      <point x="276" y="518" type="curve" smooth="yes"/>
      <point x="276" y="540"/>
      <point x="322" y="561"/>
      <point x="397" y="590" type="curve" smooth="yes"/>
      <point x="465" y="616"/>
      <point x="552" y="616"/>
      <point x="552" y="648" type="curve" smooth="yes"/>
      <point x="552" y="690"/>
      <point x="518" y="748"/>
      <point x="464" y="748" type="curve"/>
      <point x="377" y="748"/>
      <point x="246" y="689"/>
      <point x="174" y="618" type="curve" smooth="yes"/>
      <point x="151" y="598"/>
      <point x="134" y="539"/>
      <point x="134" y="497" type="curve" smooth="yes"/>
      <point x="134" y="427"/>
      <point x="360" y="275"/>
      <point x="360" y="222" type="curve" smooth="yes"/>
      <point x="360" y="191"/>
      <point x="271" y="130"/>
      <point x="214" y="130" type="curve" smooth="yes"/>
      <point x="121" y="130"/>
      <point x="92" y="226"/>
      <point x="33" y="226" type="curve"/>
      <point x="11" y="226"/>
      <point x="2" y="202"/>
      <point x="2" y="172" type="curve"/>
      <point x="2" y="106"/>
      <point x="86" y="13"/>
      <point x="227" y="13" type="curve" smooth="yes"/>
      <point x="373" y="13"/>
      <point x="499" y="106"/>
    </contour>
    <contour>
      <point x="212" y="72" type="curve" smooth="yes"/>
      <point x="193" y="72"/>
      <point x="175" y="66"/>
      <point x="170" y="52" type="curve" smooth="yes"/>
      <point x="158" y="22"/>
      <point x="114" y="-59"/>
      <point x="114" y="-83" type="curve" smooth="yes"/>
      <point x="114" y="-102"/>
      <point x="174" y="-100"/>
      <point x="197" y="-118" type="curve"/>
      <point x="127" y="-153"/>
      <point x="36" y="-141"/>
      <point x="36" y="-174" type="curve" smooth="yes"/>
      <point x="36" y="-189"/>
      <point x="66" y="-212"/>
      <point x="107" y="-212" type="curve" smooth="yes"/>
      <point x="212" y="-212"/>
      <point x="316" y="-157"/>
      <point x="317" y="-99" type="curve" smooth="yes"/>
      <point x="317" y="-64"/>
      <point x="245" y="-35"/>
      <point x="216" y="-35" type="curve" smooth="yes"/>
      <point x="202" y="-35"/>
      <point x="188" y="-42"/>
      <point x="181" y="-50" type="curve"/>
      <point x="204" y="-64" type="line"/>
      <point x="231" y="-26"/>
      <point x="258" y="32"/>
      <point x="258" y="48" type="curve" smooth="yes"/>
      <point x="258" y="67"/>
      <point x="234" y="72"/>
    </contour>
  </outline>
</glyph>
<glyph name="scedilla" format="1">
  <advance width="467"/>
  <unicode hex="015F"/>
  <outline>
    <contour>
      <point x="261" y="507" type="move" name="top"/>
    </contour>
    <contour>
      <point x="170" y="7" type="move" name="cedilla"/>
    </contour>
    <contour>
      <point x="344" y="527" type="curve" smooth="yes"/>
      <point x="278" y="527"/>
      <point x="92" y="424"/>
      <point x="92" y="346" type="curve" smooth="yes"/>
      <point x="92" y="260"/>
      <point x="273" y="204"/>
      <point x="273" y="146" type="curve" smooth="yes"/>
      <point x="273" y="130"/>
      <point x="228" y="125"/>
      <point x="198" y="125" type="curve" smooth="yes"/>
      <point x="94" y="125"/>
      <point x="78" y="164"/>
      <point x="43" y="164" type="curve" smooth="yes"/>
      <point x="23" y="164"/>
      <point x="11" y="150"/>
      <point x="11" y="122" type="curve" smooth="yes"/>
      <point x="11" y="80"/>
      <point x="90" y="12"/>
      <point x="212" y="12" type="curve" smooth="yes"/>
      <point x="322" y="12"/>
      <point x="411" y="85"/>
      <point x="411" y="139" type="curve" smooth="yes"/>
      <point x="411" y="256"/>
      <point x="239" y="304"/>
      <point x="239" y="338" type="curve" smooth="yes"/>
      <point x="239" y="378"/>
      <point x="337" y="396"/>
      <point x="357" y="396" type="curve" smooth="yes"/>
      <point x="394" y="396"/>
      <point x="408" y="377"/>
      <point x="435" y="377" type="curve" smooth="yes"/>
      <point x="448" y="377"/>
      <point x="456" y="386"/>
      <point x="456" y="401" type="curve" smooth="yes"/>
      <point x="456" y="446"/>
      <point x="397" y="527"/>
    </contour>
    <contour>
      <point x="191" y="79" type="curve" smooth="yes"/>
      <point x="172" y="79"/>
      <point x="154" y="73"/>
      <point x="149" y="59" type="curve" smooth="yes"/>
      <point x="137" y="29"/>
      <point x="93" y="-52"/>
      <point x="93" y="-76" type="curve" smooth="yes"/>
      <point x="93" y="-95"/>
      <point x="153" y="-93"/>
      <point x="176" y="-111" type="curve"/>
      <point x="106" y="-146"/>
      <point x="15" y="-134"/>
      <point x="15" y="-167" type="curve" smooth="yes"/>
      <point x="15" y="-182"/>
      <point x="45" y="-205"/>
      <point x="86" y="-205" type="curve" smooth="yes"/>
      <point x="191" y="-205"/>
      <point x="295" y="-150"/>
      <point x="296" y="-92" type="curve" smooth="yes"/>
      <point x="296" y="-57"/>
      <point x="224" y="-28"/>
      <point x="195" y="-28" type="curve" smooth="yes"/>
      <point x="181" y="-28"/>
      <point x="167" y="-35"/>
      <point x="160" y="-43" type="curve"/>
      <point x="183" y="-57" type="line"/>
      <point x="210" y="-19"/>
      <point x="237" y="39"/>
      <point x="237" y="55" type="curve" smooth="yes"/>
      <point x="237" y="74"/>
      <point x="213" y="79"/>
    </contour>
  </outline>
</glyph>
<glyph name="Scaron" format="1">
  <advance width="539"/>
  <unicode hex="0160"/>
  <outline>
    <contour>
      <point x="400" y="743" type="move" name="top"/>
    </contour>
    <contour>
      <point x="191" y="0" type="move" name="cedilla"/>
    </contour>
    <contour>
      <point x="499" y="220" type="curve"/>
      <point x="499" y="365"/>
      <point x="276" y="478"/>
      <point x="276" y="518" type="curve" smooth="yes"/>
      <point x="276" y="540"/>
      <point x="322" y="561"/>
      <point x="397" y="590" type="curve" smooth="yes"/>
      <point x="465" y="616"/>
      <point x="552" y="616"/>
      <point x="552" y="648" type="curve" smooth="yes"/>
      <point x="552" y="690"/>
      <point x="518" y="748"/>
      <point x="464" y="748" type="curve"/>
      <point x="377" y="748"/>
      <point x="246" y="689"/>
      <point x="174" y="618" type="curve" smooth="yes"/>
      <point x="151" y="598"/>
      <point x="134" y="539"/>
      <point x="134" y="497" type="curve" smooth="yes"/>
      <point x="134" y="427"/>
      <point x="360" y="275"/>
      <point x="360" y="222" type="curve" smooth="yes"/>
      <point x="360" y="191"/>
      <point x="271" y="130"/>
      <point x="214" y="130" type="curve" smooth="yes"/>
      <point x="121" y="130"/>
      <point x="92" y="226"/>
      <point x="33" y="226" type="curve"/>
      <point x="11" y="226"/>
      <point x="2" y="202"/>
      <point x="2" y="172" type="curve"/>
      <point x="2" y="106"/>
      <point x="86" y="13"/>
      <point x="227" y="13" type="curve" smooth="yes"/>
      <point x="373" y="13"/>
      <point x="499" y="106"/>
    </contour>
    <contour>
      <point x="428" y="904" type="curve"/>
      <point x="368" y="954"/>
      <point x="355" y="998"/>
      <point x="310" y="998" type="curve" smooth="yes"/>
      <point x="282" y="998"/>
      <point x="265" y="973"/>
      <point x="265" y="944" type="curve" smooth="yes"/>
      <point x="265" y="889"/>
      <point x="390" y="782"/>
      <point x="415" y="782" type="curve" smooth="yes"/>
      <point x="440" y="782"/>
      <point x="463" y="811"/>
      <point x="502" y="840" type="curve" smooth="yes"/>
      <point x="545" y="872"/>
      <point x="595" y="899"/>
      <point x="595" y="929" type="curve" smooth="yes"/>
      <point x="595" y="952"/>
      <point x="583" y="964"/>
      <point x="558" y="964" type="curve" smooth="yes"/>
      <point x="540" y="964"/>
      <point x="493" y="951"/>
    </contour>
  </outline>
</glyph>
<glyph name="Umacron" format="1">
  <advance width="578"/>
  <unicode hex="016A"/>
  <outline>
    <contour>
      <point x="313" y="743" type="move" name="top"/>
    </contour>
    <contour>
      <point x="241" y="23" type="move" name="ogonek"/>
    </contour>
    <contour>
      <point x="156" y="747" type="curve" smooth="yes"/>
      <point x="133" y="747"/>
      <point x="126" y="734"/>
      <point x="126" y="714" type="curve" smooth="yes"/>
      <point x="126" y="623"/>
      <point x="46" y="425"/>
      <point x="46" y="229" type="curve" smooth="yes"/>
      <point x="46" y="143"/>
      <point x="133" y="12"/>
      <point x="226" y="12" type="curve" smooth="yes"/>
      <point x="435" y="12"/>
      <point x="576" y="358"/>
      <point x="576" y="574" type="curve" smooth="yes"/>
      <point x="576" y="672"/>
      <point x="476" y="748"/>
      <point x="443" y="748" type="curve" smooth="yes"/>
      <point x="423" y="748"/>
      <point x="417" y="736"/>
      <point x="417" y="717" type="curve" smooth="yes"/>
      <point x="417" y="684"/>
      <point x="430" y="668"/>
      <point x="430" y="569" type="curve" smooth="yes"/>
      <point x="430" y="354"/>
      <point x="304" y="151"/>
      <point x="236" y="151" type="curve" smooth="yes"/>
      <point x="203" y="151"/>
      <point x="186" y="199"/>
      <point x="186" y="249" type="curve" smooth="yes"/>
      <point x="186" y="374"/>
      <point x="258" y="563"/>
      <point x="258" y="635" type="curve" smooth="yes"/>
      <point x="258" y="694"/>
      <point x="184" y="747"/>
    </contour>
    <contour>
      <point x="503" y="884" type="curve" smooth="yes"/>
      <point x="503" y="907"/>
      <point x="470" y="914"/>
      <point x="424" y="914" type="curve" smooth="yes"/>
      <point x="279" y="914"/>
      <point x="146" y="913"/>
      <point x="146" y="873" type="curve" smooth="yes"/>
      <point x="146" y="850"/>
      <point x="174" y="809"/>
      <point x="202" y="808" type="curve" smooth="yes"/>
      <point x="228" y="808"/>
      <point x="265" y="818"/>
      <point x="343" y="831" type="curve" smooth="yes"/>
      <point x="456" y="849"/>
      <point x="503" y="856"/>
    </contour>
  </outline>
</glyph>
<glyph name="umacron" format="1">
  <advance width="479"/>
  <unicode hex="016B"/>
  <outline>
    <contour>
      <point x="287" y="507" type="move" name="top"/>
    </contour>
    <contour>
      <point x="283" y="7" type="move" name="ogonek"/>
    </contour>
    <contour>
      <point x="164" y="528" type="curve" smooth="yes"/>
      <point x="95" y="528"/>
      <point x="7" y="250"/>
      <point x="7" y="134" type="curve" smooth="yes"/>
      <point x="7" y="79"/>
      <point x="90" y="12"/>
      <point x="129" y="12" type="curve" smooth="yes"/>
      <point x="210" y="12"/>
      <point x="340" y="221"/>
      <point x="371" y="300" type="curve"/>
      <point x="345" y="311" type="line"/>
      <point x="314" y="255"/>
      <point x="281" y="137"/>
      <point x="281" y="70" type="curve" smooth="yes"/>
      <point x="281" y="29"/>
      <point x="304" y="12"/>
      <point x="328" y="12" type="curve" smooth="yes"/>
      <point x="350" y="12"/>
      <point x="365" y="23"/>
      <point x="375" y="54" type="curve" smooth="yes"/>
      <point x="436" y="250"/>
      <point x="492" y="393"/>
      <point x="492" y="416" type="curve" smooth="yes"/>
      <point x="492" y="455"/>
      <point x="438" y="528"/>
      <point x="403" y="528" type="curve" smooth="yes"/>
      <point x="387" y="528"/>
      <point x="379" y="521"/>
      <point x="373" y="503" type="curve" smooth="yes"/>
      <point x="308" y="303"/>
      <point x="169" y="139"/>
      <point x="142" y="139" type="curve" smooth="yes"/>
      <point x="139" y="139"/>
      <point x="137" y="141"/>
      <point x="137" y="145" type="curve" smooth="yes"/>
      <point x="137" y="239"/>
      <point x="238" y="413"/>
      <point x="238" y="445" type="curve" smooth="yes"/>
      <point x="238" y="485"/>
      <point x="204" y="528"/>
    </contour>
    <contour>
      <point x="488" y="648" type="curve" smooth="yes"/>
      <point x="488" y="671"/>
      <point x="455" y="678"/>
      <point x="409" y="678" type="curve" smooth="yes"/>
      <point x="264" y="678"/>
      <point x="131" y="677"/>
      <point x="131" y="637" type="curve" smooth="yes"/>
      <point x="131" y="614"/>
      <point x="159" y="573"/>
      <point x="187" y="572" type="curve" smooth="yes"/>
      <point x="213" y="572"/>
      <point x="250" y="582"/>
      <point x="328" y="595" type="curve" smooth="yes"/>
      <point x="441" y="613"/>
      <point x="488" y="620"/>
    </contour>
  </outline>
</glyph>
<glyph name="Uring" format="1">
  <advance width="578"/>
  <unicode hex="016E"/>
  <outline>
    <contour>
      <point x="313" y="743" type="move" name="top"/>
    </contour>
    <contour>
      <point x="241" y="23" type="move" name="ogonek"/>
    </contour>
    <contour>
      <point x="156" y="747" type="curve" smooth="yes"/>
      <point x="133" y="747"/>
      <point x="126" y="734"/>
      <point x="126" y="714" type="curve" smooth="yes"/>
      <point x="126" y="623"/>
      <point x="46" y="425"/>
      <point x="46" y="229" type="curve" smooth="yes"/>
      <point x="46" y="143"/>
      <point x="133" y="12"/>
      <point x="226" y="12" type="curve" smooth="yes"/>
      <point x="435" y="12"/>
      <point x="576" y="358"/>
      <point x="576" y="574" type="curve" smooth="yes"/>
      <point x="576" y="672"/>
      <point x="476" y="748"/>
      <point x="443" y="748" type="curve" smooth="yes"/>
      <point x="423" y="748"/>
      <point x="417" y="736"/>
      <point x="417" y="717" type="curve" smooth="yes"/>
      <point x="417" y="684"/>
      <point x="430" y="668"/>
      <point x="430" y="569" type="curve" smooth="yes"/>
      <point x="430" y="354"/>
      <point x="304" y="151"/>
      <point x="236" y="151" type="curve" smooth="yes"/>
      <point x="203" y="151"/>
      <point x="186" y="199"/>
      <point x="186" y="249" type="curve" smooth="yes"/>
      <point x="186" y="374"/>
      <point x="258" y="563"/>
      <point x="258" y="635" type="curve" smooth="yes"/>
      <point x="258" y="694"/>
      <point x="184" y="747"/>
    </contour>
    <contour>
      <point x="243" y="889" type="curve" smooth="yes"/>
      <point x="243" y="832"/>
      <point x="285" y="786"/>
      <point x="342" y="786" type="curve" smooth="yes"/>
      <point x="402" y="786"/>
      <point x="459" y="837"/>
      <point x="459" y="907" type="curve" smooth="yes"/>
      <point x="459" y="964"/>
      <point x="417" y="1010"/>
      <point x="360" y="1010" type="curve" smooth="yes"/>
      <point x="300" y="1010"/>
      <point x="243" y="959"/>
    </contour>
    <contour>
      <point x="377" y="901" type="curve" smooth="yes"/>
      <point x="377" y="876"/>
      <point x="363" y="858"/>
      <point x="349" y="858" type="curve" smooth="yes"/>
      <point x="335" y="858"/>
      <point x="324" y="874"/>
      <point x="324" y="892" type="curve" smooth="yes"/>
      <point x="324" y="917"/>
      <point x="338" y="934"/>
      <point x="352" y="934" type="curve" smooth="yes"/>
      <point x="366" y="934"/>
      <point x="377" y="920"/>
    </contour>
  </outline>
</glyph>
<glyph name="Scommaaccent" format="1">
  <advance width="539"/>
  <unicode hex="0218"/>
  <outline>
    <contour>
      <point x="400" y="743" type="move" name="top"/>
    </contour>
    <contour>
      <point x="191" y="0" type="move" name="cedilla"/>
    </contour>
    <contour>
      <point x="98" y="-225" type="curve"/>
      <point x="98" y="-248"/>
      <point x="117" y="-256"/>
      <point x="133" y="-256" type="curve" smooth="yes"/>
      <point x="211" y="-256"/>
      <point x="300" y="-169"/>
      <point x="300" y="-100" type="curve" smooth="yes"/>
      <point x="300" y="-63"/>
      <point x="257" y="-13"/>
      <point x="202" y="-13" type="curve" smooth="yes"/>
      <point x="174" y="-13"/>
      <point x="126" y="-52"/>
      <point x="126" y="-77" type="curve" smooth="yes"/>
      <point x="126" y="-103"/>
      <point x="152" y="-128"/>
      <point x="189" y="-123" type="curve" smooth="yes"/>
      <point x="160" y="-170"/>
      <point x="98" y="-188"/>
    </contour>
    <contour>
      <point x="499" y="220" type="curve"/>
      <point x="499" y="365"/>
      <point x="276" y="478"/>
      <point x="276" y="518" type="curve" smooth="yes"/>
      <point x="276" y="540"/>
      <point x="322" y="561"/>
      <point x="397" y="590" type="curve" smooth="yes"/>
      <point x="465" y="616"/>
      <point x="552" y="616"/>
      <point x="552" y="648" type="curve" smooth="yes"/>
      <point x="552" y="690"/>
      <point x="518" y="748"/>
      <point x="464" y="748" type="curve"/>
      <point x="377" y="748"/>
      <point x="246" y="689"/>
      <point x="174" y="618" type="curve" smooth="yes"/>
      <point x="151" y="598"/>
      <point x="134" y="539"/>
      <point x="134" y="497" type="curve" smooth="yes"/>
      <point x="134" y="427"/>
      <point x="360" y="275"/>
      <point x="360" y="222" type="curve" smooth="yes"/>
      <point x="360" y="191"/>
      <point x="271" y="130"/>
      <point x="214" y="130" type="curve" smooth="yes"/>
      <point x="121" y="130"/>
      <point x="92" y="226"/>
      <point x="33" y="226" type="curve"/>
      <point x="11" y="226"/>
      <point x="2" y="202"/>
      <point x="2" y="172" type="curve"/>
      <point x="2" y="106"/>
      <point x="86" y="13"/>
      <point x="227" y="13" type="curve" smooth="yes"/>
      <point x="373" y="13"/>
      <point x="499" y="106"/>
    </contour>
  </outline>
</glyph>
<glyph name="Tcommaaccent" format="1">
  <advance width="505"/>
  <unicode hex="021A"/>
  <outline>
    <contour>
      <point x="360" y="743" type="move" name="top"/>
    </contour>
    <contour>
      <point x="188" y="0" type="move" name="cedilla"/>
    </contour>
    <contour>
      <point x="18" y="-225" type="curve"/>
      <point x="18" y="-248"/>
      <point x="37" y="-256"/>
      <point x="53" y="-256" type="curve" smooth="yes"/>
      <point x="131" y="-256"/>
      <point x="220" y="-169"/>
      <point x="220" y="-100" type="curve" smooth="yes"/>
      <point x="220" y="-63"/>
      <point x="177" y="-13"/>
      <point x="122" y="-13" type="curve" smooth="yes"/>
      <point x="94" y="-13"/>
      <point x="46" y="-52"/>
      <point x="46" y="-77" type="curve" smooth="yes"/>
      <point x="46" y="-103"/>
      <point x="72" y="-128"/>
      <point x="109" y="-123" type="curve" smooth="yes"/>
      <point x="80" y="-170"/>
      <point x="18" y="-188"/>
    </contour>
    <contour>
      <point x="148" y="119" type="curve" smooth="yes"/>
      <point x="148" y="88"/>
      <point x="203" y="18"/>
      <point x="232" y="18" type="curve" smooth="yes"/>
      <point x="254" y="18"/>
      <point x="268" y="99"/>
      <point x="295" y="229" type="curve" smooth="yes"/>
      <point x="332" y="405"/>
      <point x="375" y="537"/>
      <point x="375" y="579" type="curve" smooth="yes"/>
      <point x="375" y="639"/>
      <point x="302" y="717"/>
      <point x="273" y="717" type="curve" smooth="yes"/>
      <point x="251" y="717"/>
      <point x="244" y="704"/>
      <point x="244" y="684" type="curve" smooth="yes"/>
      <point x="244" y="471"/>
      <point x="148" y="190"/>
    </contour>
    <contour>
      <point x="50" y="688" type="curve" smooth="yes"/>
      <point x="50" y="644"/>
      <point x="91" y="597"/>
      <point x="122" y="597" type="curve" smooth="yes"/>
      <point x="172" y="597"/>
      <point x="230" y="605"/>
      <point x="319" y="605" type="curve" smooth="yes"/>
      <point x="449" y="605"/>
      <point x="513" y="598"/>
      <point x="564" y="598" type="curve" smooth="yes"/>
      <point x="599" y="598"/>
      <point x="619" y="618"/>
      <point x="619" y="634" type="curve" smooth="yes"/>
      <point x="619" y="684"/>
      <point x="545" y="737"/>
      <point x="335" y="737" type="curve" smooth="yes"/>
      <point x="203" y="737"/>
      <point x="50" y="730"/>
    </contour>
  </outline>
</glyph>
<glyph name="tcommaaccent" format="1">
  <advance width="364"/>
  <unicode hex="021B"/>
  <outline>
    <contour>
      <point x="293" y="596" type="curve" smooth="yes"/>
      <point x="293" y="643"/>
      <point x="215" y="691"/>
      <point x="186" y="691" type="curve" smooth="yes"/>
      <point x="163" y="691"/>
      <point x="156" y="679"/>
      <point x="156" y="661" type="curve" smooth="yes"/>
      <point x="156" y="452"/>
      <point x="33" y="197"/>
      <point x="33" y="118" type="curve" smooth="yes"/>
      <point x="33" y="67"/>
      <point x="114" y="12"/>
      <point x="153" y="12" type="curve" smooth="yes"/>
      <point x="256" y="12"/>
      <point x="360" y="99"/>
      <point x="360" y="145" type="curve" smooth="yes"/>
      <point x="360" y="163"/>
      <point x="356" y="175"/>
      <point x="335" y="175" type="curve" smooth="yes"/>
      <point x="309" y="175"/>
      <point x="218" y="130"/>
      <point x="179" y="130" type="curve" smooth="yes"/>
      <point x="170" y="130"/>
      <point x="167" y="130"/>
      <point x="167" y="136" type="curve" smooth="yes"/>
      <point x="167" y="148"/>
      <point x="188" y="207"/>
      <point x="206" y="265" type="curve" smooth="yes"/>
      <point x="239" y="372"/>
      <point x="293" y="531"/>
    </contour>
    <contour>
      <point x="353" y="514" type="curve" smooth="yes"/>
      <point x="176" y="514"/>
      <point x="-18" y="484"/>
      <point x="-18" y="446" type="curve" smooth="yes"/>
      <point x="-18" y="413"/>
      <point x="18" y="366"/>
      <point x="49" y="366" type="curve" smooth="yes"/>
      <point x="74" y="366"/>
      <point x="146" y="389"/>
      <point x="228" y="405" type="curve" smooth="yes"/>
      <point x="338" y="426"/>
      <point x="428" y="445"/>
      <point x="428" y="480" type="curve" smooth="yes"/>
      <point x="428" y="501"/>
      <point x="406" y="514"/>
    </contour>
    <contour>
      <point x="48" y="-250" type="curve" smooth="yes"/>
      <point x="127" y="-250"/>
      <point x="215" y="-163"/>
      <point x="215" y="-94" type="curve" smooth="yes"/>
      <point x="215" y="-57"/>
      <point x="172" y="-7"/>
      <point x="117" y="-7" type="curve" smooth="yes"/>
      <point x="89" y="-7"/>
      <point x="41" y="-46"/>
      <point x="41" y="-71" type="curve" smooth="yes"/>
      <point x="41" y="-97"/>
      <point x="62" y="-117"/>
      <point x="104" y="-117" type="curve" smooth="yes"/>
      <point x="76" y="-164"/>
      <point x="13" y="-182"/>
      <point x="13" y="-219" type="curve"/>
      <point x="13" y="-242"/>
      <point x="32" y="-250"/>
    </contour>
  </outline>
</glyph>
<glyph name="caron" format="1">
  <advance width="0"/>
  <unicode hex="02C7"/>
  <outline>
    <contour>
      <point x="0" y="507" type="move" name="_top"/>
    </contour>
    <contour>
      <point x="28" y="668" type="curve"/>
      <point x="-32" y="718"/>
      <point x="-45" y="762"/>
      <point x="-90" y="762" type="curve" smooth="yes"/>
      <point x="-118" y="762"/>
      <point x="-135" y="737"/>
      <point x="-135" y="708" type="curve" smooth="yes"/>
      <point x="-135" y="653"/>
      <point x="-10" y="546"/>
      <point x="15" y="546" type="curve" smooth="yes"/>
      <point x="40" y="546"/>
      <point x="63" y="575"/>
      <point x="102" y="604" type="curve" smooth="yes"/>
      <point x="145" y="636"/>
      <point x="195" y="663"/>
      <point x="195" y="693" type="curve" smooth="yes"/>
      <point x="195" y="716"/>
      <point x="183" y="728"/>
      <point x="158" y="728" type="curve" smooth="yes"/>
      <point x="140" y="728"/>
      <point x="93" y="715"/>
    </contour>
  </outline>
</glyph>
<glyph name="macronmod" format="1">
  <advance width="0"/>
  <unicode hex="02C9"/>
  <outline>
    <contour>
      <point x="0" y="507" type="move" name="_top"/>
    </contour>
    <contour>
      <point x="194" y="648" type="curve" smooth="yes"/>
      <point x="194" y="675"/>
      <point x="150" y="677"/>
      <point x="42" y="677" type="curve" smooth="yes"/>
      <point x="-83" y="677"/>
      <point x="-163" y="667"/>
      <point x="-163" y="637" type="curve" smooth="yes"/>
      <point x="-163" y="614"/>
      <point x="-135" y="573"/>
      <point x="-107" y="572" type="curve" smooth="yes"/>
      <point x="-81" y="572"/>
      <point x="-44" y="582"/>
      <point x="34" y="595" type="curve" smooth="yes"/>
      <point x="147" y="613"/>
      <point x="194" y="620"/>
    </contour>
  </outline>
</glyph>
<glyph name="breve" format="1">
  <advance width="0"/>
  <unicode hex="02D8"/>
  <outline>
    <contour>
      <point x="0" y="507" type="move" name="_top"/>
    </contour>
    <contour>
      <point x="192" y="723" type="curve" smooth="yes"/>
      <point x="148" y="723"/>
      <point x="128" y="651"/>
      <point x="58" y="651" type="curve" smooth="yes"/>
      <point x="-19" y="651"/>
      <point x="-4" y="766"/>
      <point x="-41" y="766" type="curve" smooth="yes"/>
      <point x="-64" y="766"/>
      <point x="-110" y="743"/>
      <point x="-110" y="687" type="curve" smooth="yes"/>
      <point x="-110" y="627"/>
      <point x="-51" y="552"/>
      <point x="45" y="552" type="curve" smooth="yes"/>
      <point x="127" y="552"/>
      <point x="223" y="631"/>
      <point x="223" y="691" type="curve" smooth="yes"/>
      <point x="223" y="709"/>
      <point x="211" y="723"/>
    </contour>
  </outline>
</glyph>
<glyph name="ogonek" format="1">
  <advance width="0"/>
  <unicode hex="02DB"/>
  <outline>
    <contour>
      <point x="0" y="0" type="move" name="_ogonek"/>
    </contour>
    <contour>
      <point x="33" y="88" type="curve" smooth="yes"/>
      <point x="-15" y="88"/>
      <point x="-129" y="-46"/>
      <point x="-129" y="-115" type="curve" smooth="yes"/>
      <point x="-129" y="-146"/>
      <point x="-88" y="-177"/>
      <point x="-41" y="-177" type="curve" smooth="yes"/>
      <point x="3" y="-177"/>
      <point x="111" y="-173"/>
      <point x="111" y="-120" type="curve" smooth="yes"/>
      <point x="111" y="-101"/>
      <point x="87" y="-76"/>
      <point x="66" y="-76" type="curve" smooth="yes"/>
      <point x="53" y="-76"/>
      <point x="39" y="-79"/>
      <point x="29" y="-79" type="curve" smooth="yes"/>
      <point x="18" y="-79"/>
      <point x="-2" y="-79"/>
      <point x="-2" y="-68" type="curve" smooth="yes"/>
      <point x="-2" y="-44"/>
      <point x="85" y="-2"/>
      <point x="85" y="43" type="curve" smooth="yes"/>
      <point x="85" y="67"/>
      <point x="56" y="88"/>
    </contour>
  </outline>
</glyph>
<glyph name="tilde" format="1">
  <advance width="0"/>
  <unicode hex="02DC"/>
  <outline>
    <contour>
      <point x="0" y="507" type="move" name="_top"/>
    </contour>
    <contour>
      <point x="-168" y="606" type="curve" smooth="yes"/>
      <point x="-168" y="574"/>
      <point x="-143" y="558"/>
      <point x="-115" y="558" type="curve" smooth="yes"/>
      <point x="-59" y="558"/>
      <point x="-61" y="630"/>
      <point x="-16" y="652" type="curve"/>
      <point x="17" y="591"/>
      <point x="67" y="547"/>
      <point x="110" y="547" type="curve" smooth="yes"/>
      <point x="159" y="547"/>
      <point x="226" y="631"/>
      <point x="226" y="690" type="curve" smooth="yes"/>
      <point x="226" y="721"/>
      <point x="211" y="738"/>
      <point x="186" y="738" type="curve" smooth="yes"/>
      <point x="134" y="738"/>
      <point x="123" y="672"/>
      <point x="98" y="657" type="curve" smooth="yes"/>
      <point x="67" y="673"/>
      <point x="52" y="749"/>
      <point x="-33" y="749" type="curve" smooth="yes"/>
      <point x="-99" y="749"/>
      <point x="-168" y="664"/>
    </contour>
  </outline>
</glyph>
<glyph name="hungarumlaut" format="1">
  <advance width="0"/>
  <unicode hex="02DD"/>
  <outline>
    <contour>
      <point x="0" y="603" type="move" name="_top"/>
    </contour>
    <contour>
      <point x="-80" y="784" type="curve" smooth="yes"/>
      <point x="-97" y="740"/>
      <point x="-106" y="721"/>
      <point x="-106" y="692" type="curve" smooth="yes"/>
      <point x="-106" y="672"/>
      <point x="-96" y="648"/>
      <point x="-75" y="648" type="curve" smooth="yes"/>
      <point x="-53" y="648"/>
      <point x="-32" y="671"/>
      <point x="5" y="714" type="curve" smooth="yes"/>
      <point x="41" y="756"/>
      <point x="63" y="769"/>
      <point x="63" y="809" type="curve" smooth="yes"/>
      <point x="63" y="847"/>
      <point x="37" y="887"/>
      <point x="-2" y="887" type="curve" smooth="yes"/>
      <point x="-32" y="887"/>
      <point x="-52" y="858"/>
    </contour>
    <contour>
      <point x="100" y="783" type="curve" smooth="yes"/>
      <point x="70" y="736"/>
      <point x="63" y="711"/>
      <point x="63" y="692" type="curve" smooth="yes"/>
      <point x="63" y="674"/>
      <point x="72" y="649"/>
      <point x="92" y="649" type="curve" smooth="yes"/>
      <point x="117" y="649"/>
      <point x="145" y="677"/>
      <point x="177" y="705" type="curve" smooth="yes"/>
      <point x="221" y="743"/>
      <point x="248" y="754"/>
      <point x="248" y="801" type="curve" smooth="yes"/>
      <point x="248" y="842"/>
      <point x="223" y="875"/>
      <point x="186" y="875" type="curve" smooth="yes"/>
      <point x="152" y="875"/>
      <point x="143" y="851"/>
    </contour>
  </outline>
</glyph>
<glyph name="pi" format="1">
  <advance width="870"/>
  <unicode hex="03C0"/>
  <outline>
    <contour>
      <point x="594" y="585" type="curve" smooth="yes"/>
      <point x="458" y="585"/>
      <point x="102" y="570"/>
      <point x="102" y="517" type="curve" smooth="yes"/>
      <point x="102" y="482"/>
      <point x="145" y="420"/>
      <point x="176" y="420" type="curve" smooth="yes"/>
      <point x="273" y="420"/>
      <point x="320" y="448"/>
      <point x="634" y="448" type="curve" smooth="yes"/>
      <point x="762" y="448"/>
      <point x="855" y="458"/>
      <point x="855" y="506" type="curve" smooth="yes"/>
      <point x="855" y="572"/>
      <point x="747" y="585"/>
    </contour>
    <contour>
      <point x="437" y="420" type="curve" smooth="yes"/>
      <point x="437" y="467"/>
      <point x="378" y="524"/>
      <point x="335" y="524" type="curve" smooth="yes"/>
      <point x="302" y="524"/>
      <point x="309" y="371"/>
      <point x="278" y="265" type="curve" smooth="yes"/>
      <point x="225" y="86"/>
      <point x="171" y="112"/>
      <point x="171" y="79" type="curve" smooth="yes"/>
      <point x="171" y="43"/>
      <point x="209" y="12"/>
      <point x="261" y="12" type="curve" smooth="yes"/>
      <point x="331" y="12"/>
      <point x="437" y="227"/>
    </contour>
    <contour>
      <point x="646" y="227" type="curve" smooth="yes"/>
      <point x="646" y="400"/>
      <point x="699" y="441"/>
      <point x="699" y="507" type="curve" smooth="yes"/>
      <point x="699" y="523"/>
      <point x="691" y="532"/>
      <point x="672" y="532" type="curve" smooth="yes"/>
      <point x="563" y="532"/>
      <point x="516" y="418"/>
      <point x="516" y="227" type="curve" smooth="yes"/>
      <point x="516" y="95"/>
      <point x="598" y="12"/>
      <point x="679" y="12" type="curve" smooth="yes"/>
      <point x="711" y="12"/>
      <point x="737" y="23"/>
      <point x="737" y="47" type="curve" smooth="yes"/>
      <point x="737" y="99"/>
      <point x="646" y="88"/>
    </contour>
  </outline>
</glyph>
